<?xml version="1.0" encoding="UTF-8"?>
<svg id="Layer_2" data-name="Layer 2" xmlns="http://www.w3.org/2000/svg" viewBox="0 0 266.16 34.44">
  <defs>
    <style>
      .cls-1 {
        fill: #029a49;
        stroke-width: 0px;
      }
    </style>
  </defs>
  <g id="Layer_1-2" data-name="Layer 1">
    <g>
      <path class="cls-1" d="m6.12,34.31c-1.94-.19-3.43-.83-4.47-1.93C.65,31.31.11,29.85.02,27.98c-.11-2.12.25-4.24,1.09-6.36h2.15c-.53,2.26-.55,3.87-.06,4.82.4.85,1.37,1.37,2.91,1.56v6.31Zm.78-6.23c.31.01.64.02.98.02,3.61.05,5.86-.23,6.75-.83.23-.17.3-.37.19-.58s-.29-.31-.54-.3h-3.69c-1,0-1.78-.39-2.34-1.17-.42-.75-.63-1.55-.63-2.38,0-.9.34-1.74,1.02-2.5.69-.8,1.47-1.21,2.34-1.21h10.65v6.36h-.83c-.19.01-.6,0-1.25-.02-.65-.02-1.18-.39-1.58-1.1-.4-.71-1.01-1.09-1.82-1.15-.81-.06-2.46-.08-4.94-.08-.24,0-.44.06-.62.18-.18.12-.27.28-.27.47,0,.21.09.37.26.46.17.1.38.15.63.15h4.03c1.1,0,1.81.38,2.13,1.13.12.32.17.73.15,1.22-.1,2.49-1.21,4.42-3.34,5.81-1.86,1.2-4.11,1.8-6.77,1.8h-.5v-6.29Z"/>
      <path class="cls-1" d="m40.73,19.13v2.17c0,.95-.3,1.79-.91,2.52-.54.67-1.27,1.14-2.17,1.43-.89.28-1.78.32-2.67.11-.95-.22-1.75-.71-2.39-1.45-.69,1.05-1.62,1.58-2.78,1.58s-2.15-.55-2.82-1.65c-.96,1.1-1.96,1.65-2.99,1.65h-1.47v-6.36h2.06c.4,0,.73-.14,1-.43.28-.27.43-.61.43-1.02v-1.95h2.56v1.95c0,.42.1.76.32,1.02.22.29.53.43.91.43s.69-.14.91-.43c.2-.26.3-.6.3-1.02v-1.95h2.56v1.95c0,.48.27.85.82,1.11.43.22.9.33,1.41.33h4.94Zm-2.43-.78c-.05-.49-1.11-1.37-3.19-2.62l3.62-5.03c.93,1.16,1.54,2.33,1.84,3.49.15.57.2,1.03.17,1.37v2.78h-2.43Z"/>
      <path class="cls-1" d="m48.91,19.15c-.25-.61-.67-1.07-1.26-1.39-.32-.17-.66-.3-1.02-.37v-4.71h.15c2,.01,3.44.75,4.32,2.21.49.83.74,1.65.74,2.45v1.8h1.26v6.36h-1.26v3.66c0,1.42-.52,2.64-1.56,3.66-1.06,1.04-2.38,1.56-3.93,1.56-1.31,0-2.89-.48-4.73-1.43-.92-.47-1.7-.94-2.36-1.41.38-.19,1.15-.54,2.3-1.08,1.24-.57,2.18-1.01,2.84-1.34,2.39-1.14,3.95-2.02,4.69-2.63.37-.31.61-.64.72-.98h-3.19v-6.35h2.28Zm-4.9-.93c-.12.16-.2.35-.22.56-.03.25.05.37.22.37h1.86v6.35h-.48c-.38,0-.7,0-.95-.02-.54,0-1.01-.14-1.41-.43-.54-.38-.82-.96-.82-1.74v-6.12c0-.87.18-1.64.54-2.34.62-1.21,1.66-1.92,3.12-2.12v4.58c-.75,0-1.37.3-1.86.91Z"/>
      <path class="cls-1" d="m54.9,19.13c.8,0,1.31-.41,1.52-1.24.16-.71.11-1.63-.15-2.76-.4-1.66-1.22-3.55-2.49-5.68.53-.48,1.34-1.24,2.41-2.26,1.08-1.01,1.88-1.76,2.41-2.25.35-.32.54-.48.58-.46.02,0,.14.21.35.63l2,4.19c.33.67.26,1.29-.22,1.86-.5.57-1.1.75-1.82.54v9.98c0,2.55-1.46,3.82-4.38,3.82h-1.21v-6.36h.98Z"/>
      <path class="cls-1" d="m70.47,19.13v6.36h-2.82c-1.19,0-2.2-.53-3.02-1.6-.84-1.05-1.26-2.33-1.26-3.82v-9.46c-.41.04-.76-.06-1.06-.3-.27-.22-.46-.51-.56-.87-.1-.37-.09-.73.02-1.08.12-.38.35-.69.67-.93,1.9-1.26,3.27-2.19,4.1-2.78.32-.22.59-.27.82-.13.22.15.33.41.32.78v11.86c0,.67.12,1.16.37,1.47.27.33.72.5,1.34.5h1.09Z"/>
      <path class="cls-1" d="m85.63,18.55c-.19.09-.36.18-.52.28-1,.64-1.94,1.51-2.82,2.6-.4.48-.87,1.11-1.43,1.89-.41.57-.67.91-.8,1.02-.85.77-1.86,1.15-3.01,1.15h-5.88v-6.36h6.16c1.12-.09,1.95-.23,2.47-.45.28-.1.45-.17.5-.22.28-.19.74-.51,1.37-.96l3.95,1.06Zm-4.01-1.91l.07.02-.89-.26c-.78-.23-1.46-.44-2.04-.61-1.56-.47-2.63-.66-3.23-.56-.51.09-.89.24-1.15.46s-.5.59-.72,1.09l-1.65-.35c.61-2.38,1.37-4.09,2.3-5.14.8-.92,1.79-1.41,2.97-1.48.23-.01.48,0,.72.02.27.05.55.11.83.17.26.06.53.13.8.2.37.11,1.69.62,3.95,1.52,1.62.63,2.98,1.01,4.08,1.13.23.03.49.05.78.07.3.01.64.03,1.02.04.22.01.36.05.43.11.05.07.06.2.02.39-.12.73-.38,2.18-.78,4.34-.26-.01-.51-.02-.74-.02-.52.06-1.01.16-1.47.28l-5.31-1.43Zm-2.67,12.34c.11-.11.11-.23,0-.35l-2.04-2.04c-.12-.11-.24-.11-.35,0l-2.04,2.04c-.12.12-.12.24,0,.35l2.04,2.04c.11.12.22.12.33,0l2.06-2.04Z"/>
      <path class="cls-1" d="m101.22,34.44h-.46c-2.59,0-4.52-.66-5.81-1.99-1.01-1.06-1.59-2.53-1.73-4.4-.15-2.12.17-4.24.95-6.36h1.97c-.52,2.23-.5,3.83.06,4.81.71,1.25,2.36,1.87,4.95,1.87h.07v6.07Zm.78-6.09c2.68-.09,4.49-.59,5.42-1.5.4-.4.53-.71.39-.95-.11-.2-.42-.3-.91-.32-2.66-.05-4.3-.2-4.94-.45-.99-.37-1.7-1.1-2.12-2.19-.31-.79-.44-1.68-.39-2.65h8.35c1.32,0,2.21.51,2.65,1.54.28.64.43,1.72.43,3.23,0,2.99-.95,5.32-2.84,6.98-1.56,1.37-3.58,2.15-6.05,2.34v-6.03Zm-2.47-8.83c.27-1.82.96-3.24,2.06-4.27.99-.92,2.18-1.4,3.56-1.45,1.32-.06,2.51.28,3.56,1.02,1.11.77,1.8,1.81,2.06,3.12h-7.31c-.4,0-.73.12-1,.35-.27.22-.41.5-.41.82,0,.15.02.29.07.41h-2.6Z"/>
      <path class="cls-1" d="m119.72,19.13v6.36h-2.82c-1.19,0-2.2-.53-3.02-1.6-.84-1.05-1.26-2.33-1.26-3.82v-9.46c-.41.04-.76-.06-1.06-.3-.27-.22-.46-.51-.56-.87-.1-.37-.09-.73.02-1.08.12-.38.35-.69.67-.93,1.9-1.26,3.27-2.19,4.1-2.78.32-.22.59-.27.82-.13.22.15.33.41.32.78v11.86c0,.67.12,1.16.37,1.47.27.33.72.5,1.34.5h1.09Z"/>
      <path class="cls-1" d="m134.93,21.21c-.06-.33-.24-.59-.54-.78l-.59-.39-1.71-1.13-1.45,2,2.32,1.56c.3.19.62.25.96.19.14-.02.27-.07.39-.13l2.45,2.06c-.33.5-.7.88-1.09,1.17-.89.68-1.83.96-2.83.85-1-.11-1.91-.48-2.74-1.11l-2.21-1.61c-.67,1.06-1.54,1.6-2.62,1.61h-4.84v-6.36h1.91c-.72-.82-.96-1.81-.74-2.97.15-.9.71-1.74,1.69-2.5-.06-.05-.24-.17-.54-.37-.22-.15-.4-.27-.54-.37l-.24-.17s.05-.1.15-.24l3.41-4.55c2.44,1.55,4.51,3.03,6.22,4.45l-3.06,4.23-1.32-.89-.58-.39c-.3-.19-.62-.25-.96-.19-.35.07-.62.25-.82.52-.2.29-.27.59-.2.93.07.33.26.59.56.78l.58.39.87.56,1.08.72.96-1.34,3.51-4.82c3.51,3.04,5.32,5.78,5.42,8.2.05.93-.14,1.83-.58,2.69-.01.04-.03.07-.04.09l-2.32-1.95c.11-.23.14-.48.07-.74Z"/>
      <path class="cls-1" d="m147.31,25.49c-.09,2.71-.52,4.76-1.3,6.16-.99,1.81-2.64,2.71-4.95,2.71-1.31,0-2.89-.51-4.73-1.54-.92-.52-1.7-1.03-2.36-1.54,7.72-3.19,11.66-5.58,11.84-7.16l1.5,1.37Zm-4.27-4.92c-.47-.43-1-.9-1.6-1.41l3.41-4.88c.04.11.66.94,1.87,2.49,1.24,1.58,2.29,2.37,3.17,2.36h1.6v6.36h-1.56c-.87,0-1.63-.25-2.3-.76l-4.6-4.16Zm4.04-9c.11-.12.11-.24,0-.35l-2.04-2.04c-.12-.12-.24-.12-.35,0l-2.04,2.04c-.12.11-.12.23,0,.35l2.04,2.04c.11.11.23.11.35,0l2.04-2.04Zm-2.23,2.69s-.01,0,0,.02v-.02Z"/>
      <path class="cls-1" d="m162.61,25.49h-1.54c-1.41,0-2.62-.67-3.62-2.02-1,1.35-2.2,2.02-3.58,2.02h-1.54v-6.36h2.43c.37,0,.71-.14,1-.41.28-.28.43-.62.43-1.02v-2h2.56v2c0,.38.15.72.45,1.02.28.27.62.41,1,.41h2.41v6.36Zm-5.21,3.49c.12-.11.12-.23,0-.35l-2.04-2.04c-.11-.11-.23-.11-.35,0l-2.04,2.04c-.11.12-.11.24,0,.35l2.04,2.04c.12.12.24.12.35,0l2.04-2.04Zm4.58,0c.11-.11.11-.23,0-.35l-2.04-2.04c-.12-.11-.24-.11-.35,0l-2.04,2.04c-.11.12-.11.24,0,.35l2.04,2.04c.11.12.23.12.35,0l2.04-2.04Z"/>
      <path class="cls-1" d="m177.53,19.13v6.36h-.96c-1.2,0-2.4-.83-3.6-2.49-.46,1-1.27,1.71-2.45,2.13-.66.24-1.31.35-1.97.35h-5.07v-6.36l5.6.02c.83-.01,1.37-.25,1.61-.72.22-.42.18-.89-.13-1.41-.52-.9-1.88-1.99-4.08-3.25-1.57-.93-2.58-1.49-3.02-1.69l1.65-5.84,9.91-4.99c.47-.25.85-.29,1.15-.13.32.16.44.5.35,1-.07.4-.28,1.43-.61,3.1-.3,1.41-.5,2.44-.61,3.08-.06.3-.22.53-.48.69-.25.16-.52.21-.82.15-.3-.06-.52-.22-.67-.46-.16-.23-.22-.49-.17-.78l-4.25,1.97c.27.22.78.71,1.52,1.45.22.22.37.38.45.46,1.08,1.34,1.84,2.47,2.28,3.41.21.45.56,1.45,1.04,3.01.11.2.22.36.32.48.26.3.6.45,1.02.46h1.99Zm-5.21-19.13l-6.49,3.3-.54,2.19,6.49-3.32.54-2.17Z"/>
      <path class="cls-1" d="m184.69,19.13v2.25c0,1.73-.74,2.93-2.21,3.6-.75.35-1.57.52-2.45.52h-1.65v-6.36h6.31Zm-2.43-.78c-.14-.49-1.18-1.32-3.12-2.47l3.56-5.21c1.32,1.61,1.99,3.27,1.99,4.97v2.71h-2.43Zm2.69-10.58c.12-.12.12-.24,0-.35l-2.04-2.04c-.11-.12-.23-.12-.35,0l-2.04,2.04c-.11.11-.11.23,0,.35l2.04,2.04c.12.11.24.11.35,0l2.04-2.04Z"/>
      <path class="cls-1" d="m192.26,4.92c0,.07-.56,6.93-1.69,20.58h-1.95l-2.91-16.92c3.2-2.24,5-3.49,5.4-3.77.35-.27.62-.38.83-.32.23.07.34.22.32.43Z"/>
      <path class="cls-1" d="m204.57,25.49h-4.17c-1.73-.14-2.98-.77-3.73-1.89-.61-.89-.9-2.08-.87-3.56.04-1.68.39-3.35,1.06-4.99h1.82c-.51,1.82-.37,3.04.41,3.67.38.32.82.46,1.32.41h4.17v6.36Zm2.93-10.28c.12-.11.12-.23,0-.35l-2.04-2.04c-.11-.11-.23-.11-.35,0l-2.04,2.04c-.11.12-.11.24,0,.35l2.04,2.04c.12.12.24.12.35,0l2.04-2.04Zm-2.15,3.92h6.68c1.88,0,3.29-.68,4.23-2.04.47-.68.75-1.36.83-2.04h2.17c-.09.31-.24,1.11-.45,2.41-.06.41.04.79.3,1.13.26.36.59.54.98.54h1.09v6.36h-1.71c-1.47,0-2.6-.71-3.38-2.12-.69.82-1.55,1.41-2.56,1.78-.66.24-1.16.35-1.52.33h-6.68v-6.36Zm6.74-3.92c.12-.11.12-.23,0-.35l-2.04-2.04c-.11-.11-.23-.11-.35,0l-2.04,2.04c-.11.12-.11.24,0,.35l2.04,2.04c.12.12.24.12.35,0l2.04-2.04Z"/>
      <path class="cls-1" d="m226.33,15.92c-.51.27-.76.67-.76,1.19,0,.73.32,1.29.96,1.67.31.2.62.32.95.35.32-.06.64-.2.95-.41.64-.41.96-.95.96-1.61,0-.46-.25-.83-.76-1.13-.25-.14-.48-.23-.71-.3v-4.62c.27,0,.54.04.82.11,1.15.29,2,1.03,2.56,2.23.56,1.21.66,2.53.32,3.95-.16.64-.4,1.24-.72,1.78h1.28v6.36h-2.08c-1.48,0-2.67-.51-3.54-1.52-1.5,1.01-2.95,1.52-4.36,1.52h-.15v-6.36h1.56c-.51-1.17-.59-2.45-.26-3.82.35-1.42,1.04-2.54,2.1-3.34.57-.43,1.14-.71,1.73-.83v4.51c-.29.04-.56.13-.83.28Zm3.67-7.53c.12-.12.12-.24,0-.35l-2.04-2.04c-.11-.12-.23-.12-.35,0l-2.04,2.04c-.11.11-.11.23,0,.35l2.04,2.04c.12.11.24.11.35,0l2.04-2.04Z"/>
      <path class="cls-1" d="m247.09,19.13v6.36h-.96c-1.2,0-2.4-.83-3.6-2.49-.46,1-1.27,1.71-2.45,2.13-.66.24-1.31.35-1.97.35h-5.07v-6.36l5.6.02c.83-.01,1.37-.25,1.61-.72.22-.42.18-.89-.13-1.41-.52-.9-1.88-1.99-4.08-3.25-1.57-.93-2.58-1.49-3.02-1.69l1.65-5.84,9.91-4.99c.47-.25.85-.29,1.15-.13.32.16.44.5.35,1-.07.4-.28,1.43-.61,3.1-.3,1.41-.5,2.44-.61,3.08-.06.3-.22.53-.48.69-.25.16-.52.21-.82.15-.3-.06-.52-.22-.67-.46-.16-.23-.22-.49-.17-.78l-4.25,1.97c.27.22.78.71,1.52,1.45.22.22.37.38.45.46,1.08,1.34,1.84,2.47,2.28,3.41.21.45.56,1.45,1.04,3.01.11.2.22.36.32.48.26.3.6.45,1.02.46h1.99Zm-5.21-19.13l-6.49,3.3-.54,2.19,6.49-3.32.54-2.17Z"/>
      <path class="cls-1" d="m254.78,25.48c-1-.12-1.79-.67-2.38-1.63-.96,1.1-1.96,1.65-2.99,1.65h-1.47v-6.36h2.06c.4,0,.73-.14,1-.43.28-.27.43-.61.43-1.02v-1.95h2.56v1.95c0,.42.1.76.32,1.02.12.16.28.28.46.35v6.42Zm2.21-12.75c.11-.12.11-.24,0-.35l-2.06-2.04c-.11-.12-.22-.12-.33,0l-2.06,2.04c-.11.11-.11.23,0,.35l2.06,2.04c.11.11.22.11.33,0l2.06-2.04Zm2.28-3.4c.12-.12.12-.24,0-.35l-2.04-2.04c-.11-.12-.23-.12-.35,0l-2.04,2.04c-.11.11-.11.23,0,.35l2.04,2.04c.12.11.24.11.35,0l2.04-2.04Zm-3.71,9.76c.23-.06.43-.19.58-.39.2-.26.3-.6.3-1.02v-1.95h2.56v1.95c0,.48.27.85.82,1.11.43.22.9.33,1.41.33h4.94v2.17c0,.95-.3,1.79-.91,2.52-.54.67-1.27,1.14-2.17,1.43-.89.28-1.78.32-2.67.11-.95-.22-1.75-.71-2.39-1.45-.63.95-1.45,1.47-2.45,1.56v-6.38Zm6.01-6.36c.11-.12.11-.24,0-.35l-2.06-2.04c-.11-.12-.22-.12-.33,0l-2.06,2.04c-.11.11-.11.23,0,.35l2.06,2.04c.11.11.22.11.33,0l2.06-2.04Zm2.15,5.62c-.05-.49-1.11-1.37-3.19-2.62l3.62-5.03c.93,1.16,1.54,2.33,1.84,3.49.15.57.2,1.03.17,1.37v2.78h-2.43Z"/>
    </g>
  </g>
</svg>