<?xml version="1.0" encoding="UTF-8"?>
<svg id="Layer_2" data-name="Layer 2" xmlns="http://www.w3.org/2000/svg" viewBox="0 0 74.37 51.01">
  <defs>
    <style>
      .cls-1 {
        fill: #fff;
        stroke-width: 0px;
      }
    </style>
  </defs>
  <g id="Layer_1-2" data-name="Layer 1">
    <g>
      <path class="cls-1" d="m31.5,13.25c.32-.16.66-.24,1.01-.24-.19.19-.34.32-.43.38-.83.58-1.66,1.14-2.47,1.7-.82.56-1.62,1.14-2.42,1.75-.99.74-1.97,1.47-2.93,2.21-.96.74-1.94,1.47-2.93,2.21-.35.26-.62.54-.79.84-.18.3-.33.65-.46,1.03-.64,2.21-1.33,4.4-2.06,6.58-.74,2.18-1.54,4.34-2.4,6.48-.61,1.44-1.25,2.86-1.92,4.27-.67,1.41-1.44,2.78-2.3,4.13-.38.58-.79,1.14-1.22,1.7-.43.56-.87,1.11-1.32,1.66-.7.83-1.55,1.55-2.54,2.16-.61.42-1.23.69-1.87.82-1.02.19-1.94.03-2.74-.48-.8-.51-1.33-1.26-1.58-2.26-.13-.7-.14-1.47-.05-2.3.13-.67.3-1.32.53-1.94s.48-1.24.77-1.85c.61-1.25,1.28-2.45,2.02-3.6.74-1.15,1.54-2.27,2.4-3.36,1.86-2.3,3.82-4.5,5.88-6.58,2.06-2.08,4.25-4.08,6.55-6,.32-.26.56-.45.72-.58.16-.13.29-.26.38-.41.1-.14.18-.32.24-.53.06-.21.16-.54.29-.98l3.17-12.1c.06-.19.11-.38.14-.58.03-.19.06-.37.1-.53l.14-.58c.1-.22.24-.34.43-.34.22.03.34.16.34.38v.53c0,.19-.02.37-.05.53-.16.64-.3,1.27-.43,1.9-.13.62-.27,1.26-.43,1.9-.32,1.31-.64,2.61-.96,3.89-.32,1.28-.66,2.58-1.01,3.89-.06.16-.12.33-.17.5s-.04.34.02.5c.19.06.34.04.46-.07.11-.11.23-.2.36-.26,1.06-.74,2.1-1.47,3.14-2.21,1.04-.74,2.09-1.47,3.14-2.21.54-.35,1.09-.69,1.63-1.01.54-.32,1.09-.64,1.63-.96Zm-13.06,11.57c.06-.16.12-.34.17-.53.05-.19.02-.42-.07-.67-.16.16-.31.29-.46.38-.14.1-.3.22-.46.38-3.65,3.23-6.99,6.64-10.03,10.22-.77.93-1.5,1.86-2.18,2.78-.69.93-1.32,1.9-1.9,2.93-.45.7-.85,1.42-1.2,2.16-.35.74-.66,1.5-.91,2.3-.29.86-.42,1.68-.38,2.45.06,1.06.46,1.83,1.2,2.33s1.6.55,2.59.17c.26-.13.51-.26.77-.41.26-.14.5-.3.72-.46.35-.35.71-.7,1.08-1.03s.71-.7,1.03-1.08c.74-.83,1.38-1.71,1.94-2.64.56-.93,1.11-1.87,1.66-2.83.51-.96.99-1.94,1.44-2.93.45-.99.88-2,1.3-3.02.7-1.73,1.36-3.46,1.97-5.21.61-1.75,1.18-3.51,1.73-5.3ZM23.58,3.17c-.29-.1-.4-.32-.34-.67.1-.45.23-.86.41-1.25.18-.38.44-.8.79-1.25.26,1.22.19,2.16-.19,2.83-.16.29-.38.4-.67.34Z"/>
      <path class="cls-1" d="m48.69,13.49l-.24.38s-.05.06-.05.1c-.03.03-.08.11-.14.24l-.1.1c-.1.06-.18.14-.26.22s-.18.15-.31.22c-.7.48-1.45.95-2.23,1.42-.79.46-1.64.94-2.57,1.42-.61.32-1.26.56-1.97.72-.48.13-.94.18-1.39.14-.99-.06-1.7-.54-2.11-1.44-.16-.29-.27-.7-.34-1.25,0-.32.02-.62.05-.89.03-.27.08-.54.14-.79-.06.06-.13.11-.19.14-.06.06-.13.13-.19.19s-.13.13-.19.19c-.86.77-1.65,1.45-2.35,2.04-.7.59-1.41,1.14-2.11,1.66-.16.13-.34.26-.55.38s-.44.27-.7.43c-.45.29-.94.51-1.49.67-.26.1-.5.14-.72.14-.1,0-.16-.02-.19-.05-.67-.06-1.06-.42-1.15-1.06-.03-.22,0-.58.1-1.06.06-.22.15-.46.26-.7.11-.24.25-.49.41-.74.22-.35.47-.68.74-.98.27-.3.58-.63.94-.98,1.6-1.5,3.47-2.64,5.62-3.41.35-.13.67-.22.96-.26s.56-.09.82-.12c.22-.03.48-.03.77,0,.1.03.18.07.26.12.08.05.15.1.22.17.16.16.22.34.19.53.16,0,.27.03.34.1.16.1.24.27.24.53,0,.1-.02.19-.05.29-.03.1-.07.18-.1.24-.26.48-.46,1.04-.62,1.68-.16.48-.24.94-.24,1.39.03.19.06.37.1.53.03.16.1.32.19.48.19.38.5.59.91.62.35,0,.61-.02.77-.05.16-.03.31-.06.46-.1.14-.03.31-.08.5-.14.38-.13.77-.28,1.15-.46.38-.17.75-.34,1.1-.5.54-.29,1.09-.58,1.63-.89.54-.3,1.09-.63,1.63-.98.13-.1.26-.18.38-.26.13-.08.27-.15.43-.22.22-.16.48-.22.77-.19l.48.05Zm-20.21,4.94c0,.19.02.29.05.29,0,.03.1.05.29.05.26-.06.43-.11.53-.14.16-.06.32-.14.48-.22s.32-.17.48-.26c.29-.19.56-.38.82-.55s.5-.34.72-.5c1.02-.8,2.04-1.63,3.05-2.5,1.01-.86,1.99-1.78,2.95-2.74l-.05-.1c-.06-.06-.1-.13-.1-.19h-.14c-.16.03-.3.06-.43.07-.13.02-.26.04-.38.07-.38.1-.72.22-1.01.38-2.11.86-3.92,2.05-5.42,3.55-.19.19-.38.39-.55.6s-.34.41-.5.6c-.26.29-.45.62-.58,1.01-.06.13-.1.24-.12.34-.02.1-.04.18-.07.24Z"/>
      <path class="cls-1" d="m46.62,25.15c.1-.1.17-.17.24-.22s.13-.1.19-.17c.22-.29.45-.58.67-.89.22-.3.45-.6.67-.89.58-.83,1.16-1.66,1.75-2.47.59-.82,1.19-1.64,1.8-2.47.58-.8,1.17-1.58,1.78-2.33.61-.75,1.26-1.46,1.97-2.14.32-.32.67-.62,1.06-.91.06-.06.13-.1.19-.1s.13-.03.19-.1c0,.16-.02.27-.05.34-.06.1-.14.2-.22.31-.08.11-.15.23-.22.36-1.28,1.57-2.51,3.17-3.7,4.8-1.18,1.63-2.35,3.28-3.5,4.94-.29.42-.59.82-.91,1.2-.32.38-.64.77-.96,1.15-.19.29-.42.51-.67.67-.26.19-.5.25-.74.17-.24-.08-.41-.26-.5-.55-.06-.19-.1-.38-.1-.58v-.58c0-.58.04-1.15.12-1.73.08-.58.17-1.15.26-1.73.25-1.41.55-2.8.89-4.18s.68-2.75,1.03-4.13c.32-1.22.63-2.42.94-3.62.3-1.2.63-2.41.98-3.62.13-.51.27-1.02.43-1.51s.34-1,.53-1.51c.06-.22.15-.45.26-.67.11-.22.22-.43.31-.62.22-.38.53-.7.91-.96.42-.26.82-.33,1.2-.22.38.11.7.38.96.79.26.38.38.88.38,1.49,0,.96-.19,1.89-.58,2.78-.26.74-.58,1.41-.96,2.02-.54,1.06-1.14,2.07-1.8,3.05-.66.98-1.38,1.91-2.18,2.81-.19.19-.34.45-.43.77-.38,1.54-.76,3.06-1.13,4.58-.37,1.52-.68,3.05-.94,4.58-.06.26-.1.51-.12.77-.02.26-.04.51-.07.77v.19c0,.06.02.18.05.34Zm3.17-14.64c.06,0,.11.02.14.05.06-.06.11-.13.14-.19.03-.06.08-.13.14-.19.35-.58.7-1.15,1.03-1.73.34-.58.68-1.17,1.03-1.78.16-.29.3-.58.43-.86l.38-.86c.16-.32.27-.64.34-.96.06-.32.13-.66.19-1.01.06-.48.03-.88-.1-1.2-.19-.61-.53-.67-1.01-.19-.1.1-.18.21-.26.34s-.15.26-.22.38c-.1.29-.2.58-.31.86s-.22.59-.31.91c-.26.99-.52,1.98-.79,2.98-.27.99-.54,1.98-.79,2.98-.03.1-.05.26-.05.48Z"/>
      <path class="cls-1" d="m59.82,16.85c-.13,0-.21.04-.24.12-.03.08-.08.15-.14.22-.19.29-.39.58-.6.86s-.41.58-.6.86c-.16.16-.3.33-.41.5s-.25.34-.41.5c-.1.1-.19.18-.29.26-.1.08-.21.15-.34.22-.29.16-.57.19-.84.1-.27-.1-.46-.3-.55-.62-.1-.42-.13-.78-.1-1.1.03-.26.06-.5.1-.74.03-.24.08-.49.14-.74.1-.45.2-.9.31-1.34.11-.45.23-.9.36-1.34.03-.1.06-.19.1-.29.03-.1.03-.22,0-.38-.06.06-.11.1-.14.1s-.08.02-.14.05c-.13.13-.22.21-.29.24-.03.03-.08.04-.14.02s-.1-.06-.1-.12c0-.16.02-.26.05-.29l.29-.72c.22-.32.45-.64.67-.96.22-.32.45-.64.67-.96.06-.1.19-.21.38-.34.19-.16.38-.19.58-.1.19.1.3.26.34.48.03.19.03.38,0,.58-.1.35-.21.67-.34.96-.26.64-.5,1.3-.72,1.99-.22.69-.43,1.38-.62,2.09-.06.26-.12.52-.17.79-.05.27-.1.55-.17.84,0,.06,0,.14-.02.22-.02.08,0,.15.07.22.06.06.16.03.29-.1.13-.16.24-.3.34-.43.1-.13.21-.27.34-.43.7-1.02,1.4-2.05,2.09-3.07.69-1.02,1.38-2.05,2.09-3.07l.29-.43c.06-.1.16-.21.29-.34.25-.19.5-.22.72-.1.29.13.38.35.29.67-.03.16-.11.4-.24.72-.22.45-.44.9-.65,1.34-.21.45-.42.9-.65,1.34-.26.54-.49,1.1-.7,1.68s-.36,1.17-.46,1.78c-.06.35-.13.71-.19,1.08-.06.37-.06.73,0,1.08,0,.1-.03.14-.1.14-.1,0-.16-.02-.19-.05-.13-.13-.21-.24-.24-.34-.13-.26-.19-.58-.19-.96-.03-.35-.02-.68.02-.98.05-.3.1-.63.17-.98,0-.13.03-.29.1-.48,0-.03-.03-.11-.1-.24Z"/>
      <path class="cls-1" d="m67.31,17.9c0-.13-.04-.23-.12-.31-.08-.08-.15-.17-.22-.26-.26-.32-.5-.63-.74-.94-.24-.3-.47-.63-.7-.98-.64-.93-1.09-2-1.34-3.22-.38-1.57-.03-2.96,1.06-4.18.35-.38.77-.77,1.25-1.15,1.31-1.02,2.82-1.84,4.51-2.45.1-.06.21-.1.34-.12.13-.02.26-.04.38-.07.51-.06.77.16.77.67,0,.19-.05.38-.14.58-.26.7-.51,1.4-.77,2.09-.26.69-.54,1.38-.86,2.09-.03,0-.1.05-.19.14v-.48c.03-.54.1-1.06.22-1.56.11-.5.25-1,.41-1.51.06-.16.12-.3.17-.43.05-.13.05-.27.02-.43-.06.03-.12.04-.17.02-.05-.02-.1,0-.17.02-.77.35-1.51.74-2.23,1.18-.72.43-1.4.94-2.04,1.51-.38.29-.71.66-.96,1.1-.45.77-.59,1.52-.43,2.26.19,1.06.54,2,1.06,2.83.25.45.54.87.86,1.27.32.4.66.81,1.01,1.22,0,.03.03.05.1.05.03,0,.05.02.05.05.13.03.23.02.31-.05.08-.06.15-.13.22-.19.48-.42.98-.8,1.49-1.15.51-.35,1.04-.7,1.58-1.06.22-.16.45-.3.67-.41s.45-.23.67-.36c.19-.1.4-.14.62-.14.19-.06.32.02.38.24.03.19-.02.34-.14.43-.19.13-.35.22-.48.29-.7.45-1.4.9-2.09,1.34-.69.45-1.35.93-1.99,1.44-.1.07-.18.14-.26.24-.08.1-.17.18-.26.24.06.19.13.34.19.43.19.29.37.59.53.91.1.19.18.39.26.6.08.21.15.41.22.6.19.9-.02,1.71-.62,2.45-.13.13-.25.26-.36.38s-.25.24-.41.34c-1.15.8-2.43,1.28-3.84,1.44h-.5c-.18,0-.34-.03-.5-.1-.64-.16-.93-.58-.86-1.25,0-.38.1-.75.29-1.1.16-.26.32-.5.48-.74.16-.24.34-.49.53-.74.35-.45.72-.88,1.1-1.3.38-.42.8-.83,1.25-1.25.06-.06.14-.14.24-.22.1-.08.16-.18.19-.31Zm.72.86s-.08.05-.14.05c-.03.03-.06.06-.1.07-.03.02-.06.04-.1.07-.51.48-1.01.97-1.49,1.46-.48.5-.93,1.03-1.34,1.61-.1.16-.19.3-.29.43-.1.13-.18.27-.24.43-.06.13-.13.35-.19.67-.06.19.03.32.29.38.22.03.48.03.77,0,1.15-.16,2.18-.61,3.07-1.34.26-.19.45-.4.58-.62.29-.32.38-.7.29-1.15-.03-.35-.16-.72-.38-1.1-.22-.38-.46-.7-.72-.96Z"/>
    </g>
  </g>
</svg>