<?xml version="1.0" encoding="UTF-8"?>
<svg id="Layer_2" data-name="Layer 2" xmlns="http://www.w3.org/2000/svg" viewBox="0 0 107.24 60.63">
  <defs>
    <style>
      .cls-1 {
        stroke-width: 0px;
      }
    </style>
  </defs>
  <g id="Layer_1-2" data-name="Layer 1">
    <g>
      <path class="cls-1" d="m26.46,22.32l.58,1.44c-2.85,1.41-6.11,3.41-9.79,6,.74,9.66,1.06,16.27.96,19.82-.16,7.3-1.49,10.96-3.98,10.99-.38.06-.82.07-1.32.02-.5-.05-1.26-.28-2.3-.7-1.04-.42-2.07-1.02-3.1-1.82s-2.18-2.06-3.46-3.79c-1.28-1.73-2.46-3.79-3.55-6.19-1.82-3.65,1.42-8.8,9.74-15.46l-.53-9.07c-.16-1.63-.3-2.7-.43-3.22.1-.03.23-.06.41-.1.18-.03.51-.06,1.01-.1.5-.03.98-.02,1.44.02.46.05.98.2,1.56.46.58.26,1.09.61,1.54,1.06s.84,1.1,1.18,1.94.55,1.83.65,2.95c0,.13,0,.31.02.55.02.24.02.42.02.55,1.6-1.06,3.18-2.03,4.75-2.93,1.57-.9,2.74-1.52,3.5-1.87l1.1-.58Zm-16.08,27.36c.13-4,.11-8.85-.05-14.54-5.95,5.12-8.26,8.99-6.91,11.62,1.31,2.46,2.72,4.13,4.22,4.99,1.47.86,2.35.42,2.64-1.34.06-.22.1-.46.1-.72Zm4.18-33.5c-.7.71-1.55,1.06-2.54,1.06s-1.84-.35-2.54-1.06c-.7-.7-1.06-1.55-1.06-2.54s.35-1.84,1.06-2.54c.7-.7,1.55-1.06,2.54-1.06s1.84.35,2.54,1.06c.7.7,1.06,1.55,1.06,2.54s-.35,1.84-1.06,2.54Z"/>
      <path class="cls-1" d="m48.49,22.95h1.58c-.13.45-.32,1.03-.58,1.75-.26.72-.83,2-1.73,3.84-.9,1.84-1.86,3.47-2.88,4.9-1.02,1.42-2.38,2.71-4.08,3.86-1.7,1.15-3.46,1.73-5.28,1.73-1.18,0-2.1-.42-2.76-1.27-.66-.85-1.05-1.86-1.18-3.05-.13-1.18-.14-2.64-.05-4.37-2.24,2.18-4.61,3.06-7.1,2.64-1.57-.29-2.58-1.07-3.02-2.35-.45-1.28-.34-2.66.31-4.13.66-1.47,1.67-2.64,3.05-3.5,2.27-1.41,4.85-1.87,7.73-1.39.1-1.47.06-2.54-.1-3.22.13-.03.29-.06.48-.1.19-.03.57-.06,1.13-.07.56-.02,1.09,0,1.58.07.5.06,1.04.22,1.63.48s1.1.6,1.51,1.03c.42.43.74,1.05.98,1.85s.31,1.74.22,2.83c-.48,6.66-.11,10,1.1,10.03.48.03,1.07-.35,1.78-1.15,1.28-1.44,2.39-3.03,3.34-4.78.94-1.74,1.58-3.13,1.9-4.15l.43-1.49Zm-22.18,4.7c-.06,1.63.62,2.21,2.06,1.73,1.15-.42,2.33-1.28,3.55-2.59.13-1.22.24-2.13.34-2.74-.51,0-1.03.04-1.56.12-.53.08-1.15.22-1.87.43-.72.21-1.31.58-1.78,1.1s-.71,1.18-.74,1.94Z"/>
      <path class="cls-1" d="m51.85,38.16c-.48.22-1.01.34-1.58.34-.1.03-.26.05-.48.05h-.05c-2.91-.03-4.1-7.01-3.55-20.93.13-2.85.37-6.46.72-10.85.32-3.14.64-5.04.96-5.71.38-.74.96-1.09,1.73-1.06,1.09,0,2.19.38,3.31,1.15.93.61,1.78,1.5,2.54,2.69.83,1.44,1.39,3.12,1.68,5.04.54,3.55.13,6.58-1.25,9.07-.58,1.06-1.28,2-2.11,2.83-.16,3.55-.21,6.69-.14,9.41.1,1.54.27,2.42.53,2.66.26.24.86.07,1.82-.5,1.31-.83,2.55-1.91,3.72-3.24,1.17-1.33,2.01-2.44,2.52-3.34l.77-1.34,1.34.53c-.1.29-.51,1-1.25,2.14-.74,1.14-1.66,2.44-2.76,3.91-1.1,1.47-2.44,2.9-4.01,4.3-1.57,1.39-3.06,2.34-4.46,2.86Zm2.02-19.63c1.09-1.5,1.76-3.22,2.02-5.14v-.29c0-.16,0-.33.02-.5.02-.18.02-.42,0-.72-.02-.3-.04-.61-.07-.91-.03-.3-.08-.63-.14-.98-.06-.35-.14-.7-.22-1.03s-.2-.67-.36-1.01c-.16-.34-.34-.65-.53-.94-.32,4.26-.56,8.1-.72,11.52Z"/>
      <path class="cls-1" d="m88.19,22.8l1.06-.1c.48.03.66.27.53.72,0,.03-.08.39-.24,1.08-.16.69-.33,1.39-.5,2.11s-.46,1.62-.84,2.71-.78,2.11-1.2,3.07-.95,1.95-1.61,2.98c-.66,1.02-1.35,1.9-2.09,2.62s-1.61,1.31-2.62,1.78c-1.01.46-2.07.7-3.19.7-3.07,0-4.58-2.69-4.51-8.06-1.63,2.53-3.71,3.73-6.24,3.6-1.44-.06-2.52-.65-3.24-1.75-.72-1.1-1.1-2.48-1.15-4.13-.05-1.65,0-3.29.17-4.92.16-1.63.34-3.15.55-4.56.21-1.41.26-2.27.17-2.59.19-.03.45-.07.77-.12.32-.05.89-.05,1.7,0,.82.05,1.51.19,2.09.43.58.24,1.07.7,1.49,1.37s.54,1.54.38,2.59c-.83,5.86-.88,9.09-.14,9.7.45.35,1.18,0,2.21-1.06.99-1.02,1.7-2.46,2.14-4.32s.62-3.46.55-4.8l-.1-2.02c.13-.03.29-.06.48-.1.19-.03.57-.06,1.13-.07.56-.02,1.09,0,1.58.07.5.06,1.05.22,1.66.48.61.26,1.11.6,1.51,1.03.4.43.73,1.05.98,1.85.26.8.34,1.75.24,2.83-.06.86-.18,2.06-.34,3.6-.35,3.81-.38,5.97-.1,6.48.35.54,1.12.13,2.3-1.25,1.06-1.25,1.95-2.87,2.69-4.87.74-2,1.2-3.69,1.39-5.06l.34-2.02Z"/>
      <path class="cls-1" d="m107.05,25.3l.19,1.15c-.19-.1-.46-.23-.82-.41-.35-.18-1.02-.44-1.99-.79-.98-.35-1.9-.6-2.76-.74-.86-.14-1.8-.15-2.81-.02s-1.83.48-2.47,1.06c.35.54.86,1.29,1.51,2.23.66.94,1.18,1.71,1.58,2.3.4.59.88,1.33,1.44,2.21.56.88.98,1.62,1.27,2.21.29.59.58,1.26.89,2.02.3.75.46,1.41.48,1.97.02.56-.03,1.13-.14,1.7-.11.58-.37,1.1-.77,1.58-.4.48-.92.91-1.56,1.3-2.27,1.09-4.19,1.46-5.76,1.1h-.05c-.1,0-.16-.02-.19-.05-.42-.06-.82-.18-1.2-.34-.45-.13-1.01-.4-1.68-.82-.74-.48-1.34-1.02-1.82-1.63-.61-.77-1.06-1.63-1.34-2.59,0-.06,0-.14-.02-.22-.02-.08-.02-.14-.02-.17l-.05-.1v-.1l-.05-.19-.05-.14v-.19c-.03-.1-.05-.22-.05-.38-.1-.48-.14-.99-.14-1.54,0-1.15.13-2.22.38-3.22.29-.99.7-2,1.25-3.02,0-.03.02-.05.05-.05l.05-.1c-.51-.7-1.04-1.47-1.58-2.3-.9-1.41-1.51-2.71-1.85-3.91-.34-1.2-.42-2.2-.24-3,.17-.8.48-1.52.91-2.16.43-.64.95-1.14,1.56-1.51.61-.37,1.18-.68,1.7-.94.53-.26.98-.42,1.37-.48l.58-.14c-.83,2.02.02,5.06,2.54,9.12.99-.54,2.07-.87,3.24-.98s2.22-.06,3.17.17c.94.22,1.82.5,2.64.82.82.32,1.45.62,1.9.91l.72.38Zm-14.78,14.5c.29.32.72.67,1.3,1.06l.29.14c1.09.38,1.76.16,2.02-.67.26-.86.22-1.8-.12-2.81-.34-1.01-.76-1.9-1.27-2.66-.51-.77-1.3-1.86-2.35-3.26-.16-.19-.27-.34-.34-.43-.26.54-.46,1.17-.62,1.87-.19.93-.27,1.81-.24,2.64.03.26.08.67.14,1.25.03.1.06.22.1.38.03.16.06.3.1.43.03.13.06.24.1.34.16.61.46,1.18.91,1.73Z"/>
    </g>
  </g>
</svg>