<?xml version="1.0" encoding="UTF-8"?>
<svg id="Layer_2" data-name="Layer 2" xmlns="http://www.w3.org/2000/svg" viewBox="0 0 242.42 34.17">
  <defs>
    <style>
      .cls-1 {
        fill: #42484c;
        stroke-width: 0px;
      }
    </style>
  </defs>
  <g id="Layer_1-2" data-name="Layer 1">
    <g>
      <path class="cls-1" d="m0,30.76h2c.33,0,.58-.12.76-.36s.27-.58.27-1.03V8.51h3.59v20.83c0,1.54-.37,2.72-1.12,3.57s-1.8,1.27-3.16,1.27H0v-3.41ZM3.01,1.2h3.66v3.59h-3.66V1.2Z"/>
      <path class="cls-1" d="m12.9,25.62c-1.11-.93-1.67-2.35-1.67-4.25s.51-3.16,1.53-4.06,2.56-1.35,4.62-1.35h5.19l.25,2.88h-5.41c-.94,0-1.64.21-2.1.62s-.69,1.05-.69,1.91c0,.93.31,1.61.92,2.06s1.55.67,2.8.67c1.37,0,2.39-.15,3.07-.44s1.01-.75,1.01-1.37l.37,2.57c-.32.49-.71.9-1.17,1.21s-1,.55-1.61.71-1.29.24-2.06.24c-2.25,0-3.93-.47-5.04-1.4Zm9.51-10.43c0-1.2-.32-2.12-.96-2.79s-1.54-.99-2.72-.99c-.73,0-1.44.11-2.14.33s-1.32.53-1.85.93l-2.62-1.79c.69-.83,1.6-1.48,2.73-1.94s2.39-.69,3.77-.69c1.51,0,2.81.27,3.88.8s1.9,1.31,2.46,2.32.84,2.24.84,3.67v11.72h-3.41v-11.57Z"/>
      <path class="cls-1" d="m34.86,22.04c0,.45.1.79.29,1.03s.47.36.82.36h1.69v3.41h-2.11c-1.36,0-2.41-.42-3.16-1.27s-1.12-2.03-1.12-3.57V1.2h3.59v20.85Z"/>
      <path class="cls-1" d="m45.11,19.6c0,1.28.33,2.26.98,2.96s1.57,1.05,2.75,1.05,2.08-.31,2.72-.93.97-1.51.97-2.65l.25,3.81c-.38.9-.98,1.66-1.83,2.27s-1.88.91-3.11.91c-2.02,0-3.57-.65-4.67-1.94s-1.64-3.12-1.64-5.48v-11.09h3.59v11.09Zm7.42-11.09h3.57v18.25h-3.57V8.51Z"/>
      <path class="cls-1" d="m64.96,26.7c-.94-.21-1.83-.53-2.65-.95s-1.58-.95-2.27-1.58l2.13-2.62c.98.75,1.96,1.31,2.94,1.69s1.93.56,2.88.56c1.42,0,2.48-.22,3.19-.66s1.06-1.1,1.06-1.98c0-.59-.19-1.03-.58-1.32s-.87-.49-1.44-.59-1.38-.19-2.43-.27c-.09,0-.19,0-.3,0s-.21-.01-.3-.03c-.05,0-.09,0-.14,0s-.09,0-.14,0c-1.18-.09-2.19-.27-3.01-.52s-1.5-.72-2.05-1.42-.82-1.68-.82-2.97.26-2.36.79-3.22,1.31-1.5,2.36-1.92,2.35-.64,3.92-.64c.95,0,1.85.09,2.72.26s1.68.44,2.47.78,1.54.78,2.27,1.31l-2.16,2.62c-.91-.59-1.81-1.03-2.7-1.32s-1.75-.44-2.59-.44c-1.22,0-2.13.21-2.74.62s-.91,1.04-.91,1.87c0,.49.17.86.52,1.11s.78.41,1.31.49,1.28.15,2.25.21c.07.01.14.02.22.02s.16,0,.24.02h.11s.07,0,.11.02c1.28.08,2.36.25,3.26.51s1.65.77,2.26,1.53.91,1.86.91,3.3c0,1.31-.28,2.4-.84,3.26s-1.41,1.51-2.54,1.94-2.55.65-4.26.65c-1.08,0-2.09-.11-3.03-.32Z"/>
      <path class="cls-1" d="m100.65,23.08l-2.67,2.65-3.88,1.3h-5.12l-3.88-1.3-2.58-2.55.42-.44,2.46,2.5,3.67,1.21h4.96l3.67-1.21,2.37-2.39v-3.59l-1.21-2.43-1.2-1.18-2.44-1.27-7.56-2.51-2.6-1.27-1.34-1.34-1.28-2.62v-2.71l2.65-2.65,3.88-1.3h5.12l3.88,1.3,2.6,2.55-.44.44-2.44-2.5-3.67-1.21h-4.96l-3.67,1.21-2.39,2.39v2.34l1.23,2.41,1.2,1.18,2.44,1.27,7.56,2.51,2.6,1.27,1.32,1.34,1.3,2.62v3.97Z"/>
      <path class="cls-1" d="m124.88,27.04h-16.66V0h16.66v.58h-16.1v12.02h9.81v.58h-9.81v13.27h16.1v.58Z"/>
      <path class="cls-1" d="m150.94,7.93l-1.3,2.62-1.37,1.34-3.88,1.3h-2l8.53,13.41-.51.3-8.7-13.71h-8.4v13.57h-.56V0h11.65l3.88,1.3,1.37,1.32,1.3,2.64v2.67Zm-.58-.16v-2.37l-1.21-2.41-1.16-1.2-3.67-1.21h-11.02v12.02h11.02l3.67-1.23,1.16-1.18,1.21-2.43Z"/>
      <path class="cls-1" d="m176.68.39l-10.02,26.37h-.6L156.02.39l.49-.21,9.84,25.79L176.19.18l.49.21Z"/>
      <path class="cls-1" d="m183.59,26.75h-.56V.28h.56v26.47Z"/>
      <path class="cls-1" d="m211.85,20.58l-1.27,2.57-2.58,2.58-2.64,1.3h-5.19l-2.62-1.3-2.6-2.58-1.25-2.6-1.3-3.85v-6.36l1.3-3.85,1.25-2.6,2.6-2.58,2.62-1.3h5.19l2.64,1.3,2.58,2.58,1.27,2.57-.51.28-1.25-2.48-2.46-2.46-2.41-1.21h-4.89l-2.43,1.21-2.44,2.46-1.27,2.44-1.21,3.71v6.22l1.21,3.71,1.27,2.44,2.44,2.46,2.43,1.21h4.89l2.41-1.21,2.46-2.46,1.25-2.48.51.28Z"/>
      <path class="cls-1" d="m242.42,27.04h-16.66V0h16.66v.58h-16.1v12.02h9.81v.58h-9.81v13.27h16.1v.58Z"/>
    </g>
  </g>
</svg>