<?xml version="1.0" encoding="UTF-8"?>
<svg id="Layer_2" data-name="Layer 2" xmlns="http://www.w3.org/2000/svg" viewBox="0 0 121.66 60.75">
  <defs>
    <style>
      .cls-1 {
        fill: #fff;
        stroke-width: 0px;
      }
    </style>
  </defs>
  <g id="Layer_1-2" data-name="Layer 1">
    <g>
      <path class="cls-1" d="m7.22,60.75h-.09c-.64,0-1.45-.38-2.41-1.14s-1.9-1.67-2.8-2.73-1.54-1.99-1.91-2.79c3.59-.05,6.1-1.02,7.52-2.91,1.58-2.11,2.37-5.34,2.37-9.68,0-2.59-.13-5.39-.4-8.39-.27-2.83-.4-5.67-.4-8.53,0-2.61.11-5.23.33-7.85l8.72-3.33c-.42,2.66-.63,5.52-.63,8.6,0,2.5.14,5.13.42,7.9.28,3.17.42,6.29.42,9.35,0,1.14-.04,3.02-.11,5.65s-.91,5.54-2.51,8.75-4.44,5.57-8.52,7.09ZM13.41,9.73c1.36-.05,2.52-.78,3.47-2.2.69-.97,1.03-1.98,1.03-3.02,0-.45-.14-1.18-.41-2.19s-1.79-1.78-4.54-2.31c-1.41.53-2.4,1.57-2.98,3.12-.34.91-.52,1.79-.52,2.65,0,.64.18,1.46.55,2.46s1.5,1.5,3.39,1.5Z"/>
      <path class="cls-1" d="m31.59,47.88c-.25,0-1.26-.09-3.04-.27s-3.59-1.68-5.45-4.51c-2.02-3.06-3.02-6.66-3.02-10.78,0-3.83.84-7.5,2.52-11.03s4.15-5.99,7.42-7.39c1.2-.52,2.5-.77,3.89-.77,2.41,0,5.08.77,8.02,2.32l-.07-3.54,8.27.14c-.62,7.33-.94,12.35-.94,15.07s.29,5.42.87,7.91,1.84,4.1,3.77,4.82l-3.4,7.29c-3.27,0-5.94-1.44-8.02-4.31-4.12,3.38-7.73,5.06-10.83,5.06Zm2.13-8.93c1.83,0,4.2-.84,7.12-2.53l.35-15.38c-1.72-1.17-3.34-1.76-4.88-1.76-1.17,0-2.62.57-4.36,1.7s-3.14,4.25-4.22,9.34l-.05.89c0,4.38,1.65,6.91,4.95,7.62.33.08.69.12,1.08.12Z"/>
      <path class="cls-1" d="m63.63,46.92h-.21c-2.78,0-4.9-.88-6.35-2.64s-2.3-4.45-2.55-8.07c-.02-1.11-.02-2.54-.02-4.29,0-6.27.15-16.66.45-31.19l8.44-.38c-.05,2.73-.25,10.73-.61,23.98,0,2.97.25,5.93.75,8.88s1.74,5.23,3.73,6.84l-3.61,6.87Z"/>
      <path class="cls-1" d="m94.85,48.54c-2.34-.94-4.53-2.78-6.56-5.53-4.64,2.64-8.24,3.96-10.8,3.96-1.67,0-3.46-.48-5.38-1.45s-3.11-3.32-3.57-7.05c-.3-2.36-.45-4.94-.45-7.73,0-1.69.05-3.46.15-5.32s.15-3.73.15-5.6c0-2.61-.09-5.23-.28-7.85l8.72-.21c0,3.22-.14,6.55-.42,10.01-.27,3.12-.4,6-.4,8.62,0,.77.03,2.13.08,4.09s.77,3.56,2.14,4.79c.53.44,1.21.66,2.04.66,1.39,0,3.2-.62,5.41-1.88l.21-7.95c0-5.56.35-11.66,1.05-18.28h8.37c-.42,8.02-.63,13.1-.63,15.26,0,1.91.09,4.51.28,7.8s1.44,5.67,3.75,7.12l-3.87,6.54Z"/>
      <path class="cls-1" d="m99.09,42.33l4.12-6.77c2.98,3.34,5.38,5.02,7.2,5.02.39,0,.76-.08,1.1-.23,1.89-.89,2.84-1.95,2.84-3.19,0-1.38-.98-2.75-2.93-4.12-1.69-1.2-3.43-2.28-5.23-3.23-4.38-2.34-6.56-5.41-6.56-9.19,0-.58.06-1.17.19-1.78.7-3.36,2.83-5.63,6.38-6.82,1.17-.22,2.28-.33,3.33-.33,5.81.06,9.38,2.64,10.69,7.73l-5.46,3c-.09-3.2-1.57-4.8-4.43-4.8-.89,0-1.56.45-2.02,1.36-.12.52-.19,1.01-.19,1.48,0,2.05,1.86,4.1,5.58,6.16,1.89,1.05,3.62,2.29,5.18,3.73,1.86,1.72,2.79,3.9,2.79,6.54,0,4.17-2.49,7.48-7.48,9.94-.45.22-1.62.48-3.52.77-3.95,0-7.81-1.75-11.58-5.25Z"/>
    </g>
  </g>
</svg>