<?xml version="1.0" encoding="UTF-8"?>
<svg id="Layer_2" data-name="Layer 2" xmlns="http://www.w3.org/2000/svg" viewBox="0 0 110.88 32.77">
  <defs>
    <style>
      .cls-1 {
        fill: #42484c;
        stroke-width: 0px;
      }
    </style>
  </defs>
  <g id="Layer_1-2" data-name="Layer 1">
    <g>
      <path class="cls-1" d="m0,30.46c.81-.4,1.38-.87,1.71-1.42s.49-1.3.49-2.26V8.35h3.27v18.16c0,1.71-.27,3.04-.81,4s-1.43,1.71-2.67,2.26l-1.99-2.3ZM1.99,3.57c0-.52.18-.95.54-1.3s.8-.53,1.32-.53.95.18,1.31.53.54.79.54,1.3-.18.95-.54,1.3-.79.53-1.31.53-.96-.18-1.32-.53-.54-.79-.54-1.3Z"/>
      <path class="cls-1" d="m17.79,23.26c-.82.57-1.6.99-2.33,1.24s-1.52.38-2.36.38c-1.45,0-2.59-.35-3.41-1.05s-1.23-1.66-1.23-2.87c0-1.15.45-2.16,1.34-3.02s2.23-1.6,4.03-2.2l3.85-1.28c.01-.09.02-.19.03-.28s0-.23,0-.4c0-.97-.24-1.67-.71-2.1s-1.26-.64-2.35-.64c-.9,0-1.83.19-2.79.57s-1.92.95-2.88,1.7v-3.2c.83-.68,1.76-1.19,2.79-1.54s2.13-.52,3.29-.52c2.09,0,3.6.46,4.55,1.38s1.42,2.41,1.42,4.46v6.87c0,.57.05.98.15,1.22s.27.36.5.36c.2,0,.41-.05.62-.16s.57-.35,1.06-.74v1.97c-.59.5-1.18.88-1.78,1.12s-1.22.36-1.86.36-1.09-.13-1.4-.39-.49-.67-.54-1.23Zm-.12-1.97v-4.76c-2.18.68-3.68,1.31-4.51,1.88s-1.24,1.24-1.24,2c0,.67.21,1.18.64,1.55s1.03.54,1.8.54c.57,0,1.14-.1,1.69-.31s1.09-.51,1.62-.91Z"/>
      <path class="cls-1" d="m25.38,24.59V0h3.23v24.59h-3.23Z"/>
      <path class="cls-1" d="m43.49,22.61c-.81.77-1.62,1.34-2.42,1.7s-1.67.54-2.59.54c-1.77,0-3.16-.51-4.18-1.53s-1.53-2.41-1.53-4.18v-10.78h3.27v9.95c0,1.31.28,2.28.83,2.91s1.42.94,2.59.94c.83,0,1.56-.16,2.19-.48s1.24-.86,1.84-1.61v-11.71h3.23v16.24h-3.23v-1.99Z"/>
      <path class="cls-1" d="m49.78,23.48v-3.46c.97.64,1.91,1.14,2.81,1.48s1.73.51,2.48.51c.83,0,1.48-.16,1.96-.47s.71-.74.71-1.27c0-.68-.88-1.46-2.65-2.34-.52-.26-.91-.46-1.2-.62-1.51-.77-2.55-1.52-3.11-2.24s-.84-1.6-.84-2.65c0-1.36.49-2.44,1.46-3.23s2.31-1.2,4.01-1.2c.91,0,1.79.11,2.64.33s1.67.55,2.48,1.01v3.16c-1-.55-1.91-.96-2.73-1.22s-1.61-.4-2.35-.4c-.68,0-1.21.12-1.57.35s-.55.57-.55,1.02c0,.82,1.13,1.79,3.39,2.9l.3.14c1.77.89,2.92,1.67,3.46,2.35s.81,1.53.81,2.56c0,1.43-.54,2.57-1.61,3.43s-2.49,1.28-4.26,1.28c-1.02,0-1.99-.12-2.91-.35s-1.82-.59-2.71-1.07Z"/>
      <path class="cls-1" d="m66.24,4.22v9.47h3.82l5.98-9.47h1.76l-6.41,10.19,6.48,10.19h-1.8l-6.01-9.43h-3.82v9.43h-1.69V4.22h1.69Z"/>
      <path class="cls-1" d="m81,20.88v-12.74c0-2.74,1.69-3.92,3.85-3.92,1.04.04,2.05.04,3.02.07l5.4.14v1.3h-8.06c-1.55,0-2.52.83-2.52,2.66v5.33l9.39.14v1.26l-9.39.11v5.33c0,2.12,1.12,2.59,2.66,2.59h7.92v1.3l-2.66.11c-1.58.07-3.89.11-5.47.14-2.23,0-4.14-.72-4.14-3.82Z"/>
      <path class="cls-1" d="m97.85,4.22l5.69,11.81,5.69-11.81h1.66l-6.55,13.46v6.91h-1.66v-6.91l-6.59-13.46h1.76Z"/>
    </g>
  </g>
</svg>