<?xml version="1.0" encoding="UTF-8"?>
<svg id="Layer_2" data-name="Layer 2" xmlns="http://www.w3.org/2000/svg" viewBox="0 0 143.2 32.98">
  <defs>
    <style>
      .cls-1 {
        fill: #42484c;
        stroke-width: 0px;
      }
    </style>
  </defs>
  <g id="Layer_1-2" data-name="Layer 1">
    <g>
      <path class="cls-1" d="m0,29.57h2c.33,0,.58-.12.76-.36s.27-.58.27-1.03V7.31h3.59v20.83c0,1.54-.37,2.72-1.12,3.57s-1.8,1.27-3.16,1.27H0v-3.41ZM3.01,0h3.66v3.59h-3.66V0Z"/>
      <path class="cls-1" d="m12.9,24.42c-1.11-.93-1.67-2.35-1.67-4.25s.51-3.16,1.53-4.06,2.56-1.35,4.62-1.35h5.19l.25,2.88h-5.41c-.94,0-1.64.21-2.1.62s-.69,1.05-.69,1.91c0,.93.31,1.61.92,2.06s1.55.67,2.8.67c1.37,0,2.39-.15,3.07-.44s1.01-.75,1.01-1.37l.37,2.57c-.32.49-.71.9-1.17,1.21s-1,.55-1.61.71-1.29.24-2.06.24c-2.25,0-3.93-.47-5.04-1.4Zm9.51-10.43c0-1.2-.32-2.12-.96-2.79s-1.54-.99-2.72-.99c-.73,0-1.44.11-2.14.33s-1.32.53-1.85.93l-2.62-1.79c.69-.83,1.6-1.48,2.73-1.94s2.39-.69,3.77-.69c1.51,0,2.81.27,3.88.8s1.9,1.31,2.46,2.32.84,2.24.84,3.67v11.72h-3.41v-11.57Z"/>
      <path class="cls-1" d="m34.86,20.85c0,.45.1.79.29,1.03s.47.36.82.36h1.69v3.41h-2.11c-1.36,0-2.41-.42-3.16-1.27s-1.12-2.03-1.12-3.57V0h3.59v20.85Z"/>
      <path class="cls-1" d="m45.11,18.4c0,1.28.33,2.26.98,2.96s1.57,1.05,2.75,1.05,2.08-.31,2.72-.93.97-1.51.97-2.65l.25,3.81c-.38.9-.98,1.66-1.83,2.27s-1.88.91-3.11.91c-2.02,0-3.57-.65-4.67-1.94s-1.64-3.12-1.64-5.48V7.31h3.59v11.09Zm7.42-11.09h3.57v18.25h-3.57V7.31Z"/>
      <path class="cls-1" d="m64.96,25.51c-.94-.21-1.83-.53-2.65-.95s-1.58-.95-2.27-1.58l2.13-2.62c.98.75,1.96,1.31,2.94,1.69s1.93.56,2.88.56c1.42,0,2.48-.22,3.19-.66s1.06-1.1,1.06-1.98c0-.59-.19-1.03-.58-1.32s-.87-.49-1.44-.59-1.38-.19-2.43-.27c-.09,0-.19,0-.3,0s-.21-.01-.3-.03c-.05,0-.09,0-.14,0s-.09,0-.14,0c-1.18-.09-2.19-.27-3.01-.52s-1.5-.72-2.05-1.42-.82-1.68-.82-2.97.26-2.36.79-3.22,1.31-1.5,2.36-1.92,2.35-.64,3.92-.64c.95,0,1.85.09,2.72.26s1.68.44,2.47.78,1.54.78,2.27,1.31l-2.16,2.62c-.91-.59-1.81-1.03-2.7-1.32s-1.75-.44-2.59-.44c-1.22,0-2.13.21-2.74.62s-.91,1.04-.91,1.87c0,.49.17.86.52,1.11s.78.41,1.31.49,1.28.15,2.25.21c.07.01.14.02.22.02s.16,0,.24.02h.11s.07,0,.11.02c1.28.08,2.36.25,3.26.51s1.65.77,2.26,1.53.91,1.86.91,3.3c0,1.31-.28,2.4-.84,3.26s-1.41,1.51-2.54,1.94-2.55.65-4.26.65c-1.08,0-2.09-.11-3.03-.32Z"/>
      <path class="cls-1" d="m85.77,13.35v3.03h-.03v10.11c0,.4-.15.74-.43,1.03-.29.29-.63.44-1.04.44s-.75-.15-1.04-.44c-.29-.29-.44-.63-.44-1.03V3.03c0-.4.15-.75.44-1.04.29-.29.63-.44,1.04-.44h.03c.4,0,.75.15,1.04.44.29.29.44.64.44,1.04v1.5h-.03v8.82h.03Zm13.83-8.1c.66,1.14.99,2.37.99,3.69v.03c0,1.16-.36,2.37-1.08,3.63-.72,1.26-1.58,2.19-2.58,2.79-1.14.66-2.37.99-3.69.99-.4,0-.75-.14-1.03-.44-.29-.29-.44-.63-.44-1.03v-.09c0-.4.14-.74.44-1.03.29-.29.63-.44,1.03-.44,1.24,0,2.28-.42,3.12-1.26.86-.86,1.29-1.91,1.29-3.15s-.43-2.26-1.29-3.12c-.86-.86-1.9-1.29-3.12-1.29-.4,0-.75-.15-1.03-.44-.29-.29-.44-.63-.44-1.04v-.03c0-.4.14-.75.44-1.04.29-.29.63-.44,1.03-.44,1.32,0,2.55.33,3.69.99.46.26.95.66,1.47,1.2s.92,1.04,1.2,1.5Z"/>
      <path class="cls-1" d="m109.67,2.82c.28-.7.8-1.05,1.56-1.05s1.28.35,1.56,1.05l8.97,22.62c.08.24.12.45.12.63,0,.46-.17.86-.51,1.2-.34.34-.74.51-1.2.51-.32,0-.63-.1-.93-.32-.3-.21-.51-.46-.63-.76l-2.01-5.16-1.38-3.48h.03l-3.12-8.07c-.28-.72-.58-1.08-.91-1.1-.33,0-.64.35-.92,1.06l-3.15,8.1-1.29,3.3-2.13,5.34c-.12.3-.33.55-.63.75-.3.2-.61.3-.93.3-.46,0-.86-.17-1.19-.5-.33-.33-.5-.73-.5-1.19,0-.16.04-.36.12-.6l9.06-22.65Z"/>
      <path class="cls-1" d="m133.92,15.9v10.26c0,.4-.15.74-.44,1.03s-.63.44-1.04.44-.74-.15-1.02-.44c-.28-.29-.42-.63-.42-1.03v-10.29c0-.36-.11-.67-.33-.93l-8.58-10.68c-.38-.48-.44-1-.18-1.55.26-.55.7-.82,1.32-.82.48,0,.86.18,1.14.54l6.96,8.7c.28.36.66.54,1.14.54s.86-.18,1.14-.54l6.93-8.7c.28-.36.66-.54,1.14-.54h.03c.62,0,1.06.27,1.32.82.26.55.2,1.07-.18,1.55l-8.64,10.74c-.2.24-.3.54-.3.9Z"/>
    </g>
  </g>
</svg>