<?xml version="1.0" encoding="UTF-8"?>
<svg id="Layer_2" data-name="Layer 2" xmlns="http://www.w3.org/2000/svg" viewBox="0 0 99.31 42.48">
  <defs>
    <style>
      .cls-1 {
        fill: #fff;
        stroke-width: 0px;
      }
    </style>
  </defs>
  <g id="Layer_1-2" data-name="Layer 1">
    <g>
      <path class="cls-1" d="m5.76,42.48c-2.05,0-3.97-.72-5.76-2.16l1.44-2.45c.96.67,2.03,1.01,3.22,1.01,2.27,0,3.41-1.41,3.41-4.22,0-.32-.74-7.55-2.21-21.7l10.27-1.54-3.07,24.82c-.51,4.16-2.94,6.24-7.3,6.24ZM7.37,7.61c-.88-.88-1.32-1.93-1.32-3.14s.44-2.26,1.32-3.14c.88-.88,1.93-1.32,3.14-1.32s2.26.44,3.14,1.32c.88.88,1.32,1.93,1.32,3.14s-.44,2.26-1.32,3.14c-.88.88-1.93,1.32-3.14,1.32s-2.26-.44-3.14-1.32Z"/>
      <path class="cls-1" d="m22.13,37.1c-.54,0-.94-.02-1.2-.05-1.09-.74-1.96-1.83-2.62-3.29-.66-1.46-.98-2.97-.98-4.54,0-2.05.78-3.54,2.33-4.46,1.55-.93,4.41-1.39,8.57-1.39,1.54,0,3.14.11,4.8.34l-.1-1.06c-.13-1.28-.74-2.3-1.82-3.05-1.09-.75-2.48-1.13-4.18-1.13s-3.39.53-5.09,1.58l-2.11-6.96c2.75-1.12,5.89-1.68,9.41-1.68s6.3.79,8.35,2.38,3.07,4.06,3.07,7.42c0,.77-.03,1.38-.1,1.82l-1.34,13.25-4.75.43-.72-6.96h-.38c-1.09,2.3-2.59,4.1-4.51,5.4-1.92,1.3-4.13,1.94-6.62,1.94Zm11.09-11.38l-2.54-.05c-2.11,0-3.84.11-5.18.34-.45.9-.67,1.7-.67,2.4s.1,1.38.29,2.02c.19.64.4,1.07.62,1.3,3.84-.61,6.34-2.61,7.49-6Z"/>
      <path class="cls-1" d="m45.46,36.72l-2.45-33.5,10.27-1.58-3.07,34.66-4.75.43Z"/>
      <path class="cls-1" d="m69.77,30.36c1.17-1.52,1.98-3.18,2.42-4.97.45-1.79.67-3.35.67-4.68s-.19-3.91-.58-7.75l10.27-1.58-3.07,24.91-4.75.43-.96-9.12h-.34c-2.37,6.34-6.14,9.5-11.33,9.5-.77,0-1.41-.13-1.92-.38-1.63-1.98-2.75-5.35-3.36-10.1-.61-4.75-.91-9.5-.91-14.23l9.6-.72c-.58,5.6-.86,9.79-.86,12.58s.24,5.78.72,8.98c1.76-.38,3.22-1.34,4.39-2.86Z"/>
      <path class="cls-1" d="m84.96,20.21c0-4.1,2.16-7.84,6.48-11.23l7.87,5.28c-3.55,2.27-5.33,4.66-5.33,7.15,0,1.31.73,3.02,2.18,5.14s2.18,3.76,2.18,4.94c0,4.19-2.88,7.42-8.64,9.7l-2.11-2.83c2.53-1.38,3.79-2.9,3.79-4.56,0-1.57-1.07-3.55-3.22-5.95-.8-.9-1.54-2.03-2.21-3.41-.67-1.38-1.01-2.78-1.01-4.22Z"/>
    </g>
  </g>
</svg>