<?xml version="1.0" encoding="UTF-8"?>
<svg id="Layer_2" data-name="Layer 2" xmlns="http://www.w3.org/2000/svg" viewBox="0 0 155.8 32.98">
  <defs>
    <style>
      .cls-1 {
        fill: #ef4056;
        stroke-width: 0px;
      }
    </style>
  </defs>
  <g id="Layer_1-2" data-name="Layer 1">
    <g>
      <path class="cls-1" d="m0,29.57h2c.33,0,.58-.12.76-.36s.27-.58.27-1.03V7.31h3.59v20.83c0,1.54-.37,2.72-1.12,3.57s-1.8,1.27-3.16,1.27H0v-3.41ZM3.01,0h3.66v3.59h-3.66V0Z"/>
      <path class="cls-1" d="m12.9,24.42c-1.11-.93-1.67-2.35-1.67-4.25s.51-3.16,1.53-4.06,2.56-1.35,4.62-1.35h5.19l.25,2.88h-5.41c-.94,0-1.64.21-2.1.62s-.69,1.05-.69,1.91c0,.93.31,1.61.92,2.06s1.55.67,2.8.67c1.37,0,2.39-.15,3.07-.44s1.01-.75,1.01-1.37l.37,2.57c-.32.49-.71.9-1.17,1.21s-1,.55-1.61.71-1.29.24-2.06.24c-2.25,0-3.93-.47-5.04-1.4Zm9.51-10.43c0-1.2-.32-2.12-.96-2.79s-1.54-.99-2.72-.99c-.73,0-1.44.11-2.14.33s-1.32.53-1.85.93l-2.62-1.79c.69-.83,1.6-1.48,2.73-1.94s2.39-.69,3.77-.69c1.51,0,2.81.27,3.88.8s1.9,1.31,2.46,2.32.84,2.24.84,3.67v11.72h-3.41v-11.57Z"/>
      <path class="cls-1" d="m34.86,20.85c0,.45.1.79.29,1.03s.47.36.82.36h1.69v3.41h-2.11c-1.36,0-2.41-.42-3.16-1.27s-1.12-2.03-1.12-3.57V0h3.59v20.85Z"/>
      <path class="cls-1" d="m45.11,18.4c0,1.28.33,2.26.98,2.96s1.57,1.05,2.75,1.05,2.08-.31,2.72-.93.97-1.51.97-2.65l.25,3.81c-.38.9-.98,1.66-1.83,2.27s-1.88.91-3.11.91c-2.02,0-3.57-.65-4.67-1.94s-1.64-3.12-1.64-5.48V7.31h3.59v11.09Zm7.42-11.09h3.57v18.25h-3.57V7.31Z"/>
      <path class="cls-1" d="m64.96,25.51c-.94-.21-1.83-.53-2.65-.95s-1.58-.95-2.27-1.58l2.13-2.62c.98.75,1.96,1.31,2.94,1.69s1.93.56,2.88.56c1.42,0,2.48-.22,3.19-.66s1.06-1.1,1.06-1.98c0-.59-.19-1.03-.58-1.32s-.87-.49-1.44-.59-1.38-.19-2.43-.27c-.09,0-.19,0-.3,0s-.21-.01-.3-.03c-.05,0-.09,0-.14,0s-.09,0-.14,0c-1.18-.09-2.19-.27-3.01-.52s-1.5-.72-2.05-1.42-.82-1.68-.82-2.97.26-2.36.79-3.22,1.31-1.5,2.36-1.92,2.35-.64,3.92-.64c.95,0,1.85.09,2.72.26s1.68.44,2.47.78,1.54.78,2.27,1.31l-2.16,2.62c-.91-.59-1.81-1.03-2.7-1.32s-1.75-.44-2.59-.44c-1.22,0-2.13.21-2.74.62s-.91,1.04-.91,1.87c0,.49.17.86.52,1.11s.78.41,1.31.49,1.28.15,2.25.21c.07.01.14.02.22.02s.16,0,.24.02h.11s.07,0,.11.02c1.28.08,2.36.25,3.26.51s1.65.77,2.26,1.53.91,1.86.91,3.3c0,1.31-.28,2.4-.84,3.26s-1.41,1.51-2.54,1.94-2.55.65-4.26.65c-1.08,0-2.09-.11-3.03-.32Z"/>
      <path class="cls-1" d="m89.31,14.15l-.14,1.58c-.07,0-.11-.05-.11-.14.02-.19.06-.84.11-1.94l-3.67.04c-.58,0-.92.02-1.04.07-.14,0-.36-.02-.65-.05-.29-.04-.49-.05-.61-.05h-.22c0,.1-.01.06-.04-.11v-2.7c-.02-.98-.04-1.76-.04-2.34,0-.02.04-.3.11-.83.02-.34.01-.61-.04-.83,0-.05-.14-.08-.43-.11-.43-.05-1.16-.07-2.2-.07-.94,0-1.66-.05-2.16-.14v.07h-.32v.07h-.07s-.02-.02-.07.09c-.05.11-.08.2-.11.27v1.48c0,.41-.01,1.79-.04,4.14-.03.38-.06,1.87-.11,4.46-.05,1.85-.07,3.37-.07,4.57v2.23c0,.65.02,1.04.07,1.19.05.14.16.24.32.29.29.05.65.07,1.08.07.29,0,.7,0,1.24-.02.54-.01.91-.02,1.1-.02.74,0,1.18-.04,1.3-.11.07,0,.17-.18.29-.54,0-.02-.06-.07-.18-.14.1,0,.13-.05.11-.14-.02-.07-.06-.13-.11-.18,0-.26.02-.67.07-1.21.05-.54.07-.94.07-1.21,0-.31-.01-.59-.04-.83.02,0-.01-.08-.11-.25.1,0,.17-.25.23-.76.06-.5.08-.84.05-1.01,0-.14-.06-.41-.18-.79-.02-.17-.06-.41-.11-.72-.1,0,.18.02.83.07.41.02.64,0,.68-.07.1,0,.2-.02.32-.07.12-.05.2-.07.25-.07.1,0,.2.02.32.07h.25l.22.04c.38.1,1.02.13,1.91.11.84,0,1.48.06,1.91.18,0-.46.02-1.04.07-1.76.05-1.01.07-1.61.07-1.8v-.07h-.14Zm0-.72l.07.58h-.07v-.58Zm1.58-6.98c.46.1.98.14,1.58.14h1.51c.07,0,.18-.02.32-.07.36-.05.61.01.76.18s.25.83.32,1.98c.07.89.1,1.63.07,2.23.02.65.04,1.64.04,2.99-.02.84-.1,2.05-.22,3.64-.14,1.63-.22,2.83-.22,3.6,0-.02.01,1.22.04,3.74h.07s.13-.06.25-.11c-.05.12-.12.28-.22.47-.07.02-.37.05-.9.07-.84,0-2.09.02-3.74.07-.36.02-.54.01-.54-.04-.24-.14-.36-.72-.36-1.73,0-.38.02-.91.05-1.58s.05-1.08.05-1.22c0-.02-.05-.73-.14-2.12,0-.14.04-.31.11-.49.07-.18.11-.32.11-.41.07-.05.11-.1.11-.14-.12.02-.29.07-.5.14,0-.94.11-2.32.32-4.14.22-1.78.31-3.14.29-4.1.02-.38,0-.94-.07-1.66-.1-.29-.23-.43-.4-.43v-.61c.38-.1.82-.23,1.3-.4Z"/>
      <path class="cls-1" d="m115.92,11.09c-.02-.58-.02-1.45,0-2.63l.14-1.66h-.07s-.11-.07-.32-.07l-3.82-.04c-.29,0-.74-.02-1.37-.07-.62-.05-1.09-.07-1.4-.07h-10.87c-.1.22-.17.52-.21.9,0,.24.01.59.04,1.04.02.53.04.86.04,1.01,0,.5-.01,1.5-.04,2.99-.02,1.2-.04,2.2-.04,2.99,0,1.2-.01,1.93-.04,2.2-.07,0-.07.11,0,.32.02.17.06.4.11.68-.19,0-.19.22,0,.65-.14,0-.19.29-.14.86.02.48.07.82.14,1.01-.07,0-.12.05-.14.14v1.04c-.07,1.13-.08,1.86-.04,2.2-.07,0-.07.02,0,.07,0,.02.06.11.18.25l.5-.25v-.04c.17,0,.24.1.22.29h.11c0,.07.16.11.47.11.31-.02.52-.06.61-.11,0-.07.06-.01.18.18l.58-.07c.1,0,.26.01.5.04.24.02.42.04.54.04.26,0,.46-.06.58-.18h.18c-.05.07-.08.16-.11.25.26,0,.66-.02,1.19-.07.53-.05.92-.07,1.19-.07.72.05,1.81.1,3.28.14.58,0,1.33-.01,2.27-.04,1.22-.02,1.98-.04,2.27-.04h1.37c.7,0,1.11-.06,1.24-.18.13-.12.2-.67.2-1.66,0,1.99,0,1.33,0-1.98h.07s.02-.01.07.11v.07h.18v-.18s-.06-.08-.04-.25l.04-3.28c.02-.6.05-1.5.07-2.7,0,.12,0-.7,0-2.45l.14-.83c-.02-.14-.04-.37-.04-.68Zm-16.27,13.64v.11h.07v.07s.07-.11.07-.18h-.14Zm.76,0c.12.12.23.18.32.18-.12-.07-.23-.13-.32-.18Zm.4,0c.12.12.24.18.36.18-.12-.07-.24-.13-.36-.18Zm1.8.18v.18c.1-.05.14-.11.14-.18h-.14Zm7.81-7.92c-.03.31-.04.76-.04,1.33.05.31.04.76-.04,1.33-.02.05-.16.09-.41.13-.25.04-.41.09-.49.16-.62-.07-1.87-.11-3.74-.11-.24.05-.58.02-1.01-.07-.05,0-.1.1-.14.29-.26,0-.43-.31-.5-.94v-1.3c-.07,0-.11.26-.11.79h-.18v-.11c-.07,0-.11-.08-.11-.25,0-.46.1-.82.29-1.08-.14,0-.24-.26-.29-.79-.02-.43-.02-.76,0-.97.07-.22.17-.53.29-.94v-.76h-.07v-.07c-.07,0-.11.17-.11.5-.1,0-.14-.3-.14-.9v-1.15c.12,0,.23.06.32.18h.11v-.5c0-.14.37-.24,1.12-.29.84-.05,1.31-.1,1.4-.14.86.05,1.51.17,1.94.36,0-.05-.02-.11-.07-.18.17.02.44.06.83.11.17-.05.43-.07.79-.07l.4.29-.14.68c-.02.72-.04,1.09-.04,1.12,0,.1.05,1.21.14,3.35Zm5.15-6.73v-.18h.18c0,.07-.06.13-.18.18Z"/>
      <path class="cls-1" d="m123.44,12.27h.25c-.05.72.02,1.19.22,1.42s.65.34,1.37.34c.1-.05.34-.05.72,0,.5.05.78.07.83.07v-.18c-.41-.02-.61-.05-.61-.07.02-.07.38-.07,1.08,0,1.85.1,3.24.14,4.18.14.29.02.79.08,1.51.18.65.07,1.16.11,1.55.11h.32c.1-.07.26-.12.5-.14.26-.02.4.02.4.14.02.07.04.53.04,1.37-.02,1.1-.05,1.94-.07,2.52l-.07.76.04,6.37h-17.17v-3.38c0-.79.01-1.2.04-1.22.07-.22.18-.32.32-.32-.12.19-.18.3-.18.32h.68c.1-.05.42-.07.97-.07.17-.02.3-.05.4-.07l-.25-.07c-.1,0-.14-.04-.14-.11h.14v-.07l1.84.11c.34-.05.6-.08.79-.11.29.02.5.05.65.07.14-.02.26-.05.36-.07.02.1.06.14.11.14-.02,0,.2-.04.68-.11l1.58-.04c.19-.1.56-.12,1.12-.07.38.02.78.06,1.19.11.72-.05,1.26-.08,1.62-.11.07,0,.18.02.32.07.14.05.25.07.32.07v-.07c.22-.24.28-.8.18-1.69,0-.05.02-.07.07-.07-.31-.29-2.39-.37-6.23-.25-1.1-.07-1.93-.12-2.48-.14h-2.12c-.72-.02-1.26-.05-1.62-.07-.05-.02-.13-.07-.25-.13s-.2-.09-.25-.09c.05-.24.06-.55.04-.94-.02-.65-.04-.96-.04-.94,0,.12.02-1.01.07-3.38.05-.94.08-1.64.11-2.12.02-.38.04-1.12.04-2.2.12-.79.19-1.24.21-1.33.58-.07,1.03-.11,1.37-.11l3.63-.04h.11s-.16-.04-.47-.04l-3.6-.04c.17-.05.3-.07.4-.07.19,0,.6-.01,1.22-.04.5-.02.92-.04,1.26-.04.7.05,1.21.07,1.55.07.1-.02.37-.02.83,0,.65.02,1.14-.02,1.48-.14.26.1.62.14,1.08.14l1.15-.07c1.78.05,2.57.07,2.38.07h4.39c.14-.02.26-.05.36-.07-.17.14-.25.26-.25.36.17.12.25.67.25,1.66,0,.41-.01.95-.04,1.64-.02.68-.04,1.07-.04,1.17,0,.29-.04.43-.11.43-.22.1-.58.14-1.08.14-.31,0-.71-.02-1.19-.07-.65-.05-.98-.07-1.01-.07-2.86-.05-4.99-.06-6.41-.04-.38-.02-.76-.05-1.12-.07-.46-.02-.82.02-1.1.14-.28.12-.41.25-.41.4Zm-4.25,7.85h.18v-.07h-.86c.19.1.42.12.68.07Zm-.5,5.51h.11v.07h.07c0-.12-.12-.23-.36-.32.1.14.16.23.18.25Zm.9-5.58h-.14c0,.07.02.08.07.04.05-.05.07-.08.07-.11v.07Zm.83-.07c0,.1.08.06.25-.11h-.18s-.05.08-.07.11Zm3.92-7.7h.76v-.29c-.17,0-.55-.02-1.15-.07.1.22.23.34.4.36Zm-.07,1.44c.5.1.91.14,1.22.14v-.14h-.07v-.11h-1.15v.11Zm1.33-6.91c-.12.1-.37.08-.76-.04l.76.04Zm1.04,18.65v-.07h-1.73c.74.07,1.32.1,1.73.07Zm-1.22-11.92v-.11s.05-.02,0-.07c0-.05-.05-.07-.14-.07.05.1.1.18.14.25Zm.58-.25h-.25c.1.02.18.02.25,0Zm.25-.68c0-.07-.11-.13-.32-.18.12.07.23.13.32.18Zm.25-5.76s-.08-.05-.18-.07c.07.02.13.05.18.07Zm.9,5.69v-.11h-.83c.34.07.61.11.83.11Zm.47,1.62s-.13.07-.25.07c-.26,0-.48-.1-.65-.29l.9.22Zm1.01,11.3v-.07h-.58l.58.07Zm-.29-18.68c-.1-.02-.17-.02-.22,0h.22Zm1.44,18.68v-.07h-1.08c.48.05.84.07,1.08.07Zm-.11-18.65c-.12.05-.25.04-.4-.04.22.1.35.11.4.04Zm.43,12.74s.05.07.14.07v-.07h.11s-.04-.07-.11-.07c0-.14-.19-.24-.58-.29.1.12.24.24.43.36Zm5.15-5.18c-.07,0-.18-.05-.32-.14.12.05.23.1.32.14Zm.25-1.08h-.25c.1.02.18.02.25,0Zm.5-6.01c-.07,0-.05.02.07.07,0-.05-.02-.11-.07-.18v.11Z"/>
      <path class="cls-1" d="m137.73,6.73l.07.86h-.07c-.02-.41-.02-.7,0-.86Zm17.78.18c-.14-.14-.43-.22-.86-.22.38,0,.06.01-.97.04-.91.05-2.28.1-4.1.14-1.06-.07-1.71-.06-1.95.04-.6,0-1.51-.03-2.74-.09s-2.15-.09-2.77-.09c-.82,0-1.28.02-1.4.07-.46,0-1.17-.02-2.12-.07-.07.05-.16.11-.25.18-.07,0-.11.14-.11.43l.04,4.46h.07c.02-.07.06-.18.11-.32v-.22h.25c0,.34.48.53,1.44.58-.31-.02.35-.04,1.98-.04,0,.12-.21.18-.65.18s-.66.05-.68.14c.02,0,.2.01.54.04l1.48-.04s.16-.04.4-.11c.14-.02.26-.04.36-.04.1.07.23.17.4.29h.11s.04.05.11,0c.07-.05.14-.08.22-.11v.11s.07.02.07.07-.08.28-.25.68c.05.46.07.72.07.79-.05.26-.05.64,0,1.12.05.48.06.84.04,1.08-.02.79-.06,1.99-.11,3.6-.05.6-.1,1.51-.14,2.74l.32-.22c0,.24.02.64.07,1.19.05.55.07.96.07,1.22,0,.29-.01.54-.04.76v.18c-.07,0-.22-.06-.43-.18v-.07c-.12,0-.1.07.05.22s2.03.22,5.63.22c-.05-.22-.07-.54-.07-.97.02-1.44.05-3.64.07-6.59-.05-.43-.07-1.09-.07-1.98s-.04-2.17-.11-3.85h.18c0,.1.06.14.18.14.26.05.6.06,1.01.04.34-.02.68-.05,1.03-.07.35-.02.89-.04,1.64-.04.7-.05,1.12-.02,1.26.07.05.05.12.14.22.29v.07l.54.07s-.12-.11-.36-.25h-.11s.04-.07.11-.07v-.25c.07,0,.19.02.36.07h.07c0-.1.02-.53.05-1.31.04-.78.05-1.42.05-1.93,0-1.27-.1-2-.29-2.2Zm-17.06-.54h1.48v.11h-1.48v-.11Zm1.22,6.16c.05.17.01.25-.11.25.05-.1.08-.18.11-.25Zm2.95,0h.43v.07h-.07v.11c-.12-.07-.24-.13-.36-.18Zm1.51,11.2c.05.12.07.38.07.79.02.41,0,.61-.07.61v.11h-.07c-.05-.26-.07-.53-.07-.79,0-.29.05-.53.14-.72Zm-.07-1.22c.1.14.14.5.14,1.08h-.14v-1.08Zm4.61-6.91c.07.05.17.13.29.25-.1,0-.19-.08-.29-.25Zm1.44-2.56c.1.31.14.78.14,1.4h-.07v-.14c-.1-.24-.12-.66-.07-1.26Zm.5-5.26c-.07,0-.1-.08-.07-.25,0,.05.02.11.07.18v.07Zm3.06,4.93h.68v.07c-.14-.02-.37-.05-.68-.07Zm.36.68c.29,0,.43.04.43.11-.02,0-.17-.04-.43-.11Z"/>
    </g>
  </g>
</svg>