<?xml version="1.0" encoding="UTF-8"?>
<svg id="Layer_2" data-name="Layer 2" xmlns="http://www.w3.org/2000/svg" viewBox="0 0 241.22 25.77">
  <defs>
    <style>
      .cls-1 {
        fill: #42484c;
        stroke-width: 0px;
      }
    </style>
  </defs>
  <g id="Layer_1-2" data-name="Layer 1">
    <g>
      <path class="cls-1" d="m0,18.98l5.22-1.3c.32,1.01.86,1.78,1.62,2.33s1.69.82,2.79.82c1.43,0,2.57-.45,3.43-1.34.84-.9,1.27-2.13,1.27-3.67l.02-15.54h5.41v15.21c0,3.29-.91,5.83-2.74,7.61-1.85,1.78-4.31,2.67-7.38,2.67-2.48,0-4.56-.58-6.23-1.75s-2.8-2.84-3.4-5.04Z"/>
      <path class="cls-1" d="m46.05,25.49h-5.55l-1.37-4.36h-10.35l-1.35,4.36h-5.54L29.81.28h8.3l7.95,25.21Zm-12.09-20.81l-3.83,12.15h7.65l-3.81-12.15Z"/>
      <path class="cls-1" d="m65.3,25.49h-15.89V.28h5.4l-.02,20.9h10.51v4.31Z"/>
      <path class="cls-1" d="m83.11,15.82l.02-15.54h5.4v15.21c0,3.29-.91,5.83-2.74,7.61-1.84,1.78-4.29,2.67-7.37,2.67s-5.54-.9-7.37-2.69c-1.84-1.77-2.76-4.3-2.76-7.59V.28h5.4v15.54c0,1.58.43,2.81,1.28,3.67.86.89,2,1.34,3.45,1.34s2.57-.45,3.43-1.34c.84-.9,1.27-2.13,1.27-3.67Z"/>
      <path class="cls-1" d="m111.64,6.79l-5.4.42c-.26-.96-.72-1.71-1.38-2.23s-1.48-.79-2.45-.79c-1.18,0-2.12.27-2.79.82s-1.02,1.29-1.02,2.24c.05.55.2,1,.46,1.34s.69.64,1.28.9c.47.22.83.37,1.07.44.38.13.79.26,1.25.4.77.23,1.6.49,2.48.77.91.32,1.62.57,2.11.77,1.24.49,2.33,1.12,3.25,1.9.66.55,1.13,1.18,1.42,1.88s.46,1.58.49,2.62c-.02,2.41-.92,4.27-2.69,5.58s-4.14,1.95-7.1,1.92c-2.85,0-5.17-.63-6.98-1.88-1.8-1.24-2.81-3.05-3.02-5.41l5.38-.42c.2,1.07.71,1.9,1.54,2.49s1.85.89,3.07.89c1.31,0,2.36-.26,3.14-.79s1.18-1.28,1.21-2.25c-.02-.67-.23-1.23-.62-1.69s-.99-.87-1.8-1.25c-.53-.26-1.03-.47-1.51-.63-.26-.09-.83-.28-1.72-.54-.73-.21-1.35-.4-1.86-.58-.67-.22-1.2-.41-1.58-.56-.82-.3-1.66-.76-2.51-1.35-.38-.26-.68-.53-.91-.81s-.45-.64-.68-1.09c-.36-.69-.54-1.64-.54-2.85,0-1.51.4-2.81,1.2-3.88s1.91-1.88,3.31-2.39c1.34-.5,2.91-.76,4.71-.76,2.57,0,4.68.58,6.35,1.74,1.64,1.16,2.6,2.84,2.87,5.04Z"/>
      <path class="cls-1" d="m134.79,6.79l-5.4.42c-.26-.96-.72-1.71-1.38-2.23s-1.48-.79-2.45-.79c-1.18,0-2.12.27-2.79.82s-1.02,1.29-1.02,2.24c.05.55.2,1,.46,1.34s.69.64,1.28.9c.47.22.83.37,1.07.44.38.13.79.26,1.25.4.77.23,1.6.49,2.48.77.91.32,1.62.57,2.11.77,1.24.49,2.33,1.12,3.25,1.9.66.55,1.13,1.18,1.42,1.88s.46,1.58.49,2.62c-.02,2.41-.92,4.27-2.69,5.58s-4.14,1.95-7.1,1.92c-2.85,0-5.17-.63-6.98-1.88-1.8-1.24-2.81-3.05-3.02-5.41l5.38-.42c.2,1.07.71,1.9,1.54,2.49s1.85.89,3.07.89c1.31,0,2.36-.26,3.14-.79s1.18-1.28,1.21-2.25c-.02-.67-.23-1.23-.62-1.69s-.99-.87-1.8-1.25c-.53-.26-1.03-.47-1.51-.63-.26-.09-.83-.28-1.72-.54-.73-.21-1.35-.4-1.86-.58-.67-.22-1.2-.41-1.58-.56-.82-.3-1.66-.76-2.51-1.35-.38-.26-.68-.53-.91-.81s-.45-.64-.68-1.09c-.36-.69-.54-1.64-.54-2.85,0-1.51.4-2.81,1.2-3.88s1.91-1.88,3.31-2.39c1.34-.5,2.91-.76,4.71-.76,2.57,0,4.68.58,6.35,1.74,1.64,1.16,2.6,2.84,2.87,5.04Z"/>
      <path class="cls-1" d="m154.62,12.41l14.98-12.41v25.49h-5.4v-14.26l-9.58,8.37-9.58-8.37v14.26h-5.4V0l14.98,12.41Z"/>
      <path class="cls-1" d="m197.14,25.49h-5.55l-1.37-4.36h-10.35l-1.35,4.36h-5.54L180.9.28h8.3l7.95,25.21Zm-12.09-20.81l-3.83,12.15h7.65l-3.81-12.15Z"/>
      <path class="cls-1" d="m220.48,9.23c0,1.93-.47,3.61-1.4,5.04s-2.26,2.47-3.98,3.14l4.99,8.09h-5.43l-4.48-7.33h-4.29v7.33h-5.4V.28h10.18c3.07,0,5.47.83,7.21,2.48,1.73,1.66,2.6,3.82,2.6,6.47Zm-14.61-4.64v9.26h4.24c1.45,0,2.64-.45,3.57-1.34.94-.88,1.41-1.97,1.41-3.29s-.47-2.4-1.41-3.3c-.93-.89-2.12-1.34-3.57-1.34h-4.24Z"/>
      <path class="cls-1" d="m222.82.28h18.4v4.31h-6.5v20.9h-5.4V4.59h-6.5V.28Z"/>
    </g>
  </g>
</svg>