<?xml version="1.0" encoding="UTF-8"?>
<svg id="Layer_2" data-name="Layer 2" xmlns="http://www.w3.org/2000/svg" viewBox="0 0 91.8 36.26">
  <defs>
    <style>
      .cls-1 {
        stroke-width: 0px;
      }
    </style>
  </defs>
  <g id="Layer_1-2" data-name="Layer 1">
    <g>
      <path class="cls-1" d="m13.56,32.22c-.19.38-.38.67-.72.91-.05.05-.1.14-.14.19-.05.14-.14.19-.29.24-.1.05-.24.14-.34.19-.24.1-.43.24-.43.53,0,.1-.1.19-.14.24-.38.19-.72.38-1.06.58-.19.1-.43.1-.72.19l-.05.05c-.1.29-.38.38-.67.43-.14,0-.24,0-.38.05-.24.1-.48.1-.77,0-.05,0-.1-.05-.14,0-.34.05-.67.05-1.06-.1-.1,0-.29.05-.38.14-.1.05-.1.14-.14.24-.19,0-.38-.05-.58-.05-.14,0-.34.1-.53.19-.05-.05-.14-.1-.24-.1s-.19-.05-.29,0c-.29.19-.58.05-.82-.1-.14-.1-.29-.14-.43-.14-.62-.05-1.2-.29-1.68-.77h.1c.34.1.62.19.91.29.29.1.62.1.91.1.14,0,.29,0,.48.1.24.1.48.05.72-.05.05-.1,0-.14-.1-.14-.05,0-.14-.05-.19-.05.05-.05.05-.1.1-.14.1-.05.19-.1.29-.14l-.05-.05c-.19.1-.38.05-.58-.05-.24-.14-.53-.29-.86-.34-.34-.05-.62-.19-.91-.34-.43-.19-.72-.53-1.1-.72-.14-.1-.19-.19-.34-.29-.19-.24-.43-.48-.67-.67-.14-.14-.19-.29-.24-.43-.05-.29,0-.48.1-.77.14-.29.14-.67.24-1.01.1-.05.19-.14.34-.24.1.19.24.38.38.62.14.05.34.14.58.29.1-.05.19-.1.34-.14.14.05.34.14.43.29.14.19.34.24.53.29.53.14,1.1.19,1.63.24.34,0,.62-.1.91-.19.34-.1.62-.24.91-.34.53-.19.91-.53,1.25-.91.1-.1.19-.14.29-.24.05-.05.1-.05.14-.1.34-.43.77-.82.91-1.39.05-.19.1-.38.19-.53.14-.24.29-.43.19-.72,0-.05.1-.14.1-.19.43-.72.72-1.44.91-2.21.05-.14.1-.24.14-.38.19-.58.38-1.1.58-1.68-.05-.34.14-.58.24-.86.05-.29.19-.62.24-.91.05-.1.1-.19.1-.34.14-.62.29-1.2.53-1.82.1-.24.14-.48.14-.77s.1-.62.19-.96c.1-.43.19-.91.34-1.39,0-.1.05-.19.1-.29.05-.05.1-.14.1-.19-.05-.34.1-.62.14-.96,0-.29.14-.58.24-.91.05-.29.14-.62.24-.91.05-.34.14-.62.24-.91.1-.38.19-.72.29-1.1.1-.48-.14-.82-.62-.91-.24,0-.48-.05-.72-.14-.19-.1-.38-.1-.62-.05h-1.15c.24-.19.48-.05.62-.14.19-.05.38,0,.53-.14-.1-.19-.29-.34-.48-.38-.43-.05-.86-.29-1.3-.48-.05-.1-.1-.19-.1-.34-.05-.1-.05-.24-.1-.38q-.1-.29.14-.48c.19-.1.34-.14.58-.1.29.1.62,0,.91-.05.43-.05.86-.14,1.25-.29,1.01-.24,1.97-.62,2.93-.96.14-.05.19-.1.24-.24.24.05.48-.05.77-.1.82-.24,1.68-.48,2.54-.72.53-.14,1.06-.24,1.58-.29h.53c.43.05.67.24.77.62.05.1.1.19.14.29.34.19.62.38.91.62,0,.29-.29.43-.53.53-.24.14-.48.19-.72.34-.1.05-.19.1-.24.19-.14.19-.29.29-.48.34-.05,0-.05.05-.1.1,0,.05,0,.14.05.29-.29.05-.48.19-.67.38,0,.05-.1.1-.14.1-.38.05-.67.34-1.01.43,0,.29-.05.53.05.72.1.34.1.62.05.91-.05.43-.1.91-.24,1.39-.14.48-.19.96-.29,1.44-.05.19-.05.34.05.53.05.05.05.1.05.14-.14.48-.19,1.01-.38,1.44-.05.1-.05.24.05.34.1.1.1.24.05.34-.1.29-.24.58-.24.86,0,.05-.05.1-.1.14-.19.14-.19.38-.19.62,0,.1,0,.19-.1.29-.05.14,0,.29-.05.53-.1.1-.14.29-.14.53s-.05.48-.29.62c-.24.19-.24.29-.1.53,0,.05.05.1.05.14.1.19.1.43-.1.58-.14.1-.24.24-.29.43v.05c-.1.19-.24.38-.24.58-.05.19.05.38.05.53-.14.24-.24.48-.38.72.1,0,.19.05.29.05,0,.19-.1.34-.24.38-.14.1-.24.24-.29.43-.1.24-.19.48-.43.62-.1.1-.14.24-.19.38.1.05.19.1.29.05.1,0,.24-.1.38-.14-.05.1-.05.24-.05.34-.05,0-.1,0-.14.05-.24,0-.34.14-.19.29.14.19.1.43,0,.62-.14.24-.29.53-.43.82,0,0,.05.1.1.19,0,.1-.29.14-.19.38,0,0-.05.05-.1.1q-.14.14,0,.38c-.24.29-.48.62-.77.91-.14.19-.29.34-.34.58-.05.34-.24.62-.43.91-.05-.05-.14-.05-.19-.1-.19.05-.14.24-.24.38-.05.1-.14.19-.24.34.29.24.53-.1.82.05-.1.19-.24.34-.38.48-.19.19-.34.43-.38.67-.05,0-.05.05-.1.05Zm2.3-8.54s0-.1-.05-.14l-.05.05v.1h.1Z"/>
      <path class="cls-1" d="m40.63,17.15c-.1.1-.19.19-.29.24-.1.05-.19.14-.29.19-.05.05-.14.05-.19.1-.05,0-.1.05-.14.1-.05.05-.05.19-.19.1h-.05c-.1.1-.24.14-.38.19-.19,0-.34.1-.48.14-.1.05-.19.1-.29.1-.1.05-.14.05-.24.1-.14.05-.29.1-.43.14-.05,0-.1.05-.14.05-.1.05-.19.1-.24.14h-.1c-.14,0-.29.05-.43.14-.1,0-.19.05-.29.1-.05.05-.14.05-.24.1s-.19.1-.34.14c-.14.1-.34.14-.53.19-.05,0-.1.05-.14.1-.19.05-.34.05-.48.1-.1.05-.19.05-.29.1h-.19c-.1,0-.14.1-.14.19v.24c-.05.14-.05.34-.1.53,0,.1-.05.19-.05.29-.05.1-.1.24-.1.34-.05.19-.1.34-.14.53,0,.05-.05.05-.05.1-.05.29-.14.62-.24.91l-.14.43c-.05.1-.05.24-.05.38v.05c-.1.1-.14.19-.14.34l-.05.05c-.05.14-.1.29-.14.43,0,.05-.05.14-.1.14-.05.1-.05.24-.1.34-.05.14-.1.29-.1.43-.05.14-.05.29-.1.43,0,.1.05.24-.05.38-.05.05,0,.1,0,.19v.1c-.05.14-.1.14-.24.14.05-.05.05-.1.05-.14.05-.05,0-.1,0-.14s0-.1.05-.1c0-.05,0-.1-.05-.14h-.05s-.05.05-.1.1c0,.1,0,.19-.05.29,0,.05.05.05,0,.1v.14s-.05.1-.1.14v.05h-.05v-.05c.05-.24.1-.53.14-.77v-.19c0-.19.05-.43.05-.62,0-.1.05-.24.1-.38,0-.05-.05-.14-.1-.24t-.05.1c-.05.1,0,.19-.05.29,0,.05-.1.1-.14.14t-.05.1s-.05.14-.05.24c-.05.05-.05.1-.05.14,0,.1,0,.19-.05.29,0,.05,0,.1-.1.1h-.05s-.1.1-.14.14l-.05.05c-.1,0-.19.19-.14.29,0,.05.05.05.1.05h.1s-.1.14-.14.05c0,0-.1,0-.1.05-.05.05-.05.14,0,.19v.1s0,.14.1.1c0,.05.05.1,0,.1,0,.05-.05.05-.05.05-.05,0-.1-.1-.14,0v.05s.05.1.05.1c.1,0,.14.05.1.14-.1-.05-.1,0-.14.05,0,.1,0,.14-.05.24,0,.1.05.14.19.19-.05,0-.1,0-.14.05v.1s0,.05-.05.05c-.05.05-.05.1-.05.19v.34c.1.1,0,.19-.05.34v.38c0,.19-.05.34-.05.48,0,.05-.05.14-.05.14-.05.1-.05.19-.05.29v.53c0,.29,0,.62-.1.91-.05.29-.05.53-.1.77-.05.1-.05.14-.05.24,0,.14,0,.29-.05.38-.05.1-.05.24-.1.34,0,.05-.05.1-.05.1-.14-.05-.14-.14-.14-.29v-.34l-.05-.05c-.1,0-.1-.1-.1-.14.05-.24.05-.43.05-.67,0-.05-.05-.1-.05-.14l-.05-.05v-1.06s-.05.05-.05.05v.24s0,0-.05.05c-.05.05-.05.19-.1.29,0,.1.05.14.05.24v.1s0,.14-.05.19v.14s-.05.14,0,.24c0,.1-.05.14-.05.24v.05c.05.14,0,.24,0,.34,0,.05-.05.05-.05.1-.05,0-.05-.05-.05-.05,0-.19-.05-.34.05-.53,0-.1-.05-.19-.05-.34.05-.14,0-.24.05-.38,0-.14-.05-.24-.05-.34v-.19s-.05.05-.05.05c-.05.1-.05.14-.05.19v.1c-.05-.1-.1-.19-.05-.29.05-.05,0-.1,0-.14v-.24l-.05-.05s0,.05-.05.05c-.05.05-.1.14-.1.19.05.05,0,.05,0,.05-.1.05,0,.14,0,.24,0,.05.05.1.05.19,0,.05,0,.14-.05.19-.05.14-.05.29,0,.43l-.05.05c0-.1-.05-.24-.05-.38v-1.06c-.1-.1-.05-.19,0-.29v-.43s-.05-.1-.05-.14,0-.1.05-.14c.05-.05,0-.14,0-.19-.05-.05-.05-.14-.14-.1-.05.05-.1-.05-.05-.05,0-.1,0-.14-.05-.19v-.14s-.1,0-.1.19c-.05-.05-.1-.05-.1-.05,0-.14-.05-.24-.05-.38.05-.14,0-.29.05-.38,0-.1,0-.14.05-.24v-.1s-.05-.14-.05-.24v-.38s.05-.05.05-.1c.1,0,.1-.05.1-.1s-.05-.05-.1-.05-.1,0-.1-.05c-.05-.14-.05-.24-.1-.38v-.58c0-.1.05-.19.05-.29v-1.34c.05-.14.05-.29.1-.38v-.1c0-.14-.05-.29,0-.43v-.48c0-.14-.05-.24-.05-.38s.05-.29.05-.43v-.38s-.05,0,0-.05c0-.05-.05-.1-.1-.1-.14.05-.24.05-.34.05-.1.05-.19.05-.29.05-.14,0-.29.05-.38.1-.14.05-.29.05-.38.05h-.05c-.14.14-.29.1-.38.14-.1.05-.24.05-.34.1-.1,0-.19.05-.34.1h-.14c-.1.05-.24.1-.38.14-.19.05-.29.24-.38.38-.14.19-.24.38-.34.58-.14.14-.24.38-.34.58-.05.1-.05.19-.14.29,0,.05-.05.1-.1.14-.1.1-.19.24-.29.34-.05.1-.14.14-.19.19-.05.1-.14.14-.14.24-.05.1-.14.19-.19.24-.1.14-.19.24-.29.34-.1.14-.24.34-.34.48-.05,0-.1.05-.14.1-.1.1-.19.19-.29.24-.19.14-.34.24-.48.38-.05.05-.1.1-.19.14-.05.1-.14.19-.24.29-.1.05-.19.14-.24.19-.19.19-.38.38-.58.53-.1.1-.19.24-.29.34-.05,0-.05.05-.05.05-.24.05-.34.29-.48.43-.14.14-.29.29-.43.38-.14.19-.34.29-.53.43-.05.05-.1.1-.14.14-.14.1-.24.14-.38.19-.1.05-.24.14-.34.19-.14.05-.29.05-.38.1-.14.1-.29.05-.48.1-.05,0-.1,0-.14-.05-.14,0-.29-.05-.48-.05-.14,0-.24-.05-.38-.14h-.14c-.1-.1-.19-.19-.29-.29-.24-.24-.24-.48-.34-.72,0-.14-.05-.24-.1-.34,0-.1-.05-.14-.1-.24v-.24c-.05-.29,0-.62.05-.91.05-.24.14-.43.19-.67.05-.14.1-.34.14-.48.05-.14.14-.24.19-.34,0-.05.05-.14.1-.19,0-.05.1-.05.1-.14.05-.05.1-.14.1-.19.05-.14.14-.24.24-.34s.19-.24.29-.38c0-.05.05-.05.05-.05.05-.05.05-.14-.05-.14,0-.05-.05-.05-.1-.05-.14,0-.29-.05-.43-.05-.14-.05-.29-.05-.38-.1-.05,0-.1-.05-.14-.05-.19-.1-.38-.14-.53-.29,0-.05-.05-.1-.1-.14-.05,0-.05-.05-.05-.05-.05-.05-.05-.1-.05-.14s-.05-.14-.05-.19v-.1c.05-.19-.05-.34-.05-.48-.05-.1,0-.24,0-.34.05-.24.19-.38.34-.53.05-.05.1-.1.14-.14,0-.05.05-.1.1-.1.05-.05.1-.1.1-.14.1-.1.19-.19.29-.29.05-.05.14-.1.24-.14.14-.05.24-.14.34-.19.14-.1.29-.19.43-.24.14-.1.29-.14.43-.24.1-.05.19-.1.29-.14.05-.05.14-.05.24-.1.14,0,.24-.05.34-.1.14-.05.24-.05.38-.1.05,0,.14-.05.19-.05s.14-.05.19-.05c.14-.05.29-.14.43-.14s.24-.05.38-.1l.05-.05c.14.05.19-.05.34-.1h.1c.14,0,.19-.1.24-.19.05-.05.1-.1.14-.19.1-.1.14-.24.24-.38.1-.1.19-.24.29-.34.1-.14.19-.29.29-.43s.19-.24.29-.38c.1-.19.24-.38.38-.62.14-.19.24-.38.38-.62.19-.34.34-.67.53-1.01.1-.1.14-.24.24-.34.14-.19.24-.38.34-.58.1-.19.24-.38.34-.58.14-.29.34-.53.48-.77.05-.1.1-.19.19-.29.14-.29.34-.58.53-.82.05-.14.14-.24.19-.34.24-.29.43-.62.67-.96.05-.14.19-.24.29-.38v-.05c.14-.19.24-.38.38-.58.1-.14.19-.29.34-.43.05-.1.14-.24.19-.34.14-.19.24-.38.38-.58.05-.05.1-.1.14-.19.05-.1.14-.19.19-.29.1-.14.19-.29.29-.43.05-.1.14-.24.24-.38.05-.1.14-.19.24-.29.1-.14.1-.29.1-.48-.05-.14,0-.29,0-.43s.05-.29.05-.48l.14-.43s.05-.14.05-.19c.05-.14.1-.24.19-.38.05-.05.14-.14.19-.19t.05-.05c.05-.19.14-.29.29-.38.1-.1.24-.19.38-.19.1,0,.24-.1.34-.1.19-.05.38-.19.62-.19h.67c.1,0,.24,0,.34.1.1.1.24.14.34.24.05.05.1.05.19.1h.1c0,.14.14.19.19.24.14.14.24.24.34.38,0,.05.05.1.1.14.05.1.05.24.14.34.1.14.14.34.24.53.05.05.05.14.1.24,0,.05.05.14.05.19.05.24.1.48.14.67.05.1.1.19.1.29.05.05.05.1.05.19s.05.14.1.24c0,.1.05.19.05.29s.05.14.1.24c.05.1.1.19.1.29-.05.1.05.19.05.29.05.14.1.24.1.38.05.24.1.48.14.67v.34c0,.19-.05.34-.05.53v.43c.05.24.14.43.14.67v.86c0,.19-.05.38-.05.62v.14c0,.1-.05.24,0,.38,0,.29-.05.58-.05.82,0,.19-.05.38-.05.58,0,.1-.05.24-.05.38-.05.05-.05.14-.05.19-.05.19-.05.38-.05.53-.05.1-.05.19-.05.29s-.05.24-.05.34v.19c0,.14,0,.24-.05.38v.1c.05.14.1.14.19.1s.19-.05.29-.1c.19-.05.34-.14.53-.19.1-.05.24-.05.34-.1.14-.05.24-.1.34-.1.24-.1.43-.14.62-.19.1-.05.19-.05.29-.1,0,0,.05-.05.1-.05.14,0,.29-.05.48-.05.05,0,.14-.05.19-.05h.38s.05,0,.05.05c.05,0,0,0,0,.05,0,.14.05.14.19.14.05.05.1.05.14.05s.1.05.14.05h.58s.05.05.1.05c.19-.05.34.05.53.05t.1.05h.67Zm-11.76,1.39v-.38c-.05-.24-.05-.43-.05-.67-.05-.1-.05-.19-.05-.29,0-.24-.05-.48-.1-.77v-.82c0-.1-.05-.14-.05-.24v-.1h-.05s-.05.1-.1.14c-.05.24-.14.43-.24.67-.05.1-.1.19-.1.29-.05.05,0,.1-.05.14,0,.1-.05.14-.1.24,0,.05,0,.1-.05.14-.05.1-.1.24-.14.34-.05.14-.1.29-.14.43-.05.1-.05.19-.1.29v.14c-.05.19-.14.34-.19.53,0,0-.05.05-.05.1-.05.05-.05.1-.05.14.05,0,.1.05.14,0h.24s.14-.05.24-.05c.14-.05.29-.1.43-.1.14-.05.24-.05.38-.05.1,0,.14-.05.14-.14Zm.24,9.75c-.1.1-.19.14-.14.29,0,.1,0,.19-.05.24,0,.1,0,.19.05.29.1-.1,0-.19.05-.29.1,0,.1-.05.1-.14s-.05-.19,0-.34v-.05Zm0,1.92s-.1,0-.14,0v-.38c0,.14.05.19.14.29,0,.05.05.1,0,.1Zm0-.43s.05.05.05.1h-.14v-.05s.1,0,.1-.05Zm.19-.34s-.1-.05-.1-.05c0-.1.05-.14.05-.24,0-.05,0-.14-.05-.19v.14c-.05.1-.05.24-.1.34,0,.05.05.05.05.1.05-.05.1-.1.14-.1Zm0-1.1h-.1s.05.05.05.1h.05v-.1Zm.14,2.26s-.05,0-.05.05c-.05.05-.1.14-.05.24h.05c0-.1.05-.19.05-.29Zm-.05-.29v.14s.05-.05.05-.05v-.19s-.1.05-.05.1Zm.05-.48s.05.05.05.05c.05-.05.05-.1.05-.14v-.19c-.14,0-.1.1-.14.14,0,.05.05.1.05.14Zm.14.72s-.1-.05-.14-.1c0,.1.05.19.05.29h.05c0-.1.05-.14.05-.19Zm-.05,1.49s.05.1.05.14h-.1v-.14h.05Zm.19-4.08s0-.1-.1-.1c-.05,0-.05.05-.1.14.05,0,.05.05.1.05s.1-.05.1-.1Zm.77.1s-.05-.1-.14-.1q-.05.14.1.24s.05-.1.05-.14Zm.86-2.21h-.1s.05.14.05.19h.05v-.19Zm.19-.58v.1s-.05.05-.05.05l-.05-.05v-.05s-.05.05-.1.05t-.05.1v.19s.05.14.1.14c.05-.05.05-.1.1-.1,0-.05.05-.1.05-.1.14.05.1-.1.14-.14,0-.1-.05-.19-.14-.19Zm-.05,1.92c.05.1,0,.14-.05.19-.05-.1-.05-.14.05-.19Zm.19-2.11l-.05-.05s-.05,0-.1.05l.1.1s.05-.05.05-.1Zm-.05,1.2s0,.1-.05.1-.05-.05-.05-.14c.05.05.1.05.1.05Zm.38-.72c-.05.1-.05.19-.1.29,0,.05,0,.1-.05.1-.05-.19-.05-.38.1-.53.1.05.05.1.05.14Z"/>
      <path class="cls-1" d="m54.12,16.67c0,.24-.05.43-.24.62-.19.19-.48.38-.72.53-.19.05-.24.1-.34.19-.05.1-.19.29-.34.34-.24.14-.48.34-.58.53-.19.05-.38.1-.43.1-.19.29-.38.43-.53.67-.14.19-.34.48-.43.67,0,.24.05.38.1.58h.29c.1.19.1.29,0,.34-.29.14-.43.48-.67.58-.14.05-.19.1-.24.24-.1.43-.58.58-.67,1.06,0,0,0,.05-.1.05-.19.14-.24.38-.34.58-.14.24-.34.43-.67.34,0,0-.05,0-.1.05-.05.1-.14.34-.24.48-.14.19-.29.34-.53.24-.53.53-1.01,1.01-1.49,1.49-.29.24-.62.53-.96.82-.1.1-.19.14-.24.19-.14.1-.24.19-.38.19-.05.1-.1.1-.14.14-.48.34-1.34.86-1.97,1.01-.05.05-.14.05-.19.1-.14.1-.38.1-.53.1-.19,0-.34,0-.38-.19-.19.05-.43.05-.62.1-.19.05-.38.05-.53.24-.14.14-.34.19-.53.19h-.96c-.24-.14-.48-.19-.67-.38-.29-.14-.34-.38-.14-.62.05-.05.1-.1.14-.19q.05.1.1.14c.1-.05.1-.19.05-.24-.14-.19-.24-.43-.48-.58-.38-.19-.53-.58-.53-.96-.05-.43.05-.86.29-1.3.05-.05.1-.1.24-.19-.05.29-.1.53-.14.77.1-.05.1-.1.14-.19.05-.05.1-.14.1-.19.34-1.01.72-1.97,1.01-2.93.19-.62.34-1.2.62-1.87.1-.67.38-1.25.53-1.92.05-.1.05-.14.1-.24.05-.24.14-.43.24-.67.05-.19.1-.34.14-.58,0,0,.05-.05.05-.1-.05,0-.05.05-.1.05l-.05-.05s.05-.1.05-.14t.1.1s.05-.1.05-.1c0-.14,0-.19.05-.24.24-.48.29-1.01.38-1.54.1-.38.29-.82.34-1.2.1-.38.14-.67.19-1.01,0-.1-.05-.14-.05-.29-.1.1-.19.14-.24.14.14-1.34,1.2-5.57,1.49-6.91.14-.82.24-1.58.43-2.4.1-.53.19-1.15.29-1.68.1-.19.19-.24.29-.43.29,0,.48-.05.77-.05.1.14.29.24.53.24.1,0,.19,0,.24.05.19.14.38.19.62.19.29.05.48.29.67.43.14.24.34.38.43.58.1.1.14.19.29.29.14.14.24.34.29.53.19.05.1-.1.19-.1h.1c.1.1.14.19.19.38,0,.19,0,.43.19.53-.14.24.19.43.14.67-.05.05,0,.14,0,.14.19.24.14.53.1.82,0,.29.05.58.05.82-.05.43-.05.91-.14,1.34-.05.34-.86,3.6-.91,3.94,0,.14,0,.24-.05.29-.14.34-.14.72-.24,1.01-.05.29-.1.58-.19.86-.05.05-.05.14,0,.29,0,.1,0,.19-.14.24-.05.05-.14.19-.24.24-.05.1-.1,0-.14-.05-.1.19-.05.34,0,.53.24,0,.19-.34.38-.43.05.14.05.24.1.43,0,0,0,.05.05.05-.1.1-.19.19-.38.24-.14.19-.29.29-.29.53,0,.14-.1.24-.14.34,0,0,.05,0,.05.05.19-.14.24-.43.38-.53.1.05.05.1.05.14-.1.29-.19.58-.19.82s-.1.38-.34.43c-.14.05-.24.14-.24.34,0,.29-.24.53-.38.82.24-.14.48-.24.67-.34-.05.1-.14.24-.19.38-.19,0-.34,0-.48-.05l-.05.05v.34c.1.1.19.14.24.19,0,.14.05.38,0,.48-.05.19-.05.48-.38.53,0-.05-.05-.14-.1-.29.1,0,.19-.05.29-.1-.05-.1-.1-.24-.19-.38-.14,0-.05.14-.1.19-.1.19-.19.43-.29.58-.19.34-.29.62-.1,1.01-.29.24-.48.48-.58.77-.05.05-.05.1-.1.1-.34.14-.38.38-.19.67.05,0,.1-.05.14-.05.1-.05.14-.14.19-.19.24-.19.53-.19.77-.43.14-.14.43-.29.67-.34.05,0,.14-.05.19-.1.38-.29.72-.53,1.1-.86.1,0,.14-.1.24-.1.24-.1.48-.34.67-.48.1-.14.29-.24.43-.38.14-.14.38-.34.58-.48.1-.1.24-.19.38-.24.19-.1.38-.24.53-.38.58-.48,1.3-.82,1.92-1.15.82-.34,1.68-.62,2.5-.96.05-.05.1,0,.14,0Zm-15.94,11.42v.05-.05Zm1.78.24c-.14-.14-.29-.14-.43-.14-.29.05-.62.05-.91.1-.1.14-.19.34-.19.53.24.1.38.05.62,0,.29-.1.62-.19.91-.48Zm-.67-9.55c-.05-.1-.14-.24-.19-.29v-.1c0-.43.19-.82.29-1.2,0-.05.1-.05.1-.1.14.1.05.29.05.38,0,.05.1.1.14.14,0,.38-.1.77-.38,1.15Zm.19-3.98v-.1s0,.05.05.05t-.05.05Zm.19,2.21s-.05-.1-.05-.1c.05-.19.1-.29.14-.43,0-.05.05-.1.05-.19-.05-.34.14-.72.29-1.1.05-.1.05-.14.05-.24s-.05-.14,0-.19c0-.1.05-.14.14-.14.14,0,.19.1.19.14-.05.19-.05.34-.1.43,0,.1-.1.14-.1.29.29.29.29.34.1.58-.1-.05-.1-.14-.14-.24,0,0-.05,0-.05.1-.1.19-.19.38-.29.62,0,.05,0,.14-.1.29,0,.1-.05.14-.14.19Zm.58-.77l.05.05v.19s-.05.05-.05.05c-.05,0-.05-.05-.05-.05,0-.05.05-.1.05-.24Zm.43-2.16s-.05.05-.1.14c.05-.58.29-1.01.34-1.49,0,.1.05.24,0,.38-.05.29-.14.62-.24.96Zm4.27,6.62s.05,0,.05,0c0,.05-.05.05-.05.05h-.05s0-.05.05-.05Zm.91-2.35s-.05-.1-.05-.1c.05,0,.05.05.05.1Z"/>
      <path class="cls-1" d="m74.8,6.59c.1.29.14.38,0,.53-.29.34-.38.82-.67,1.25.1.43.29.86-.1,1.2-.1,0-.19,0-.29-.05-.05.14-.14.24-.14.38s-.05.29-.1.48c0,.1,0,.29.05.34.29.29.19.58.05.86-.05.1-.1.24-.1.34.05.38-.14.72-.24,1.01-.19.48-.38.96-.43,1.49,0,.14-.05.24-.14.38-.14.19-.19.38-.14.58.1.29,0,.53-.14.72-.1.14-.14.29-.19.48-.05.29-.14.53-.19.82-.05.1-.1.24.05.34.05,0,.05.1.05.19-.05.48-.1.91-.14,1.39-.05.29-.05.62.05.91.05.1,0,.24,0,.34-.05.05-.14.14-.19.24.24.38.1.77-.05,1.15,0,.05-.1.14-.14.19-.19.05-.29.24-.38.43-.1.24-.24.43-.38.67,0,.1-.05.19-.05.24s0,.05.05.05c0,0,.05.05.1,0,.05-.1.14-.19.19-.34l.1.1c-.24.53-.29,1.15-.77,1.54-.19-.1-.24-.14-.14-.24.05-.1.1-.14.14-.24v-.14c-.58.34-.72.72-.62,1.25.05.19.05.38.1.58-.1.14-.24.29-.34.43-.1.24-.29.19-.43.34-.19.1-.19.34-.38.43-.14.05-.24-.05-.24-.24v-.1c-.1.24-.24.43-.24.62-.05.24-.19.38-.38.43-.14.05-.24.14-.34.24-.29.29-.62.53-1.01.67-.24.05-.53.14-.72.34-.1.1-.34.14-.53.19-.38.14-.72.29-1.15.29-.24,0-.53.1-.77.19-.19.05-.38.05-.58,0-.24-.05-.48.19-.72.24-.05,0-.14-.05-.19-.1-.1-.05-.19-.1-.29,0-.24.1-.48.14-.72.14-.14.05-.24.05-.34.1-.53.29-1.1.34-1.63.53-.1.05-.24.05-.38.05,0,0-.05-.1-.14-.14.24-.1.43-.05.62-.14.19-.05.38-.05.58-.1.19-.05.38-.14.53-.24,0-.19-.1-.19-.14-.19-.67-.14-1.3-.43-1.87-.77-.14-.1-.29-.14-.43-.19-.34-.1-.67-.14-1.01-.24-.14,0-.24-.05-.34-.14-.38-.24-.77-.48-1.1-.77s-.67-.58-.86-.96c-.19-.29-.34-.58-.53-.86-.05-.05-.1-.14-.14-.19-.14,0-.14.14-.1.19.05.29.14.58.19.86.14.53.38.96.62,1.39.05.1.05.19.1.24-.14,0-.19-.14-.29-.19-.43-.72-.77-1.49-.86-2.3-.05-.53-.05-1.06-.19-1.54-.05-.19,0-.38,0-.58-.05-.53-.14-1.1-.19-1.63-.05-.24-.1-.43-.05-.67,0-.29.05-.53-.1-.77.1-.34,0-.62.05-.96.05-.38.05-.77.05-1.15,0-.53.19-.96.38-1.44.1-.24.24-.48.34-.72.05-.1.1-.19.14-.34.24-1.01.77-1.97,1.2-2.93.1-.24.24-.48.29-.77.14-.53.48-1.01.67-1.49.14-.24.34-.48.48-.72.14-.29.29-.53.43-.82.14-.24.24-.48.43-.67.19-.29.29-.62.48-.96.1-.14.19-.29.29-.43.19-.24.34-.53.43-.82.19-.53.34-1.01.77-1.39,0-.05.05-.1.05-.14.14-.53.58-.86.86-1.3.05-.1.1-.14.14-.24.34-.1.67-.05.96.14.14.1.29.19.43.29.38.24.72.48,1.1.72.24.14.43.29.53.58,0,.24.24.38.48.53.1.1.24.14.34.24.38.29.43.58.24,1.01-.05.1-.1.19-.14.24,0,.05-.05.05-.05.1-.24.48-.43,1.01-.67,1.49v.14c0,.43-.24.82-.38,1.2v.05c-.34.19-.34.58-.48.86,0,.1-.05.14-.1.24-.19.34-.38.72-.62,1.06-.05.1-.1.24-.14.38-.05.1-.1.19-.14.29-.24.24-.29.53-.38.82-.05.14-.1.29-.14.43-.1.38-.38.67-.53,1.06-.05.1-.1.14-.1.24-.1.38-.29.77-.43,1.1l-.05.05c-.29.58-.53,1.15-.67,1.73,0,.1-.05.19-.1.24-.34.38-.48.91-.72,1.34-.05.1,0,.24,0,.34,0,.14-.05.29-.14.38-.19.1-.19.29-.14.43.05.19.14.38-.05.58v.1c.1.34,0,.62,0,.96-.05.38,0,.82.05,1.2,0,.24.05.43.05.67,0,.19.05.34.1.53q.14.38-.14.77c.14.43.53.72.72,1.06.29.1.53,0,.77-.1.43-.14.86-.34,1.3-.58.82-.34,1.49-.91,2.02-1.63.34-.38.62-.77.91-1.15.24-.38.43-.72.62-1.1.24-.48.43-.96.62-1.49.14-.24.19-.48.29-.72v-.1c.29-.77.58-1.49.86-2.26,0-.05.05-.1.05-.1.48-.53.58-1.2.77-1.78.05-.19,0-.43.05-.58.05-.19.19-.34.29-.48.1-.19.24-.34.29-.53.1-.29.19-.62.24-.96.05-.1,0-.24.1-.34.14-.29.19-.58.29-.91.05-.34.19-.62.29-.96.1-.24.05-.48.29-.67,0,0,0-.1.05-.14,0-.43.19-.82.34-1.25.1-.38.34-.72.34-1.15,0-.19.14-.43.24-.62.29-.58.53-1.1.67-1.73.05-.24.19-.43.29-.62.05-.05.1-.14.14-.24.14-.43.38-.82.58-1.2.05-.1.1-.19.14-.29q.24-.34.24-.72s.05-.1.05-.1c.38-.19.58-.58.82-.86.19-.24.38-.48.62-.72.14-.19.34-.34.53-.48.14-.1.29-.19.38-.38s.29-.29.53-.24v.24c0,.19,0,.38-.05.67-.24.29-.29.72-.48,1.1,0,.1.05.19.05.24.19.1.29.05.38-.05.14-.1.19-.19.34-.29,0-.05.05-.05.1-.05.19.34-.14.62-.1.91.1.1.24.19.38.29-.1.48-.14.91-.24,1.34.1.05.14.1.24.14-.14.48-.14,1.01-.53,1.34-.29-.14-.05-.48-.29-.67-.14.29-.14.53-.14.82-.14.1-.24.24-.34.34-.1.1-.14.24-.24.34-.14.19-.19.38-.14.62.05.05.14.14.24.19.05.05.14-.05.19-.1.14-.05.19-.19.24-.34s.1-.34.19-.53Zm-15.89,20.11s.05,0,.05-.05l-.05.05Zm12.1-4.27s0-.1-.05-.14c-.05.05-.14.1-.14.14s0,.1.05.1c.05.05.14,0,.14-.1Zm.34-2.98c-.19.05-.19.19-.24.34,0,0,.05.1.1.1,0,0,.1,0,.1-.05.1-.1.14-.24.05-.38Zm.34,1.58s-.05-.1-.1-.1c-.1-.05-.1.05-.1.1s.05.1.1.1.05-.05.1-.1Zm1.01-2.16c.1-.19.19-.34.19-.43-.05-.29.14-.53-.05-.82-.1.1-.24.19-.29.24l.14,1.01Zm.38-1.49s.05-.05.1-.1h-.14s.05.05.05.1Zm.82-11.52c.14-.19.14-.34,0-.53-.48.14-.43.48-.38.96.14-.19.29-.34.38-.43Zm.19,5.28s-.1.14-.14.24h.05c.05-.1.05-.19.1-.24Zm.14-.38c-.14.05-.14.14-.14.29.05-.1.1-.19.14-.29Zm-.14.38v-.1.1Zm.91-4.75s.05-.05.14-.1c-.1,0-.14-.05-.14-.05-.05,0-.05.05-.1.1.05.05.1.1.1.05Z"/>
      <path class="cls-1" d="m91.8,9.37c-.05.29-.38.29-.48.53,0,0-.05.05-.1,0-.24-.05-.48,0-.58.24-.14-.05-.14-.14-.14-.19-.05-.14-.05-.29-.19-.38-.1,0-.14,0-.29.05-.05-.19-.1-.34-.14-.48-.05-.24-.19-.38-.43-.48-.67-.24-1.39-.38-2.11-.24s-1.44.05-2.21.05h-.19s-.1.05-.19.14c.19.05.34.1.53.14.29.05.58.1.86.14.19,0,.34.05.48.1.05,0,.1.05.14.14-.29.1-.53.05-.77,0-.29-.1-.53-.1-.77.05-.19.1-.34.1-.48.05-.43,0-.82-.14-1.25-.1-.24,0-.43.1-.62.24-.14.1-.29.14-.43.24-.14.05-.24.14-.34.34-.05.19-.24.34-.43.38-.05.05-.1.05-.14.1-.1.14-.1.29.14.38,0,.05,0,.1-.05.14,0,.05-.05.05-.1.05s-.05-.05-.1-.05c-.1-.1-.14-.1-.24,0s-.19.24-.24.34c.05.19.19.1.29.14v.1c-.24.34-.29.72-.43,1.1-.05.24.05.38.24.43.67.29,1.34.67,2.06.91.53.14,1.1.34,1.58.58.14.1.29.14.34.29-.29-.05-.58-.14-.86-.19-.24-.1-.48-.24-.77-.34-.1-.05-.19-.1-.34-.05-.14.05-.29,0-.38-.1q-.19-.14-.43-.14c.1.19.34.19.38.48-.29-.14-.48-.29-.67-.48-.1-.14-.19-.29-.43-.24-.05,0-.14-.1-.24-.14-.14-.1-.24-.19-.48-.24v.24c0,.1.05.19.1.29,0,.43.29.67.62.86.58.24,1.15.53,1.73.82.48.19.96.43,1.44.67.34.14.67.29,1.01.43.05,0,.1,0,.19.05,0-.14-.05-.19-.05-.29.14.05.34.14.48.19.14.38.34.67.72.82.14.29.38.43.62.58.1.05.1.19.1.29v.29c.14-.1.24-.14.34-.19q.24.24.29.62c.29.19.53.34.82.53,0-.1.05-.19.1-.29.1-.05.19-.05.29-.1-.05-.05-.05-.1-.05-.14v-.05h.14c.05.1.1.24.14.38-.14.05-.24.1-.38.19.1.14.19.29.29.43h-.1c0,.1-.05.19-.05.24q.05.34.43.24c0,.1,0,.19.05.29.05.19.14.38.24.58.19.19.24.43.05.67.1.05.14.1.19.14-.05.34-.1.67-.14,1.06.1.05.19.14.29.24.05-.14.05-.19.05-.24-.05-.1-.14-.19-.19-.29.1-.14.19-.29.29-.43.24.24.24.34.24.53v.72c0,.19,0,.34-.14.43-.1.05-.14.14-.19.24-.05.05-.14.1-.24.14-.05.14-.05.29-.05.43-.14.05-.24.1-.34.14,0,.05-.05.1-.05.1.14.29-.05.48-.1.67,0,.05-.1.1-.14.1-.19.1-.29.19-.29.38,0,.29-.19.43-.38.58-.29.24-.62.43-.96.62-.05.05-.1.1-.19.14-.14.05-.19.14-.29.24-.14.14-.29.29-.43.38-.38.19-.72.34-1.01.62-.14-.14.05-.24.05-.38-.05-.05-.14-.19-.19-.29h-.14c-.19.05-.38.1-.53.19-.05.1-.19.1-.24.1-.05.05-.1,0-.1.05-.38.05-.77.05-1.01.38-.14,0-.24-.14-.38-.05-.14.1-.14.19-.19.34,0,.1-.1.19-.19.24s-.19.05-.29-.05h-.05q-.29-.29-.62-.05c-.14.14-.34.24-.58.29-.05-.1-.05-.19-.1-.24-.14-.05-.24,0-.34.1-.1.1-.14.14-.29.29-.05-.05-.1-.1-.14-.14-.05,0-.1.05-.14.05-.05-.1-.1-.19-.14-.29-.14-.05-.29.05-.34.19-.1.1-.1.19-.14.38-.14,0-.34.05-.53.14,0-.14,0-.29-.05-.38,0-.1-.1-.14-.19-.14-.05,0-.14.05-.14.05-.05.1-.05.19.05.29,0,0,0,.05.05.1-.05,0-.14.1-.19.1-.38-.05-.72-.1-1.1-.14-.1-.05-.24-.1-.34-.14-.62-.24-1.25-.53-1.82-.86-.48-.29-.91-.58-1.34-.91-.43-.34-.77-.72-1.06-1.15-.1-.1-.1-.24-.19-.29-.43-.38-.62-.86-.82-1.34,0-.05-.05-.1-.05-.1-.05-.34-.14-.67.14-.91.1-.1.1-.24.14-.29.05-.1.14-.14.19-.19.24.1.48.19.72.29,0-.29-.1-.48-.19-.67-.43-.62-.67-1.39-.77-2.06,0-.14-.05-.29.05-.43.05,0,.05-.05.05-.1-.24-.14-.1-.38-.14-.58s.05-.34.1-.53c.05-.1.05-.24,0-.38-.05-.14,0-.34,0-.48.1-.34.19-.67.29-1.01.05-.14.05-.34.24-.38h.05c.19-.34.48-.34.77-.24.24.1.48.1.67.38.1-.1.19-.14.34-.24.05.05.1.1.14.14.14-.05.05-.24.19-.29-.05.38-.1.77-.1,1.1,0,.29,0,.53-.05.82,0,.19-.1.38,0,.58.05.05,0,.14,0,.19-.05.34-.05.62.1.96.05.14.05.29.1.43,0,.19-.05.34.14.48.05,0,.05.1.05.14.1.19.19.38.34.53.1.1.14.24.24.38-.1.1-.14,0-.19-.05-.14-.14-.24-.24-.34-.34-.05-.05-.1-.1-.19-.14.05.43.19.82.38,1.1.34.53.62,1.06,1.06,1.49.1.1.19.19.29.29.14.05.24.14.29.29.05.1.1.14.14.24.14.24.38.38.67.38.48.05.91.1,1.34.19.1,0,.24,0,.34.14-.24.1-.48-.1-.72,0-.19.1-.43-.14-.67,0,.1.19.24.24.38.29.19.05.34.1.53.1h1.63c.19,0,.43-.05.62-.1.62-.29,1.2-.58,1.78-.96.24-.14.43-.29.67-.43,0-.14-.1-.19-.19-.14-.05,0-.14.05-.19.1-.29.24-.62.29-.96.34-.58.1-1.15.14-1.73.24-.05,0-.1.05-.14,0-.43-.1-.82,0-1.25-.05h-.24c.05-.19.14-.29.29-.24h.24c1.06.05,2.11-.1,3.12-.43.43-.14.86-.29,1.25-.58.05-.05.14-.05.19-.1.34-.34.48-.34.34-.96-.1-.38-.19-.72-.24-1.1,0-.24-.1-.48-.29-.67-.19-.24-.43-.48-.48-.82,0-.1-.14-.14-.24-.24-.14-.1-.29-.19-.38-.38-.05-.1-.14-.14-.24-.24-.29-.14-.58-.34-.86-.58-.14-.14-.34-.19-.53-.29-.38-.24-.77-.43-1.1-.67-.43-.29-.82-.58-1.2-.82-.19-.14-.38-.29-.62-.38-.34-.19-.62-.38-.86-.67-.1-.1-.14-.19-.29-.24-.19-.1-.29-.29-.43-.43-.14-.19-.24-.43-.38-.62-.14-.14-.14-.34-.24-.48-.34-.58-.43-1.2-.43-1.87-.05-.48.1-.96.1-1.44,0-.05.05-.14.05-.24.29-.43.48-.86.86-1.2.05-.05.1-.05.14-.1.19-.38.53-.62.82-.91.24-.29.43-.58.62-.86.24-.38.38-.77.77-1.01.1-.29.38-.43.58-.62.05-.05.1-.1.19-.14.34,0,.53-.24.77-.38.43-.24.82-.58,1.2-.82.14-.14.38-.24.58-.29.43-.05.77-.34,1.15-.53.05-.05.05-.19.14-.34.34-.19.77-.24,1.2-.34.43-.14.91-.05,1.34.1.38.1.72.19,1.1.34.14.1.34.1.43.05.14-.1.29,0,.38,0s.19.14.19.24c.05.05,0,.1,0,.14.43.29,1.01.43,1.3.91-.14.1-.24.14-.34.19.05.29.1.53.14.77.1.05.19.1.29.14.24.19.43.38.48.67,0,.1.05.19.1.29s.1.19.29.19c.14,0,.1.05.1.19-.05.29-.19.53-.29.82.1.05.19.05.24.1.1,0,.24.05.29.1.1.19.29.19.43.24Zm-14.11,19.59s-.1-.1-.14-.1c-.19-.1-.38-.14-.58-.19-.14-.05-.34-.05-.38-.05-.1,0-.14-.05-.19,0-.05,0-.1.05-.14.1,0,0,.05.1.1.14.05,0,.1.05.14.05.34.1.67.14,1.01.24.05,0,.1,0,.14-.05.05,0,.1-.1.05-.14Zm-1.15-5.57h-.1s0-.05-.05-.1h.1s.05.05.05.1Zm.77.86c.14,0,.19.05.19.19-.14,0-.19-.1-.19-.19Zm.53,1.3s-.05.05-.05.1t-.1-.1s.05-.05.1-.05l.05.05Zm.43.14h.05-.05Zm.29-.38s-.05.05-.05.05c-.05,0-.05-.05-.05-.1h.05s.05.05.05.05Zm.53.38h-.05.05Zm.24.19v-.1l.05.05s0,.05-.05.05Zm.77,3.17h-.05v.05h.05v-.05Zm.67-2.64c-.19.14-.29.14-.43.05.14-.05.24-.05.43-.05Zm.05-20.21l-.05-.05h.05v.05Zm.53,20.26c-.14,0-.19.05-.29.1-.05,0-.1-.05-.14-.05.05-.05.1-.1.1-.14.1,0,.24-.1.34.1Zm0-20.83v-.05s.05-.1.1-.14h.05s0,.05.05.05c-.05.05-.05.1-.1.14h-.1Zm.53,20.74s-.1-.05-.19-.05v-.05s.1-.1.14-.1.14.05.29.05c-.14.1-.19.1-.24.14Zm.38-21.22s-.05-.1-.05-.14c.05-.1.14-.14.29-.1-.05.1-.05.14-.1.19-.05.05-.1.05-.14.05Zm.82-.43c-.1-.1-.1-.14,0-.19.19-.05.38-.14.58-.19-.19.1-.38.24-.58.38Zm.58,10.32c-.24-.05-.34-.1-.38-.24q.14,0,.38.24Zm-.19-5.66h-.1.1Zm0,0c0-.1.05-.14.05-.24.05.1.05.19-.1.24h.05Zm.24-5.09l-.05.05.05-.05h.1-.1Zm0,4.27v.05-.05Zm.24,6.34h.05-.05Zm1.87,1.58c-.24-.05-.38-.34-.62-.48-.1-.1-.19-.14-.34-.24-.29-.14-.53-.34-.82-.48.1-.05.19-.1.29-.14.1.1.14.19.24.24.1.1.19.1.34.14,0-.05.05-.1.14-.14.19.1.38.19.58.29-.05.14-.05.24-.05.34.1.14.34.19.24.48Zm-.96,12.72s.1.1.14.19c-.1.05-.24.1-.38.14q.14-.43.34-.58,0,.1-.1.24Zm.24-14.31s-.05-.05-.05,0v-.05s.05,0,.05.05Zm-.05,0v-.05.05Zm.05,0c.29-.05.53.1.72.34q-.24,0-.72-.34Zm.38,14.31s.05.05.1.05c-.05,0-.1.05-.1.05-.05.05-.05,0-.1,0,.05-.05.05-.1.1-.1Zm.38-12.72h-.05.05Zm1.25-.24c-.14-.05-.53-.29-1.06-.82.1,0,.14-.05.14-.05.43.14.72.48.91.86Zm-.53,12.29h.1c.19-.14.43-.29.58-.43.05,0,.1-.1.1-.1v-.1s-.1-.05-.1-.05c-.19.1-.43.24-.62.34-.05.05-.05.1-.1.14-.05.1-.05.14.05.19Zm.86-20.93c-.14-.05-.29-.1-.48-.14.05.14.1.19.1.29-.05.05-.14.1-.24.14.14.05.19.1.34.14,0-.24.34-.14.29-.43Zm1.2,9.94c-.14.29-.05.62,0,.96-.05-.05-.1-.1-.14-.14-.14-.43-.38-.77-.72-1.1-.19-.19-.34-.43-.53-.67.1-.05.14-.1.24-.14.14-.05.24,0,.24.1-.05.24.14.38.19.58s.19.29.38.29c.1,0,.19,0,.34.14Zm-.34-9.79c-.1-.1-.19-.1-.34-.05l-.05.1s.05.1.1.1c.14.05.24,0,.29-.14Zm.48.19s-.05-.05-.05-.05l-.05.05s.05.05.1.05v-.05Zm.05,10.61c.1-.14.24-.1.38-.14-.14.24-.29.43-.43.62-.1-.19-.1-.34.05-.48Zm.82-12.24h-.1s.05.05.1.05v-.05Zm.19-1.15s-.05-.1-.1-.14h.14s.05.05.1.14h-.14Zm-.1,14.88h.1-.1Zm.24,2.11c.19-.34.24-.34.19-.43-.1-.19,0-.38-.24-.48-.14.1-.1.19-.14.34-.1.24-.05.38.19.58Zm.77,2.93c-.14-.05-.14-.1-.1-.14.14-.1.24-.24.48-.24-.05.29-.29.29-.38.38Zm.34,0s.05.05.05.1c-.05,0-.1.05-.1.05-.05,0-.05-.05-.05-.05.05-.05.05-.1.1-.1Z"/>
    </g>
  </g>
</svg>