<?xml version="1.0" encoding="UTF-8"?>
<svg id="Layer_2" data-name="Layer 2" xmlns="http://www.w3.org/2000/svg" viewBox="0 0 140.32 34.81">
  <defs>
    <style>
      .cls-1 {
        fill: #42484c;
        stroke-width: 0px;
      }
    </style>
  </defs>
  <g id="Layer_1-2" data-name="Layer 1">
    <g>
      <path class="cls-1" d="m0,30.56h1.65c.41,0,.72-.13.95-.38.22-.25.33-.62.33-1.09V7.72h4.43v21.99c0,1.62-.41,2.88-1.23,3.77s-1.98,1.34-3.46,1.34H0v-4.25ZM2.89,0h4.51v4.43H2.89V0Z"/>
      <path class="cls-1" d="m12.75,25.78c-1.1-.98-1.65-2.48-1.65-4.48s.56-3.33,1.67-4.29c1.11-.95,2.78-1.43,5.01-1.43h5.16l.26,3.45h-5.4c-.88,0-1.54.19-1.98.56s-.66.94-.66,1.71c0,.8.28,1.4.85,1.79.57.39,1.43.58,2.58.58,1.41,0,2.46-.15,3.14-.46.69-.31,1.03-.79,1.03-1.45l.39,2.75c-.21.61-.58,1.11-1.1,1.52s-1.16.71-1.9.92-1.55.31-2.43.31c-2.21,0-3.87-.49-4.97-1.48Zm10.02-11.01c0-1.08-.32-1.91-.96-2.5s-1.54-.89-2.7-.89c-.74,0-1.47.12-2.19.35-.72.24-1.36.56-1.93.98l-2.95-2.49c.75-.88,1.74-1.56,2.97-2.05,1.22-.49,2.58-.73,4.08-.73,1.63,0,3.03.28,4.19.84,1.16.56,2.05,1.38,2.66,2.45.61,1.07.92,2.36.92,3.87v12.38h-4.1v-12.21Z"/>
      <path class="cls-1" d="m35.92,21.32c0,.47.12.83.35,1.09.24.25.57.38,1,.38h1.32v4.25h-2.41c-1.48,0-2.64-.45-3.46-1.34-.82-.89-1.23-2.15-1.23-3.77V0h4.43v21.32Z"/>
      <path class="cls-1" d="m45.98,19.43c0,1.14.3,2.02.91,2.64.61.62,1.46.94,2.56.94s1.95-.29,2.54-.88c.59-.59.89-1.43.89-2.53l.26,4.12c-.37,1-.99,1.84-1.86,2.52-.87.68-1.92,1.02-3.17,1.02-2.09,0-3.71-.67-4.85-2.02-1.14-1.35-1.72-3.25-1.72-5.71V7.72h4.43v11.71Zm6.9-11.71h4.42v19.26h-4.42V7.72Z"/>
      <path class="cls-1" d="m65.72,26.93c-1.04-.22-2.01-.53-2.92-.96-.91-.42-1.73-.93-2.46-1.54l2.69-3.34c.98.69,1.98,1.22,3,1.58,1.02.36,2.01.54,2.98.54,1.35,0,2.37-.18,3.07-.55.7-.36,1.05-.89,1.05-1.59,0-.53-.17-.93-.52-1.2-.35-.27-.78-.45-1.31-.55-.53-.1-1.26-.19-2.22-.28-.16-.01-.33-.02-.5-.04-.17-.01-.34-.03-.5-.06-.05,0-.1,0-.15,0-.05,0-.1,0-.15,0-1.35-.15-2.46-.36-3.32-.62-.87-.27-1.59-.78-2.18-1.53-.59-.75-.88-1.84-.88-3.25,0-1.32.29-2.44.88-3.35s1.45-1.6,2.59-2.06c1.14-.46,2.54-.7,4.19-.7.99,0,1.95.1,2.89.29.94.19,1.84.47,2.7.83.86.37,1.67.82,2.44,1.36l-2.65,3.23c-.9-.54-1.82-.96-2.74-1.24-.92-.28-1.82-.43-2.68-.43-1.16,0-2.05.17-2.65.5-.61.33-.91.83-.91,1.48,0,.42.17.74.5.96s.75.37,1.25.45c.5.08,1.23.16,2.18.25.1.01.19.02.29.03.09,0,.19.02.29.03h.13s.1,0,.15.02c1.42.14,2.6.34,3.54.61.94.27,1.74.81,2.39,1.62.66.81.98,1.99.98,3.53,0,1.36-.31,2.51-.93,3.44-.62.93-1.54,1.64-2.76,2.12s-2.71.71-4.48.71c-1.15,0-2.25-.11-3.28-.32Z"/>
      <path class="cls-1" d="m87.68,9.42c1.33,0,2.49.23,3.48.68.99.45,1.88,1.21,2.68,2.28v.52c0,.56-.13.97-.38,1.22-.25.25-.58.38-.98.38-.48,0-.91-.09-1.28-.28-.37-.19-.75-.4-1.12-.64-.37-.24-.75-.45-1.12-.64-.37-.19-.8-.28-1.28-.28-.8,0-1.46.15-1.98.44-.52.29-.93.69-1.22,1.2-.29.51-.5,1.08-.62,1.72-.12.64-.18,1.29-.18,1.96,0,.59.06,1.23.18,1.92.12.69.33,1.33.62,1.92.29.59.7,1.07,1.22,1.46.52.39,1.18.58,1.98.58.35,0,.67-.07.96-.2.29-.13.57-.3.82-.5.25-.2.51-.41.76-.64.25-.23.51-.44.76-.64.25-.2.53-.37.82-.5.29-.13.61-.2.96-.2.19,0,.38.05.58.14.2.09.37.21.52.36s.27.32.36.52c.09.2.14.39.14.58,0,.48-.12.92-.36,1.32s-.55.76-.92,1.08c-.37.32-.81.6-1.3.84-.49.24-.99.43-1.5.58-.51.15-1.01.26-1.5.34-.49.08-.95.12-1.38.12-1.2,0-2.27-.23-3.22-.7s-1.75-1.1-2.42-1.9c-.67-.8-1.18-1.73-1.54-2.8-.36-1.07-.54-2.2-.54-3.4s.18-2.33.54-3.4c.36-1.07.88-2,1.56-2.8.68-.8,1.52-1.44,2.52-1.92s2.13-.72,3.38-.72Z"/>
      <path class="cls-1" d="m97.76,25.18V4.38c0-.27.07-.47.22-.62.15-.15.32-.25.52-.32.2-.07.4-.11.6-.12.2-.01.37-.02.5-.02.35,0,.64.06.88.18.24.12.43.29.58.5.15.21.25.45.32.7.07.25.1.51.1.78v18.92c0,.67-.19,1.19-.56,1.56-.37.37-.91.56-1.6.56-.11,0-.25-.03-.44-.1-.19-.07-.36-.15-.52-.26-.16-.11-.3-.25-.42-.42-.12-.17-.18-.35-.18-.54Z"/>
      <path class="cls-1" d="m105.56,16.38v-4.56c.13-.64.35-1.11.66-1.4.31-.29.79-.44,1.46-.44.4,0,.73.12,1,.36.27.24.47.56.6.96,0,1.01-.04,2.03-.12,3.06-.08,1.03-.13,2.01-.16,2.94-.03.93.01,1.81.12,2.64.11.83.35,1.55.72,2.18.37.63.92,1.14,1.64,1.54.72.4,1.68.64,2.88.72.13,0,.21.05.24.16.03.11.04.23.04.36,0,.4-.13.74-.4,1.02-.27.28-.59.5-.98.66-.39.16-.79.28-1.22.36s-.81.12-1.16.12c-.96,0-1.77-.17-2.42-.52-.65-.35-1.17-.81-1.56-1.38-.39-.57-.68-1.23-.88-1.96s-.33-1.49-.38-2.28c-.05-.79-.08-1.57-.08-2.36v-2.18Zm10.92,4.28v-.8c0-.24,0-.58.02-1.02s.03-.94.06-1.5c.03-.56.05-1.15.06-1.76.01-.61.03-1.2.06-1.76.03-.56.05-1.06.06-1.5s.02-.78.02-1.02c.13-.4.33-.72.6-.96.27-.24.6-.36,1-.36.27,0,.53.03.78.1.25.07.48.17.68.3.2.13.36.3.48.5.12.2.18.43.18.7v13.32c0,.19-.06.38-.18.58-.12.2-.26.37-.42.52-.16.15-.33.27-.52.36-.19.09-.33.14-.44.14-.45,0-.83-.11-1.12-.32-.29-.21-.53-.49-.7-.84-.17-.35-.31-.73-.4-1.16-.09-.43-.15-.86-.18-1.3-.03-.44-.04-.86-.04-1.26v-.96Z"/>
      <path class="cls-1" d="m124.32,4.66c0-.21.06-.4.18-.56.12-.16.27-.3.46-.42.19-.12.39-.21.6-.28.21-.07.41-.1.6-.1.21,0,.45.03.7.1.25.07.49.17.7.3.21.13.39.3.54.5.15.2.22.43.22.7v6.12c.27.29.42.58.46.86.04.28.06.62.06,1.02s-.03.81-.08,1.22c-.05.41-.11.83-.18,1.24-.07.41-.13.83-.18,1.26-.05.43-.08.88-.08,1.36,0,.88.02,1.67.06,2.38.04.71.19,1.32.44,1.84.25.52.65.93,1.2,1.22.55.29,1.31.44,2.3.44.8,0,1.45-.19,1.94-.56.49-.37.87-.84,1.14-1.4s.45-1.19.54-1.88c.09-.69.14-1.37.14-2.04,0-1.15-.14-2.08-.42-2.8-.28-.72-.69-1.29-1.22-1.7-.53-.41-1.2-.7-2-.86-.8-.16-1.73-.24-2.8-.24,0-.53.12-.99.36-1.36.24-.37.55-.68.92-.92.37-.24.77-.41,1.2-.52s.85-.16,1.28-.16c1.12,0,2.11.26,2.98.78.87.52,1.59,1.19,2.18,2.02.59.83,1.03,1.74,1.32,2.74.29,1,.44,2.01.44,3.02,0,.67-.06,1.35-.18,2.06-.12.71-.3,1.39-.54,2.06-.24.67-.55,1.3-.92,1.9-.37.6-.8,1.13-1.28,1.58-.48.45-1.03.81-1.66,1.08-.63.27-1.33.4-2.1.4-.64,0-1.17-.12-1.58-.36-.41-.24-.78-.52-1.1-.84-.32-.32-.63-.65-.94-.98-.31-.33-.7-.59-1.18-.78-.13-.05-.29.04-.48.28-.19.24-.4.52-.64.84-.24.32-.49.61-.74.88-.25.27-.53.4-.82.4-.24,0-.47-.05-.7-.14-.23-.09-.43-.21-.6-.36-.17-.15-.31-.32-.4-.52-.09-.2-.14-.39-.14-.58V4.66Z"/>
    </g>
  </g>
</svg>