<?xml version="1.0" encoding="UTF-8"?>
<svg id="Layer_2" data-name="Layer 2" xmlns="http://www.w3.org/2000/svg" viewBox="0 0 207.26 27.41">
  <defs>
    <style>
      .cls-1 {
        fill: #42484c;
        stroke-width: 0px;
      }
    </style>
  </defs>
  <g id="Layer_1-2" data-name="Layer 1">
    <g>
      <path class="cls-1" d="m12.9.37v18.53c0,1.14-.16,2.23-.46,3.26-.31,1.03-.78,1.92-1.41,2.68s-1.42,1.37-2.38,1.82c-.95.45-2.07.67-3.36.67-.48,0-.97-.04-1.48-.11s-.98-.18-1.45-.31c-.46-.13-.9-.29-1.31-.47s-.76-.38-1.06-.6v-3.65c.77.61,1.62,1.1,2.55,1.45.93.35,1.86.53,2.77.53,1.35,0,2.39-.45,3.12-1.36.73-.9,1.09-2.21,1.09-3.91V3.51H.32V.37h12.58Z"/>
      <path class="cls-1" d="m38.22,27.04h-3.6l-1.69-5.82h-10.09l-1.71,5.82h-3.43L25.75.37h4.53l7.94,26.68Zm-6.23-9.06l-4.1-14.27-4.1,14.27h8.2Z"/>
      <path class="cls-1" d="m56.69,27.04h-13.95V.37h3.36v23.57h10.6v3.1Z"/>
      <path class="cls-1" d="m78.19,17.76c0,1.47-.19,2.8-.57,3.99-.38,1.19-.93,2.2-1.66,3.04-.73.84-1.62,1.48-2.68,1.94s-2.27.68-3.65.68c-1.51,0-2.79-.22-3.84-.65-1.05-.44-1.91-1.05-2.57-1.85-.66-.8-1.14-1.75-1.45-2.87-.3-1.12-.45-2.36-.45-3.73V.37h3.3v17.65c0,1.05.09,1.97.27,2.76.18.79.47,1.45.88,1.98s.94.93,1.59,1.2c.65.27,1.44.41,2.38.41,1.76,0,3.05-.56,3.89-1.67s1.25-2.69,1.25-4.71V.37h3.3v17.39Z"/>
      <path class="cls-1" d="m98.69,19.82c0,1.27-.24,2.37-.71,3.33-.47.95-1.13,1.75-1.97,2.38-.84.63-1.85,1.11-3.03,1.42-1.18.31-2.48.47-3.91.47-.64,0-1.28-.03-1.92-.08-.64-.05-1.25-.12-1.84-.2s-1.14-.18-1.66-.29-.99-.22-1.41-.35v-3.51c.93.38,1.97.68,3.13.9,1.16.22,2.47.33,3.94.33,1.06,0,1.97-.09,2.72-.28.75-.18,1.36-.46,1.84-.82.48-.36.82-.8,1.04-1.32.22-.52.33-1.11.33-1.78,0-.72-.18-1.34-.55-1.85-.37-.51-.84-.97-1.44-1.37-.59-.4-1.27-.77-2.03-1.1-.76-.33-1.54-.68-2.33-1.03-.79-.35-1.57-.74-2.33-1.15s-1.44-.9-2.03-1.47c-.59-.56-1.07-1.23-1.44-1.99-.37-.76-.55-1.67-.55-2.71,0-.91.17-1.81.52-2.69.35-.88.88-1.67,1.61-2.36.73-.69,1.67-1.24,2.81-1.66,1.14-.42,2.51-.63,4.09-.63.41,0,.85.02,1.33.06.48.04.96.1,1.45.17.49.07.97.16,1.45.25.48.1.92.2,1.33.31v3.27c-.95-.3-1.91-.53-2.86-.68-.95-.16-1.88-.23-2.77-.23-1.89,0-3.28.35-4.17,1.04s-1.34,1.63-1.34,2.8c0,.72.18,1.34.55,1.86.37.52.84.98,1.44,1.39s1.27.78,2.03,1.11,1.54.68,2.33,1.03c.79.35,1.57.74,2.33,1.16.76.42,1.44.92,2.03,1.5s1.07,1.25,1.44,2.03c.36.78.55,1.69.55,2.76Z"/>
      <path class="cls-1" d="m109.88,24.35v1.44c0,.38-.15.71-.44,1-.29.29-.62.44-1,.44h-.51c-.4,0-.74-.15-1.02-.44-.28-.29-.42-.62-.42-1V2.69c0-.38.14-.71.42-1,.28-.29.62-.44,1.02-.44h.51c.38,0,.71.15,1,.44.29.29.44.63.44,1v21.66Zm7.71-22.83c2.96.5,5.42,1.88,7.37,4.12,1.95,2.25,2.93,5.1,2.93,8.56,0,3.14-.9,5.86-2.69,8.15-1.79,2.29-4.1,3.77-6.92,4.46-.7.14-1.41.25-2.13.33h-.12c-.4,0-.74-.14-1.02-.42-.28-.28-.42-.62-.42-1.02,0-.36.12-.68.38-.96s.56-.43.92-.45c.48-.06,1.02-.16,1.62-.3,2.06-.58,3.75-1.75,5.05-3.51,1.31-1.76,1.97-3.83,1.97-6.21,0-2.66-.66-4.85-1.98-6.58-1.32-1.73-3.12-2.83-5.4-3.31-.28-.06-.69-.11-1.23-.15-.36-.02-.67-.17-.93-.47-.26-.29-.39-.61-.39-.97,0-.4.14-.74.42-1.02.28-.28.62-.42,1.02-.42h.12c.48.04.96.1,1.44.18Z"/>
      <path class="cls-1" d="m137.54,6.56h-2.88v-3.75c0-.38.14-.71.42-1,.28-.29.62-.44,1.02-.44s.74.15,1.02.44.42.62.42,1v3.75Zm14.3,9c.29-.28.63-.42,1.03-.42s.74.14,1.02.42c.28.28.42.62.42,1.02v.72c0,1.78-.44,3.43-1.32,4.95-.36.62-.89,1.27-1.59,1.96-.7.69-1.36,1.22-1.98,1.58-1.52.88-3.17,1.32-4.95,1.32s-3.43-.44-4.95-1.32c-.62-.36-1.27-.88-1.96-1.58-.69-.69-1.21-1.35-1.57-1.99-.88-1.52-1.32-3.16-1.32-4.92V4.28h2.88v13.02c0,1.3.31,2.47.93,3.51.24.42.62.88,1.12,1.36.51.49.98.87,1.42,1.12,1.08.62,2.23.93,3.45.93s2.44-.31,3.48-.93c.44-.26.91-.63,1.4-1.12.49-.49.86-.95,1.12-1.39.62-1.04.93-2.2.93-3.48v-.72c0-.4.14-.74.44-1.02Zm2.47-10.44c0,.4-.14.74-.42,1.02-.28.28-.62.42-1.02.42s-.75-.14-1.03-.42c-.29-.28-.44-.62-.44-1.02v-2.31c0-.38.14-.71.42-1,.28-.29.62-.44,1.02-.44h.03c.38,0,.71.15,1,.44s.44.62.44,1v2.31Z"/>
      <path class="cls-1" d="m170.33,2.3c.28-.7.8-1.05,1.56-1.05s1.28.35,1.56,1.05l8.97,22.62c.08.24.12.45.12.63,0,.46-.17.86-.51,1.2-.34.34-.74.51-1.2.51-.32,0-.63-.1-.93-.32-.3-.21-.51-.46-.63-.76l-2.01-5.16-1.38-3.48h.03l-3.12-8.07c-.28-.72-.59-1.08-.92-1.1-.33,0-.63.35-.91,1.06l-3.15,8.1-1.29,3.3-2.13,5.34c-.12.3-.33.55-.63.75-.3.2-.61.3-.93.3-.46,0-.85-.17-1.18-.5-.33-.33-.5-.73-.5-1.19,0-.16.04-.36.12-.6l9.06-22.65Z"/>
      <path class="cls-1" d="m206.82,24.88c.29.29.43.63.43,1.04s-.14.74-.43,1.03-.64.44-1.04.44h-14.97c-.4,0-.75-.15-1.04-.44-.29-.29-.44-.63-.44-1.03V2.57c0-.4.15-.74.44-1.03.29-.29.63-.44,1.04-.44h.03c.4,0,.75.15,1.04.44.29.29.44.64.44,1.03v21.24c0,.18.06.33.18.45.12.12.27.18.45.18h12.84c.4,0,.75.15,1.04.44Z"/>
    </g>
  </g>
</svg>