<?xml version="1.0" encoding="UTF-8"?>
<svg id="Layer_2" data-name="Layer 2" xmlns="http://www.w3.org/2000/svg" viewBox="0 0 62.71 57.89">
  <defs>
    <style>
      .cls-1 {
        stroke-width: 0px;
      }
    </style>
  </defs>
  <g id="Layer_1-2" data-name="Layer 1">
    <g>
      <path class="cls-1" d="m9.3,32.89c.26-1.33.47-2.66.65-3.97.18-1.32.39-2.64.65-3.97.06-.28.14-.54.24-.79.1-.25.27-.42.53-.53l.53.47.34-.16c.29.39.64.76,1.06,1.13.42.37.63.83.63,1.39,0,.46-.04.89-.12,1.32-.08.42-.15.84-.22,1.26l-.53,4.68c-.16,1.51-.43,3.21-.82,5.11s-.84,3.81-1.37,5.74c-.53,1.93-1.12,3.79-1.78,5.58-.66,1.79-1.36,3.32-2.1,4.58-.26.42-.57.91-.94,1.47-.37.56-.76.98-1.18,1.26-.42.28-.95.42-1.59.42-.58,0-1.12-.18-1.61-.55-.5-.37-.91-.82-1.23-1.34-.22-.35-.35-.74-.39-1.16-.03-.42-.05-.82-.05-1.21,0-3.37.51-6.66,1.54-9.87,1.03-3.21,2.52-6.1,4.48-8.66.45-.6.89-1.1,1.32-1.5s1-.71,1.71-.92l-.19.42.43-.21Zm-6.79,21.47l.24.05c.96-1.51,1.76-3.04,2.38-4.6.63-1.56,1.18-3.24,1.66-5.03.26-.91.5-1.81.72-2.68.22-.88.45-1.77.67-2.68.06-.28.13-.55.19-.82.06-.26.13-.54.19-.82.06-.35.1-.69.12-1.03.02-.33.07-.67.17-1.03h-.14c-2.06,2.7-3.57,5.61-4.55,8.71-.98,3.1-1.53,6.41-1.66,9.92Zm1.44-.16c-.06.07-.12.17-.17.29-.05.12-.1.22-.17.29.19-.25.37-.48.53-.71.16-.23.32-.47.48-.71-.19.07-.34.18-.43.34-.1.16-.18.32-.24.5Zm.58-12.79h-.05v.11s.05-.07.05-.11Zm.53,12.63l-.05.16c-.1.1-.18.22-.26.34-.08.12-.15.25-.22.39.1-.11.21-.25.34-.42.13-.18.19-.33.19-.47Zm2.22-2.53l-.14.11c-.26.56-.52,1.12-.79,1.68s-.58,1.09-.94,1.58c-.13.18-.27.36-.41.55-.14.19-.28.38-.41.55v.26c.67-.63,1.21-1.36,1.61-2.18.4-.83.76-1.68,1.08-2.55Zm-2.41,1.05l.05.05v-.05h-.05Zm.58,1.16l-.05-.11c-.06.03-.12.08-.17.13-.05.05-.1.11-.17.18l.39-.21Zm1.54-17.05c-.26.39-.49.79-.7,1.21-.21.42-.42.82-.65,1.21.35-.56.64-1.1.87-1.63.06-.14.14-.26.24-.37.1-.11.18-.25.24-.42Zm-1.3,16.37l-.05.05v.05s.05-.02.05-.05v-.05Zm2.07-2.63c-.19.14-.31.31-.36.5-.05.19-.09.4-.12.61.06-.18.14-.36.22-.55.08-.19.17-.38.26-.55Zm.05-.26h-.05l.05.05v-.05Zm.24-.47h-.05v.05l.05-.05Zm1.06-17.05v-.05l-.05.11.05-.05Zm3.8-17.89l1.88,1.16c.26.14.38.37.38.68,0,.39-.1.95-.31,1.68-.21.74-.31,1.46-.31,2.16,0,.14,0,.28.02.42.02.14.02.28.02.42,0,.18-.02.35-.07.53-.05.18-.1.35-.17.53-.55-.14-1.04-.32-1.47-.55-.43-.23-.78-.64-1.04-1.24-.1-.21-.18-.42-.26-.63-.08-.21-.12-.44-.12-.68,0-.17.04-.44.12-.79s.17-.72.26-1.11c.1-.39.19-.75.29-1.11.1-.35.18-.61.24-.79.06-.14.14-.26.24-.37.1-.11.19-.21.29-.32Z"/>
      <path class="cls-1" d="m28.37,32c.06-.17.14-.32.24-.45.1-.12.19-.27.29-.45-.26.7-.59,1.49-1.01,2.37-.42.88-.88,1.75-1.37,2.61-.5.86-1.02,1.67-1.57,2.45-.55.77-1.08,1.39-1.59,1.84-.55-.21-.99-.41-1.33-.61-.34-.19-.51-.66-.51-1.39,0-1.44.12-2.85.36-4.24.24-1.39.49-2.78.75-4.18l-1.64,1.84c-.26.28-.54.61-.84,1-.31.39-.63.75-.96,1.11-.34.35-.7.65-1.08.89-.39.25-.79.37-1.2.37-.29,0-.61-.07-.96-.21-.35-.14-.68-.33-.99-.58-.31-.25-.55-.53-.75-.84-.19-.32-.29-.67-.29-1.05,0-.77.17-1.67.51-2.71s.77-2.05,1.3-3.05c.53-1,1.11-1.93,1.73-2.79.63-.86,1.23-1.52,1.81-1.97.48-.38,1.01-.73,1.59-1.03s1.17-.45,1.78-.45,1.16.16,1.66.47c.5.32.97.7,1.42,1.16.13.14.19.28.19.42,0,.07-.03.18-.1.32l-1.4-.42c-.87.32-1.63.81-2.29,1.47-.66.67-1.25,1.41-1.78,2.24-.53.83-1,1.7-1.4,2.63-.4.93-.78,1.82-1.13,2.66l.1.11.77-.63,4.62-4.53c.42-.42.74-.87.96-1.34.22-.47.61-.83,1.16-1.08l.05.53-.14.05c-.07.11-.09.17-.07.18.02.02-.02.08-.12.18l.14-.05.05-.26.14-.11c.06-.14.16-.21.29-.21.06,0,.14.05.24.16l-.05.37.19-.11v-.05l.24.11c-.19.67-.39,1.32-.6,1.95s-.43,1.26-.65,1.89l-.05.05s.05-.02.05-.05c.1-.11.14-.17.14-.21.26-.6.49-1.18.7-1.76s.44-1.15.7-1.71c.29.07.43.23.43.47,0,.18-.02.35-.07.53-.05.18-.1.35-.17.53-.16.49-.39,1.21-.7,2.16-.31.95-.61,1.94-.92,2.97-.31,1.04-.57,2.02-.79,2.95-.23.93-.34,1.61-.34,2.03.32-.21.6-.48.84-.82.24-.33.49-.64.75-.92h.1c-.32.49-.67.97-1.04,1.42-.37.46-.67.97-.89,1.53h-.05v.05s.05-.02.05-.05c.45-.49.87-1.01,1.25-1.55.39-.54.77-1.08,1.16-1.6.1-.14.19-.3.29-.47s.21-.33.34-.47l.24-.26c-.51.95-1.11,1.87-1.78,2.76-.67.89-1.24,1.83-1.69,2.82l1.54-1.95-.43.89.34-.26.05.21c.03-.14.1-.28.19-.42s.18-.28.24-.42h.05v-.05l-.05.05h-.1c.06-.21.13-.39.19-.53.06-.14.18-.28.34-.42v.21l.1-.21.14-.11.1-.21c.06-.21.17-.4.31-.58s.25-.37.31-.58c.06-.14.14-.27.22-.4.08-.12.15-.25.22-.39h-.05l.1-.21h-.05l.29-.58.05.21c.03-.14.07-.26.12-.37.05-.11.1-.21.17-.32h-.05l.14-.11c.06-.11.13-.26.19-.47v.05Zm-12.86-2.58s0,.06-.02.08c-.02.02-.02.04-.02.08h.05v-.16Zm.14-.42c.1-.11.14-.17.14-.21.32-.6.63-1.19.92-1.79.29-.6.61-1.17.96-1.74.06-.11.18-.27.34-.5.16-.23.24-.41.24-.55l-.1.21c-.16.18-.37.47-.63.87-.26.4-.51.84-.75,1.32-.24.47-.47.93-.67,1.37-.21.44-.36.78-.46,1.03-.06.07-.1.16-.1.26l.1-.26Zm.63.84l.14-.37c-.07.04-.1.09-.1.16s-.03.14-.1.21h.05Zm.1,2.47s-.05.11-.05.21h.05v-.21Zm.19-.47c.45-1.33.99-2.65,1.61-3.95.63-1.3,1.36-2.49,2.19-3.58-.32.21-.67.58-1.04,1.1s-.72,1.1-1.06,1.71c-.34.61-.63,1.22-.89,1.82-.26.6-.45,1.09-.58,1.47-.1.28-.18.58-.24.89-.07.32-.13.61-.19.9.06-.07.13-.19.19-.37Zm1.59-5.79c-.32.49-.61.97-.87,1.42-.26.46-.5.97-.72,1.53.26-.49.52-.96.79-1.42s.54-.93.79-1.42v-.11Zm.24-2l.14-.11h-.05l-.1.11Zm.34,1.21s-.06.05-.1.05h.1v-.05Zm.19-.37s-.05.02-.05.05h.05v-.05Zm4.77,9.42h.05v-.11h-.05v.11Zm.19,4.95c-.06,0-.1.04-.1.11l.1-.11Zm0-6l.05.11v-.16l-.05.05Zm.05,5.95c.06-.07.14-.13.22-.18s.12-.15.12-.29l-.34.47Zm.24-7.1c-.03.07-.05.16-.05.26h.05v-.26Zm0-.21l.1-.21h-.05l-.05.21Zm.43-1.32c-.13.32-.24.67-.34,1.05.13-.18.21-.35.24-.53s.06-.35.1-.53Zm-.34,8.37s.05,0,.05-.03c0-.02.02-.03.05-.03,0,.03-.03.05-.1.05Zm.29-.42c0-.07,0-.12.02-.16.02-.04.02-.09.02-.16l-.29.47.24-.16Zm.38-13.32c-.19.21-.32.47-.38.79l.38-.79Zm-.34,13.26l.05-.05s-.02.05-.05.05Zm.1-8.32s-.05.09-.05.16l.05-.16Zm.14,8.21s-.05,0-.05.03c0,.02-.02.03-.05.03h.1v-.05Zm0-8.74s-.05.12-.05.26l.05-.11v-.16Zm.34,8.26h-.05l-.14.11h.05l.14-.11Zm.38-12.26c-.16.07-.24.16-.24.26v.05s.02.07.05.11l.19-.42Zm.05-.32c-.03.07-.05.16-.05.26.03-.07.05-.16.05-.26Zm.38,11.21s.05-.11.05-.21c-.03.04-.05.11-.05.21Z"/>
      <path class="cls-1" d="m37.47.32c.06-.21.18-.32.34-.32.35,0,.71.13,1.06.39.35.26.67.6.94,1,.27.4.5.83.67,1.29.18.46.26.86.26,1.21,0,.53-.12,1.33-.36,2.42-.24,1.09-.52,2.24-.84,3.45-.32,1.21-.64,2.37-.96,3.47s-.56,1.97-.72,2.61c-.19.7-.4,1.41-.63,2.13-.23.72-.43,1.43-.63,2.13l-2.6,10.16c-.45,1.68-.82,3.4-1.11,5.16-.29,1.75-.43,3.51-.43,5.26,0,.49.04.98.12,1.47s.18.98.31,1.47c.06.32.14.64.24.97.1.33.16.66.19.97-.07,0-.14,0-.22.03-.08.02-.15.03-.22.03-.64,0-1.23-.21-1.76-.63-.53-.42-.97-.91-1.33-1.47-.45-.67-.72-1.4-.82-2.21-.1-.81-.14-1.61-.14-2.42,0-1.61.18-3.54.53-5.79.35-2.25.79-4.55,1.3-6.92s1.06-4.67,1.64-6.89c.58-2.23,1.11-4.15,1.59-5.76.13-.49.41-1.35.84-2.58.43-1.23.87-2.51,1.32-3.84.45-1.33.85-2.55,1.2-3.66.35-1.11.53-1.8.53-2.08,0-.32-.11-.67-.34-1.05Zm-5.97,37.1c.06-.17.11-.36.14-.55.03-.19.06-.38.1-.55.13-.81.26-1.61.39-2.42.13-.81.29-1.61.48-2.42.29-1.26.57-2.53.84-3.79.27-1.26.57-2.53.89-3.79.45-1.79.94-3.55,1.47-5.29.53-1.74.99-3.5,1.37-5.29-.1.18-.24.57-.43,1.18-.19.61-.41,1.34-.65,2.18-.24.84-.49,1.75-.75,2.74s-.51,1.92-.75,2.82c-.24.89-.45,1.71-.63,2.45-.18.74-.31,1.26-.41,1.58-.48,1.82-.91,3.67-1.28,5.53-.37,1.86-.63,3.74-.79,5.63Zm6.07-25.26c-.16.14-.24.33-.24.58l.24-.58Zm.14-.47l-.1-.05c-.03.1-.05.28-.05.53l.14-.47Zm.24-.89l-.05-.05v.05h.05Z"/>
      <path class="cls-1" d="m52.3,30.68l.14.1c-.06.11-.14.19-.24.26-.1.07-.19.14-.29.21v.11h.05v-.05c.1-.07.22-.1.36-.08s.25,0,.31-.08c-.13.28-.28.54-.46.79-.18.25-.35.51-.51.79.29-.21.53-.47.72-.79l.05.05v-.05h-.05l.19-.37c0-.25.08-.46.24-.63l.19.16c-.16.39-.34.75-.53,1.08-.19.33-.39.68-.58,1.03-.26.49-.56,1.04-.92,1.66-.35.62-.74,1.2-1.16,1.75-.42.55-.88,1.03-1.37,1.42-.5.39-1.04.59-1.61.59-.83,0-1.49-.27-1.97-.82-.48-.54-.72-1.27-.72-2.18,0-.56.02-1.12.05-1.68.03-.56.05-1.12.05-1.68-.55.88-1.12,1.74-1.71,2.58s-1.24,1.61-1.95,2.32c-.35.39-.8.58-1.35.58-.77,0-1.48-.25-2.12-.74-.55-.42-.88-.92-1.01-1.5s-.19-1.22-.19-1.92c0-.88.09-1.94.26-3.18.18-1.25.43-2.5.77-3.76.34-1.26.74-2.46,1.2-3.61.47-1.14.99-2.04,1.57-2.71.19-.21.35-.32.48-.32.06,0,.19.04.39.13.19.09.39.15.58.18v.47c.06-.1.16-.16.29-.16s.22-.02.29-.05l-.14.58.43-.21.38.21c.06.14.1.26.1.37s-.07.38-.22.84-.31.96-.48,1.52c-.18.56-.35,1.09-.51,1.6-.16.51-.27.85-.34,1.02-.39,1.29-.68,2.61-.89,3.96-.21,1.35-.39,2.68-.55,4.01,1.06-1.12,2.03-2.29,2.91-3.51.88-1.22,1.76-2.47,2.62-3.72.29-.42.54-.88.77-1.39.22-.51.44-1.01.65-1.52.21-.51.42-1.01.65-1.52.22-.51.5-.97.82-1.39.1-.14.26-.29.48-.45.22-.16.42-.24.58-.24.19,0,.4.07.63.21s.45.25.67.31l-.14.58.34-.37h.1c.03.11.11.16.24.16l.14-.21v.11s.02.05.05.05c0,.42-.11.91-.34,1.47s-.42,1.05-.58,1.47c-.55,1.64-.99,3.3-1.32,4.98s-.71,3.36-1.13,5.04c0,.03-.02.13-.07.29s-.07.25-.07.29c0,.11,0,.22.02.34.02.12.1.18.26.18.22,0,.53-.18.92-.53.38-.35.78-.76,1.18-1.24s.77-.95,1.11-1.42c.34-.47.58-.82.75-1.03v.05l.14-.21-.05.05.43-.63Zm-14.11-4.95v-.05h-.05v.05h.05Zm.43,6l.1.05c0-.25-.02-.44-.05-.58,0,.25-.02.42-.05.53Zm.1-.63c.06-.07.1-.14.1-.21.29-1.61.67-3.16,1.16-4.63s1.01-2.96,1.59-4.47c.06-.11.09-.21.07-.32-.02-.1-.02-.21-.02-.32-.32.67-.64,1.41-.96,2.24s-.62,1.68-.89,2.58c-.27.89-.5,1.79-.67,2.68s-.3,1.71-.36,2.45Zm.1-7.42l.96-2.05c-.45.6-.77,1.28-.96,2.05Zm.67.74h.05v-.16s-.05.09-.05.16Zm.29-2.79c.06-.07.1-.12.12-.16.02-.03.06-.07.12-.1l-.1-.05c-.06,0-.1.04-.1.11s-.02.14-.05.21Zm.72.37c.13-.14.21-.25.24-.32h-.05c-.13,0-.19.11-.19.32Zm.87,1.42h.05v-.05l-.05.05Zm.53-1.42v.05h.05l-.05-.05Zm1.11,9.21l.05.05v-.05h-.05Zm2.36-3.47c-.19.04-.32.12-.39.26-.06.14-.13.3-.19.47l.58-.74Zm.34,2.42s-.07.02-.1.05l.05.1.05-.16Zm3.47-5.79c-.26.39-.54,1.06-.84,2.03-.31.97-.59,2.02-.87,3.16-.27,1.14-.51,2.24-.7,3.29s-.31,1.84-.34,2.37c.16-.53.29-1.05.38-1.58s.22-1.05.39-1.58c.35-1.3.7-2.58,1.04-3.84.34-1.26.65-2.54.94-3.84Zm-2.65,6.16h-.05v.11h.05v-.11Zm.53-2.05h-.05v.16l.05-.16Zm.24-.74s-.06-.05-.1-.05v.21l.1-.16Zm1.93-3.47h-.05v.11s.02-.07.05-.11Zm.24-1.05v-.11s0,.05-.02.05c-.02,0-.02.02-.02.05h.05Zm.05-.26c.22-.17.35-.27.39-.29.03-.02.1-.17.19-.45l-.58.74Zm.82-.32l.05-.05h-.05v.05Zm.92,10.95v-.05l-.05.05h.05Z"/>
      <path class="cls-1" d="m61.17,19.74l-.29.32c-.22-.03-.43-.09-.63-.16s-.4-.11-.63-.11c-.26,0-.5.11-.72.34-.23.23-.43.51-.63.84-.19.33-.36.67-.51,1-.14.33-.26.61-.36.82-.16.46-.26.89-.31,1.29-.05.4-.07.85-.07,1.34.55-.49,1.1-1.03,1.66-1.6.56-.58,1.24-.87,2.05-.87.32,0,.66.1,1.01.29.35.19.67.38.96.55-.48.46-.99.88-1.52,1.26-.53.39-1,.86-1.42,1.42-.55.74-1.09,1.54-1.64,2.42.71,1.51,1.32,2.95,1.83,4.32.51,1.37.77,2.91.77,4.63,0,.81-.16,1.55-.48,2.24-.32.68-.75,1.28-1.28,1.79-.53.51-1.13.91-1.81,1.21-.67.3-1.36.45-2.07.45-.45,0-.91-.07-1.37-.21-.47-.14-.89-.36-1.28-.66-.38-.3-.71-.66-.96-1.08-.26-.42-.39-.91-.39-1.47,0-.84.14-1.76.41-2.76.27-1,.6-2.02.99-3.05.39-1.03.79-2.03,1.23-3,.43-.96.83-1.82,1.18-2.55-.32-.81-.65-1.65-.99-2.53-.34-.88-.5-1.77-.5-2.68,0-.53.1-1.15.29-1.87.19-.72.47-1.4.84-2.05.37-.65.79-1.19,1.28-1.63.48-.44,1.01-.66,1.59-.66.32,0,.67.07,1.04.21.37.14.73.32,1.08.53.35.21.67.47.96.76.29.3.51.61.67.92Zm-9.25,19.26h.05v-.21h-.05v.21Zm.14-.53v-.21l-.1.21h.1Zm.34-1.58l.1-.32c.26-.53.47-1.07.65-1.63.18-.56.34-1.12.51-1.68.16-.21.27-.45.34-.71.06-.26.16-.52.29-.76-.1.11-.24.4-.43.9-.19.49-.39,1.03-.6,1.6-.21.58-.4,1.12-.58,1.63-.18.51-.26.83-.26.97Zm.29,2.11v-.05h-.05v.05h.05Zm.05-.58h.05v-.37c-.03.07-.05.19-.05.37Zm.34,1.79l.1.05c.26-1.58.65-3.11,1.18-4.58.53-1.47,1.08-2.95,1.66-4.42-.16.04-.38.37-.65,1-.27.63-.55,1.36-.82,2.18-.27.83-.53,1.61-.77,2.34-.24.74-.38,1.23-.41,1.47-.06.32-.11.64-.14.97-.03.33-.08.66-.14.97Zm3.42-7.58l-.14.05c-.19.42-.42.98-.67,1.68-.26.7-.51,1.42-.75,2.16-.24.74-.45,1.46-.63,2.16-.18.7-.26,1.28-.26,1.74,0,.32.08.65.24,1,.06-.07.14-.11.24-.11s.18-.04.24-.11c.77-.46,1.35-1.12,1.73-2s.58-1.77.58-2.68c0-.67-.06-1.32-.19-1.97-.13-.65-.26-1.29-.39-1.92Zm-2.22-.84c.06-.21.13-.37.19-.47-.13.14-.19.3-.19.47Zm1.3-12.1c-.16.18-.3.39-.41.66-.11.26-.2.48-.27.66.13-.17.26-.39.39-.63.13-.25.22-.47.29-.68Zm-.19,14.26l-.05.05h.05v-.05Zm.05-2.89v.05l.05-.05h-.05Zm.29-9.68c.16-.18.3-.36.41-.55.11-.19.17-.43.17-.71l-.58,1.26Zm.38,1.42c.26-.28.5-.69.72-1.24.22-.54.45-1.01.67-1.39-.42.18-.73.55-.94,1.13-.21.58-.36,1.08-.46,1.5Zm1.25-1.32l-.05-.05v.05h.05Zm.34,17.05c-.06.14-.12.28-.17.42-.05.14-.1.28-.17.42.22-.18.34-.46.34-.84Zm-.24-17.32l-.05.05h.05v-.05Zm.34,17.05l-.1-.05v.26l.1-.21Zm.48,1.05c.19-.07.29-.25.29-.53v-.32l-.29.84Zm.63,1.05c.19-.32.36-.64.51-.97.14-.33.22-.69.22-1.08,0-.07,0-.14-.02-.21-.02-.07-.02-.14-.02-.21-.1.32-.24.71-.43,1.18-.19.47-.27.88-.24,1.24h-.05l.05.05Zm.92-.79l.05-.05h-.05v.05Zm.14-.37h-.05s.02.05.05.05v-.05Z"/>
    </g>
  </g>
</svg>