<?xml version="1.0" encoding="UTF-8"?>
<svg id="Layer_2" data-name="Layer 2" xmlns="http://www.w3.org/2000/svg" viewBox="0 0 133.4 66.74">
  <defs>
    <style>
      .cls-1 {
        fill: #c41a2f;
        stroke-width: 0px;
      }
    </style>
  </defs>
  <g id="Layer_1-2" data-name="Layer 1">
    <g>
      <path class="cls-1" d="m.17,59.36c.19.06.29.14.29.24v.33l-.29,2.86c-.19-.57-.22-1.14-.1-1.72s.16-1.15.1-1.72Zm1.05-3.44l-.86,3.15c-.25-.32-.37-.51-.33-.57.03-.06.14-.26.33-.57.13-.26.22-.51.29-.76.06-.26.16-.54.29-.86l.29-.57v.19ZM30.04,18.71v1.53c0,.26-.03.49-.1.72-.06.22-.1.46-.1.72-.06.76-.17,1.51-.33,2.24-.16.73-.37,1.45-.62,2.15-.13.38-.26.76-.38,1.15-.13.38-.25.76-.38,1.15-.13.32-.24.65-.33,1-.1.35-.21.68-.33,1-.13.26-.21.49-.24.72-.03.22-.11.46-.24.72-.32.95-.7,1.91-1.15,2.86v-.57c-.26.7-.49,1.42-.72,2.15-.22.73-.49,1.51-.81,2.34l.38-.38c-.19.45-.38.88-.57,1.29-.19.41-.41.88-.67,1.38h.38l-.29,1.14v-.38c-.06.13-.11.21-.14.24-.03.03-.08.11-.14.24l-1.15,3.15-1.15,2.86c-.25.63-.41,1.11-.48,1.43-.06.13-.1.35-.1.67,0,.25-.03.41-.1.48-.32.19-.51.43-.57.72-.06.29-.16.59-.29.91-.13.44-.29.87-.48,1.29-.19.41-.38.84-.57,1.29-.44.95-.87,1.91-1.29,2.86-.41.95-.87,1.88-1.38,2.77-.13.32-.3.59-.53.81-.22.22-.43.46-.62.72,0,.06.02.13.05.19.03.06.05.13.05.19-.19.38-.44.73-.76,1.05-.51.51-1.05.91-1.62,1.19s-1.18.56-1.81.81c-.25.13-.49.25-.71.38-.22.13-.46.25-.72.38-.44.13-.89.25-1.34.38-.44.13-.92.16-1.43.1-.44-.06-.86-.14-1.24-.24-.38-.1-.8-.11-1.24-.05-.13,0-.32-.13-.57-.38l.86.29-.29-.29c-.32-.06-.59-.16-.81-.29-.22-.13-.46-.26-.72-.38-.32-.13-.52-.32-.62-.57-.1-.26-.27-.45-.53-.57-.38-.26-.48-.57-.29-.95,0-.06-.02-.13-.05-.19-.03-.06-.05-.13-.05-.19-.13-.26-.19-.45-.19-.57l.29-2.29c.06-.32.1-.67.1-1.05s.06-.73.19-1.05c.26-1.21.64-2.45,1.15-3.72.13-.32.27-.62.43-.91.16-.29.3-.59.43-.91-.13.25-.21.49-.24.72-.03.22-.11.46-.24.72-.38.7-.65,1.45-.81,2.24-.16.8-.33,1.57-.52,2.34l-.29,1.43c-.13.44-.14.87-.05,1.29.1.41.21.84.33,1.29v.29c.13.38.22.7.29.95-.19.06-.29-.13-.29-.57-.06.32-.06.51,0,.57.06.06.35.22.86.48-.06-.38-.1-.76-.1-1.15s-.03-.76-.1-1.15c-.13-.57-.17-1.16-.14-1.76.03-.61.18-1.16.43-1.67.13-.32.24-.67.33-1.05s.24-.73.43-1.05c.19-.32.35-.67.48-1.05.13-.38.26-.73.38-1.05,0-.06.06-.16.19-.29l.57-.29c0,.13-.06.38-.19.76l2-2.58c.13.89,0,1.69-.38,2.39-.38.7-.7,1.43-.95,2.2-.13.51-.29.97-.48,1.38-.19.41-.35.87-.48,1.38-.13.44-.21.89-.24,1.34-.03.44-.08.89-.14,1.34,0,.13.02.24.05.33.03.1.05.21.05.33.25.06.46.13.62.19.16.06.21.25.14.57,0,.44.16.57.48.38.51-.25.86-.48,1.05-.67.64-.51,1.26-1.03,1.86-1.57.61-.54,1.16-1.16,1.67-1.86.45-.64.88-1.26,1.29-1.86.41-.6.78-1.26,1.1-1.96,1.02-1.85,1.88-3.59,2.58-5.25.38-.83.75-1.66,1.1-2.48.35-.83.69-1.69,1-2.58.32-.7.61-1.37.86-2,.25-.64.51-1.3.76-2l2.86-7.73c.06-.13.1-.32.1-.57.06-.13.13-.27.19-.43.06-.16.13-.3.19-.43.13-.25.24-.49.33-.72.1-.22.3-.4.62-.53-.13-.06-.26-.16-.38-.29l.57-.57c-.13-.06-.24-.08-.33-.05-.1.03-.4.21-.91.53l-1.15.57v-.29l1.15-.86c.13-.13.24-.19.33-.19s.21-.06.33-.19c.32-.13.51-.29.57-.48.44-1.27.87-2.51,1.29-3.72.41-1.21.81-2.45,1.19-3.72.19-.64.35-1.27.48-1.91.13-.64.25-1.3.38-2,.06-.13.11-.25.14-.38.03-.13.14-.16.33-.1.32.13.44.32.38.57-.06.13-.1.32-.1.57h.29v-.29c.38-.13.7-.22.96-.29l-.29,2c0,.06.02.11.05.14.03.03.05.08.05.14h.29v-.86c0,.13.03.26.1.38.13-.19.16-.41.1-.67-.06-.25.03-.44.29-.57l.29.57c.38-.25.44-.57.19-.95-.06-.13-.1-.38-.1-.76l.86,1.72.29-.29-.29-.1ZM1.79,53.54c.07.32.03.56-.1.72-.13.16-.25.33-.38.53-.19-.38,0-.76.57-1.15l-.1-.1Zm3.53,11.83c.45.13.91.11,1.38-.05.48-.16.75-.37.81-.62l-2.29.57.1.1Zm1.72-14.89l-.86,1.15h-.29l.86-1.15h.29Zm1.43.48h-.29l2.29-5.44c.13,0,.23-.03.29-.1-.13.51-.25.86-.38,1.05-.19.25-.13.38.19.38-.13.83-.43,1.53-.9,2.1-.48.57-.88,1.21-1.19,1.91v.1Zm4.77-10.21c.13,0,.25-.03.38-.1-1.27,1.53-2.32,3.15-3.15,4.87,0-.06-.01-.11-.05-.14-.03-.03-.05-.08-.05-.14.13-.26.22-.48.29-.67h-.38v-.19l1.72-2.29c.51-.7,1-1.37,1.48-2,.48-.63.97-1.27,1.48-1.91.38-.51.78-.97,1.19-1.38.41-.41.84-.87,1.29-1.38.13-.13.26-.32.38-.57.13.13.16.22.1.29-.06.06-.13.13-.19.19-.44.45-.7.92-.76,1.43.25-.19.57-.41.95-.67.13-.13.26-.29.38-.48.13-.19.25-.35.38-.48.26-.32.49-.62.72-.91.22-.29.49-.59.81-.91.13-.13.3-.22.52-.29.22-.06.43-.16.62-.29v.29c-.19.25-.4.48-.62.67-.22.19-.43.41-.62.67-.13.13-.21.27-.24.43-.03.16-.11.3-.24.43-.06.13-.13.21-.19.24-.06.03-.13.11-.19.24l-.29.57c-.25.38-.56.68-.91.91-.35.22-.68.46-1,.72v-.57c-.25.13-.44.26-.57.38-.13.13-.19.29-.19.48,0,.06.06.16.19.29-.32.76-.79,1.27-1.43,1.53.13-.32.27-.62.43-.91s.33-.59.52-.91l-.57.19-2,2.29v.1h-.19Zm.19,2.58h.29l-.86.86.57-.86Zm.96-1.91l.57-.86.29.29-.57.86-.29-.29Zm4.49-7.73c0,.45-.19.76-.57.95-.13.06-.32.22-.57.48v-.19c.13-.19.29-.38.48-.57.19-.19.38-.41.57-.67h.1Zm1.24,1.24c.19-.19.38-.38.57-.57.19-.19.44-.35.76-.48l-1.15,1.15v-.29l-.19.19Zm13.17-25.58c-.13,0-.19.06-.19.19v.38c0,.13-.05.22-.14.29-.1.06-.27.03-.53-.1l-.29.57h-.29v-.57c0-.06-.02-.11-.05-.14-.03-.03-.05-.08-.05-.14l-.29.29v1.62c-.19.13-.54.45-1.05.95h-.29c-.06-.13-.1-.27-.1-.43s-.03-.3-.1-.43c-.06-.13-.22-.32-.48-.57h-.29l.29.57-.77.76h.38l-.86.86h-.29l.57-.86c-.32.13-.62.22-.91.29-.29.07-.59.16-.91.29.06-.25.05-.48-.05-.67-.1-.19-.05-.38.14-.57,0-.06-.03-.13-.1-.19-.13-.13-.19-.22-.19-.29-.25.13-.48.22-.67.29.06-.19.1-.35.1-.48-.13-.06-.25-.16-.38-.29l.29-.29c.06-.13.13-.22.19-.29.06-.06.13-.16.19-.29,0-.06-.02-.13-.05-.19-.03-.06-.05-.13-.05-.19l-.29.29c-.13.13-.21.27-.24.43-.03.16-.11.3-.24.43-.06.06-.13.11-.19.14-.06.03-.13.08-.19.14l-.29-.29c-.13-.13-.22-.25-.29-.38l.29-.29c-.13-.13-.24-.27-.33-.43-.1-.16-.14-.3-.14-.43-.13-1.08.35-1.78,1.43-2.1.13,0,.19-.1.19-.29.06-.7.44-1.34,1.15-1.91.13-.13.29-.17.48-.14.19.03.38.02.57-.05.13.26.22.48.29.67.13-.13.22-.24.29-.33.06-.1.13-.21.19-.33h.86l-.38.57c.44-.19.83-.32,1.15-.38l.29,1.43.19-.19c0,.51.22.76.67.76-.13.45-.03.73.29.86v.67c.13.13.25.22.38.29l1.05.48Zm-8.49,21.57l.57-1.15c-.38.13-.54.3-.48.53.06.22.06.43,0,.62h-.1Zm2.29-1.34l-.57,1.43h.29l.29-1.43Zm-.19,0l.57-.86c-.13-.06-.21-.1-.24-.1-.03,0-.11-.03-.24-.1v.95l-.1.1Zm1.15-4.58l.57-3.72-.57,1.43v-.86h-.29l-.57,4.58h.29l.29-.86c.13-.38.22-.7.29-.95v.38h.29-.29Z"/>
      <path class="cls-1" d="m65.64,31.21c-.19.45-.42.89-.67,1.34l-.19-.76c-.06-.13-.29-.25-.67-.38-.19.13-.54.32-1.05.57-.13,0-.32.06-.57.19-.26.13-.45.26-.57.38s-.22.19-.29.19c-.19.06-.38.11-.57.14-.19.03-.35.18-.48.43l-.48.19v-.95c0-.19-.13-.35-.38-.48-.32-.13-.64-.27-.95-.43-.32-.16-.64-.33-.96-.52-.06,0-.22-.22-.48-.67-.06.13-.11.22-.14.29-.03.06-.11.16-.24.29l-.29-.29c-.38.32-.73.03-1.05-.86h-.29c-.13-.38-.19-.73-.19-1.05,0-.13.02-.27.05-.43.03-.16.05-.3.05-.43,0-.32-.16-.41-.48-.29l-1.43.86c-.51.32-.99.62-1.43.91-.45.29-.92.59-1.43.91-.38.26-.77.48-1.15.67l-1.15.57c-.45.26-.88.49-1.29.72-.41.22-.87.43-1.38.62-.7.32-1.42.59-2.15.81-.73.22-1.45.46-2.15.72-.25.13-.49.24-.72.33-.22.1-.46.18-.71.24-.45.06-.88.1-1.29.1s-.84.03-1.29.1c-.32,0-.45-.13-.38-.38,0-.13-.06-.19-.19-.19-.13-.06-.24-.13-.33-.19-.1-.06-.21-.1-.33-.1-.45-.06-.78-.24-1-.53s-.49-.56-.81-.81c-.19-.13-.35-.27-.48-.43-.13-.16-.35-.17-.67-.05-.13.06-.29.03-.48-.1-.19-.13-.38-.25-.57-.38.06-.13.11-.25.14-.38.03-.13.08-.25.14-.38.13.13.24.26.33.38.1.13.21.26.33.38l.1-.1c.06-.06.1-.11.1-.14,0-.03.03-.08.1-.14h-.57v-.38c.13-.32.16-.53.1-.62s-.25-.21-.57-.33c-.25-.13-.32-.35-.19-.67.13-.51.29-.99.48-1.43.19-.44.38-.92.57-1.43.32-.7.75-1.32,1.29-1.86.54-.54,1.07-1.1,1.57-1.67.83-.95,1.73-1.81,2.72-2.58.99-.76,2.02-1.46,3.1-2.1,1.02-.57,2-1.05,2.96-1.43.51-.19,1.03-.35,1.57-.48.54-.13,1.1-.13,1.67,0,.19.06.4.06.62,0,.22-.06.46-.1.72-.1-.13.13-.26.22-.38.29.25.06.48.13.67.19.19.06.38.1.57.1.32.06.6.1.86.1h.86c.25,0,.4.08.43.24.03.16.08.3.14.43,0,.06-.06.16-.19.29l-.19-.1c-.25-.13-.45-.19-.57-.19l.86.57c-.45.06-.88.11-1.29.14-.42.03-.88.08-1.38.14.51.13.99.24,1.43.33.44.1.89.21,1.34.33v.29h-.67c0,.26.14.35.43.29.29-.06.37.1.24.48.13-.06.25-.1.38-.1-.06.32-.16.49-.29.53-.13.03-.48-.01-1.05-.14l.57-.29v-.29l-.29.29c-.32.13-.61.25-.86.38-.25.13-.54.13-.86,0h-.29c-.57.32-1.14.61-1.72.86-.57.25-1.11.54-1.62.86l-1.15.57-2,1.15c-.13,0-.19.06-.19.19-.06.32-.21.51-.43.57-.23.06-.46.16-.72.29-.13.13-.27.24-.43.33-.16.1-.3.21-.43.33-.13.13-.24.21-.33.24-.1.03-.21.11-.33.24-.19.19-.37.4-.53.62-.16.22-.3.46-.43.72l-.29.29c-.13.13-.23.26-.29.38-.06.13-.16.26-.29.38-.13.13-.21.25-.24.38-.03.13-.11.25-.24.38l1.72-.57c.13-.06.29-.14.48-.24.19-.1.35-.14.48-.14.38.06.72,0,1-.19.29-.19.59-.35.91-.48.7-.38,1.37-.78,2-1.19.64-.41,1.3-.81,2.01-1.19.32-.13.6-.25.86-.38.25-.13.54-.25.86-.38l1.15-.57c.25-.13.49-.29.72-.48.22-.19.46-.35.71-.48.32-.19.6-.38.86-.57.25-.19.54-.35.86-.48.19-.13.54-.19,1.05-.19l.38.38c.19.06.37.02.53-.14.16-.16.33-.3.52-.43v-.38c.38-.13.73-.19,1.05-.19.57,0,.86.35.86,1.05,0,.26.03.45.1.57v-.57h.57v.86-.29c0,.13.03.25.1.38.13-.13.19-.24.19-.33s-.06-.33-.19-.72c0-.32.16-.51.48-.57.13,0,.21-.05.24-.14.03-.1.08-.17.14-.24l1.34,1.34c.25.13.38.29.38.48.06.26.1.51.1.76s-.16.48-.48.67c-.19.19-.19.35,0,.48.19.32.25.65.19,1-.06.35-.16.68-.29,1-.06.19-.23.41-.48.67-.13.26-.22.49-.29.72-.06.22-.16.49-.29.81h1.15v.38c.32-.13.65-.22,1-.29.35-.06.72-.16,1.1-.29-.06.13-.11.22-.14.29-.03.06-.08.16-.14.29.57.06.86.41.86,1.05-.32.13-.61.26-.86.38-.26.13-.51.16-.76.1-.32-.06-.65-.1-1-.1s-.68-.06-1-.19c-.64-.19-1.15-.57-1.53-1.15,0,.26.03.41.1.48.25.45.54.83.86,1.14.32.32.77.48,1.34.48.38,0,.76.03,1.14.1.38.06.77.06,1.15,0,.32-.06.6-.14.86-.24.25-.1.54-.2.86-.33.19,0,.32-.03.38-.1l.57-.29c.25-.13.44-.19.57-.19.19,0,.29.13.29.38Zm-32.26-.57c-.13.32.03.51.48.57-.06-.19-.16-.41-.29-.67-.19,0-.29.03-.29.1h.1Zm10.12-7.83c-.57.38-1.13.76-1.67,1.15s-1,.86-1.38,1.43l3.15-2.58h-.1Zm-.29,6.87c.51-.32,1.03-.62,1.57-.91.54-.29,1.1-.59,1.67-.91-.7.13-1.27.35-1.72.67-.45.32-.92.64-1.43.95l-.1.19Zm3.05-2.39l2-1.14v-.29c-.32.25-.65.46-1,.62-.35.16-.65.4-.91.72v.29l-.1-.19Zm4.39-.95c.44.38.86.32,1.24-.19-.51.13-.92.22-1.24.29v-.1Zm1.62-7.44l-.86-.29c.13,0,.27.02.43.05.16.03.3.05.43.05v.29-.1Zm5.44,12.79h.29l.29.57-.29.29c-.26-.13-.42-.25-.48-.38,0-.06.02-.13.05-.19.03-.06.05-.13.05-.19l.1-.1Zm1.72-2l-.86.29v.29l1.72.29c-.19-.13-.41-.17-.67-.14-.25.03-.38-.17-.38-.62l.19-.1Zm.57-7.44l-.57-1.14h.29l.57.86-.29.29Zm2.86,10.88c.13-.38.25-.67.38-.86.38.38.41.67.1.86h-.48Zm2.96-.57v.29l-.86.57v-.29l.86-.57Zm.19-2.29h.19v.57h-.29v-.57h.1Z"/>
      <path class="cls-1" d="m85.01,1.81c.38.51.29,1.43-.29,2.77l-.29,1.15-1.72,4.58c-.32.76-.64,1.53-.95,2.29-.32.76-.64,1.53-.96,2.29l-.29.86c-.06.13-.11.25-.14.38-.03.13-.14.13-.33,0l-.1.1c-.13.32-.26.59-.38.81-.13.22-.25.49-.38.81-.13.32-.21.61-.24.86-.03.26-.11.54-.24.86-.13.38-.26.67-.38.86-.25.51-.49.97-.72,1.38-.22.41-.46.88-.71,1.38-.13.32-.26.61-.38.86-.13.26-.25.54-.38.86-.13.32-.3.6-.53.86-.22.26-.3.57-.24.96,0-.13-.03-.25-.1-.38-.25.45-.49.84-.71,1.19-.23.35-.43.72-.62,1.1-.32.57-.59,1.14-.81,1.72s-.46,1.15-.71,1.72l-1.72,4.29-1.72,4.87c-.13.32-.25.59-.38.81-.13.22-.26.46-.38.72-.06.06-.19.1-.38.1,0-.06-.02-.11-.05-.14-.03-.03-.05-.08-.05-.14.13-.25.13-.41,0-.48-.13-.06-.29-.13-.48-.19,0-.38.08-.75.24-1.1.16-.35.11-.75-.14-1.19l-.57,2.29v.29c-.32.44-.32.83,0,1.14-.64.19-.73.35-.29.48h.57c-.13.13-.22.25-.29.38h.76v-.19l1.15-.86c.32.13.46.3.43.52-.03.22-.02.43.05.62.06.38.25.54.57.48.38-.13.67-.19.86-.19-.32.13-.62.22-.91.29-.29.06-.59,0-.91-.19-.19-.13-.4-.18-.62-.14-.22.03-.43.02-.62-.05-.32-.13-.61-.24-.86-.33-.26-.1-.51-.21-.77-.33-.13-.06-.21-.16-.24-.29-.03-.13-.05-.26-.05-.38.06-.32.13-.65.19-1,.06-.35.16-.68.29-1,.13-.38.19-.7.19-.95-.13.38-.22.7-.29.95v-1.05l-.29.57-.29-.29c-.13.57-.23,1.15-.29,1.72-.06.57-.16,1.11-.29,1.62-.19-.13-.29-.22-.29-.29s.03-.26.1-.57.08-.62.05-.91c-.03-.29-.18-.59-.43-.91-.06.26-.16.57-.29.95l-.29.86c-.13.57-.05,1.08.24,1.53.29.44.62.83,1,1.14.32.32.65.57,1,.76.35.19.72.38,1.1.57.19.13.4.19.62.19s.46.06.71.19h-.29c.13.06.25.16.38.29l-.57.29v.19c-.32,0-.61-.02-.86-.05-.25-.03-.48-.21-.67-.52,0,.06-.1,0-.29-.19-.13-.06-.26-.16-.38-.29-.13-.13-.22-.24-.29-.33-.06-.1-.16-.21-.29-.33h-.29c-.19-.19-.37-.38-.53-.57s-.33-.38-.52-.57c-.13.25-.25.48-.38.67-.13-.25-.32-.57-.57-.95-.38-.83-.51-1.66-.38-2.48.13-.83.29-1.65.48-2.48.19-.89.41-1.75.67-2.58.25-.83.54-1.65.86-2.48.51-1.4,1.06-2.77,1.67-4.1.6-1.34,1.19-2.7,1.77-4.1l1.72-3.72,2.29-4.58c.51-1.08,1-2.13,1.48-3.15.48-1.02.97-2.07,1.48-3.15.51-1.08.97-2.16,1.38-3.25.41-1.08.87-2.16,1.38-3.24.25-.51.49-1.03.72-1.57.22-.54.46-1.1.71-1.67.06.19.16.41.29.67l1.15-2.58c0,.13-.02.22-.05.29-.03.06-.05.16-.05.29s.06.32.19.57c.06-.06.13-.11.19-.14.06-.03.13-.08.19-.14.13-.13.22-.29.29-.48.06-.19.16-.35.29-.48.13.13.25.37.38.72.13.35.16.65.1.91l-.86,3.15c-.06.25-.13.48-.19.67-.06.19-.16.41-.29.67l-.29,1.14c-.32,0-.54.16-.67.48l-.86,2.86-.29.86c.19-.32.38-.6.57-.86.19-.25.35-.54.48-.86.13-.06.24-.1.33-.1s.17-.03.24-.1c.19-.38.38-.76.57-1.15s.35-.76.48-1.15c.13-.19.21-.4.24-.62.03-.22.08-.43.14-.62-.13-.06-.25-.1-.38-.1-.13.13-.21.29-.24.48-.03.19-.11.35-.24.48-.06.06-.13.11-.19.14-.06.03-.13.08-.19.14l.57-1.72v.29c.32-.76.62-1.54.91-2.34.29-.8.37-1.64.24-2.53.13.19.27.38.43.57.16.19.33.41.53.67.06-.44.11-.86.14-1.24.03-.38.08-.76.14-1.15.32.13.44.32.38.57-.06.26-.06.48,0,.67.06.26.1.49.1.72s.03.49.1.81c.13-.25.25-.57.38-.95h.67Zm-18.23,43.33c-.32,0-.64-.22-.96-.67.51.19,1.02.37,1.53.53.51.16,1.02.33,1.53.52-.13.06-.22.13-.29.19-.06.06-.13.1-.19.1-.19-.13-.4-.18-.62-.14-.22.03-.4-.11-.53-.43,0-.13-.1-.19-.29-.19l-.19.1Zm.95-9.16c.19-.51.4-1.03.62-1.57.22-.54.43-1.07.62-1.57h-.29c-.13.26-.24.49-.33.72-.1.22-.21.46-.33.72-.13.25-.23.48-.29.67-.06.19-.11.4-.14.62-.03.22-.08.43-.14.62h.29v-.19Zm3.82,10.4c.19-.32.35-.32.48,0,.13.32.17.51.14.57-.03.06-.24.16-.62.29-.38.13-.6.19-.67.19-.19-.19-.32-.29-.38-.29-.13-.06-.29-.11-.48-.14-.19-.03-.35-.08-.48-.14-.06,0-.16-.06-.29-.19.25,0,.51-.02.76-.05.25-.03.51-.02.76.05.32,0,.54-.1.67-.29h.1Zm-1.91-.95l3.15-1.15c-.13.13-.27.27-.43.43-.16.16-.27.33-.33.53-.19.44-.45.67-.76.67s-.64.06-.96.19l-.19-.19c.06-.13.11-.21.14-.24.03-.03.08-.11.14-.24h-.76Zm5.44-26.15c.13-.06.3-.29.52-.67.22-.38.44-.81.67-1.29.22-.48.41-.94.57-1.38.16-.44.21-.76.14-.95-.19.32-.38.64-.57.95-.19.32-.41.64-.67.95-.25.32-.45.67-.57,1.05-.13.38-.13.83,0,1.34h-.1Zm.95-5.34c-.25.51-.16.83.29.95v-1.43l-.29.57v-.1Zm.67-.1l.57-2h-.29v.57c-.25.06-.48.41-.67,1.05.13.13.22.26.29.38h.1Zm4.39-4.01c.63-1.08,1.11-2.2,1.43-3.34.32-1.15.73-2.26,1.24-3.34h-.29l-2.58,6.87.19-.19Zm3.24-5.06l.57-.86h-.48c-.06.13-.1.27-.1.43s-.03.3-.1.43h.1Z"/>
      <path class="cls-1" d="m104.77,18.61l-.95.95c.13.06.25.1.38.1l-.29.29c-.19.38-.37.76-.52,1.15-.16.38-.37.73-.62,1.05-.13.19-.25.4-.38.62-.13.22-.19.49-.19.81.06-.25.16-.51.29-.76h.29c-.19.95-.37,1.93-.52,2.91-.16.99-.46,1.93-.91,2.82l-.29-.57v.86c-.06.38-.13.76-.19,1.15-.06.38-.13.76-.19,1.15,0,.25.02.49.05.72.03.22.05.49.05.81-.13-.13-.29-.22-.48-.29-.19-.06-.35-.16-.48-.29-.13-.13-.19-.3-.19-.53s-.03-.43-.1-.62v-.29c-.06.13-.08.27-.05.43.03.16-.08.3-.33.43-.06,0-.1.06-.1.19s.03.26.1.38c.13.25.25.49.38.72.13.22.25.46.38.72-.13.06-.24.14-.33.24-.1.1.01.27.33.53-.64,0-1.05-.13-1.24-.38-.06-.13-.16-.21-.29-.24s-.25-.11-.38-.24c-.38-.64-.59-1.32-.62-2.05-.03-.73-.05-1.48-.05-2.24v-2.1l-1.24,1.24c-.51.51-.97.99-1.38,1.43-.42.45-.88.89-1.38,1.34-.51.38-.99.76-1.43,1.15-.45.38-.99.67-1.62.86-.32.13-.57.32-.76.57-.32.32-.65.53-1,.62-.35.1-.69.21-1,.33l-.86.29c-.19.06-.54.1-1.05.1-.19.06-.38.13-.57.19-.19.06-.42.03-.67-.1l-2.29-.86v-.19c0-.06.02-.11.05-.14.03-.03.05-.08.05-.14-.13-.13-.29-.25-.48-.38-.19-.13-.42-.25-.67-.38.38-.13.6-.19.67-.19.32,0,.38-.16.19-.48-.06-.13-.13-.21-.19-.24-.06-.03-.13-.11-.19-.24-.13-.25-.27-.49-.43-.72-.16-.22-.24-.49-.24-.81,0-.7-.25-1.4-.76-2.1v.95c-.38-.25-.7-.44-.95-.57.44.76.54,1.4.29,1.91v-.38c-.13.7.16,1.11.86,1.24.44.06.83.32,1.15.76v.29c-.13-.06-.24-.1-.33-.1s-.17-.03-.24-.1c-.19-.38-.35-.41-.48-.1-.19-.13-.37-.25-.52-.38-.16-.13-.33-.25-.52-.38-.32-.13-.51-.32-.57-.57-.06-.25-.16-.54-.29-.86-.25-.76-.3-1.53-.14-2.29.16-.76.37-1.49.62-2.2.19-.57.4-1.13.62-1.67.22-.54.46-1.07.71-1.57.06-.13.14-.22.24-.29.1-.06.21-.16.33-.29.13-.13.21-.27.24-.43.03-.16.11-.3.24-.43.25-.44.49-.86.72-1.24.22-.38.46-.79.71-1.24.13-.13.21-.29.24-.48.03-.19.11-.38.24-.57l.29-.57-.57,1.72.86-1.72h.29c-.06.26-.11.49-.14.72-.03.22-.08.49-.14.81.13-.13.29-.22.48-.29-.32.57-.59,1.13-.81,1.67-.22.54-.46,1.07-.72,1.57.51-.57.97-1.15,1.38-1.72.41-.57.97-1.08,1.67-1.53-.06.19-.16.41-.29.67.32-.32.65-.62,1-.91.35-.29.71-.59,1.1-.91-.45.7-.86,1.38-1.24,2.05s-.76,1.35-1.15,2.05l2-3.15v.48c.19-.25.38-.48.57-.67.19-.19.38-.38.57-.57l.29.29c-.06.13-.1.22-.1.29s-.03.16-.1.29c-.38.51-.57.92-.57,1.24,0,.06-.07.16-.19.29l-2,3.44c-.45.7-.91,1.4-1.38,2.1-.48.7-1,1.4-1.57,2.1-.19.26-.33.53-.43.81s-.21.59-.33.91c0,.25.13.38.38.38.51-.13.98-.24,1.43-.33.44-.1.89-.21,1.34-.33.38-.13.75-.3,1.1-.53.35-.22.68-.43,1-.62l1.43-.86h.48v.29l1.72-1.72-.29.57c.25-.13.49-.32.71-.57.22-.25.33-.54.33-.86.13.13.22.26.29.38.13-.13.25-.32.38-.57.25-.13.48-.22.67-.29-.19.19-.32.35-.38.48-.06.06-.1.19-.1.38.06-.06.13-.11.19-.14.06-.03.13-.08.19-.14l2.01-2h-.29v-.29l-1.43,1.15c-.13.06-.25.22-.38.48h-.38c.06-.13.16-.25.29-.38.13-.13.21-.27.24-.43.03-.16.11-.3.24-.43.06-.06.11-.13.14-.19.03-.06.08-.13.14-.19.38-.44.77-.89,1.15-1.34.38-.44.79-.89,1.24-1.34.32-.32.67-.65,1.05-1,.38-.35.76-.68,1.15-1,.38-.38.67-.63.86-.76h.48c0,.25-.03.41-.1.48-.13.38-.23.7-.29.95.06-.06.13-.11.19-.14.06-.03.13-.08.19-.14.13-.19.21-.38.24-.57.03-.19.11-.38.24-.57l.29-.57c.25.13.48.26.67.38l.19-.1v.76c.32-.19.41-.38.29-.57l.19-.48.29.29v1.43c.19-.06.54-.16,1.05-.29v.48l.86-.86c.06.19.16.41.29.67.25,0,.48-.03.67-.1l.19,1.15Zm-18.9-1.53c-.19.32-.38.59-.57.81-.19.22-.38.46-.57.72h-.29l.86-2h.29c-.13.26-.22.48-.29.67.13-.06.21-.11.24-.14.03-.03.11-.08.24-.14l.1.1Zm4.68,12.79c.57-.25,1.02-.64,1.34-1.15-.76.13-1.4.45-1.91.95-.51.51-1.11.89-1.81,1.15l1.43-.86c-.19.13-.38.24-.57.33-.19.1-.38.21-.57.33-.32.13-.62.27-.91.43-.29.16-.59.33-.9.53-.19.13-.54.32-1.05.57v.29c.51,0,.86-.03,1.05-.1.32-.13.59-.24.81-.33.22-.1.49-.21.81-.33.13-.13.22-.19.29-.19.44.06.83-.13,1.14-.57.38-.38.7-.63.96-.76l-.1-.29Zm-2.86-.19c-.25.19-.48.37-.67.53-.19.16-.38.3-.57.43l1.72-.86-.57.29v-.38h.1Zm4.96-4.2v-.19c-.25.13-.45.26-.57.38-.25.19-.48.38-.67.57s-.38.38-.57.57l-1.15,1.43h.19l2.86-2.58-.1-.19Zm3.34.76c.32-.38.65-.73,1-1.05.35-.32.65-.73.9-1.24-.32.13-.71.48-1.19,1.05s-.72,1.02-.72,1.34v-.1Zm3.72,4.01h-.29l.29-2.58-.29,2.86.29-.29Zm.57-6.39h-.29c-.13.32-.21.65-.24,1-.03.35-.11.68-.24,1-.13.51-.06.89.19,1.14l.57-3.15Zm.29,4.1v-.86h-.29v1.14h.29v-.29Z"/>
      <path class="cls-1" d="m106.11,19.28l.1.19c.13.38.19.67.19.86,0,.06-.01.11-.05.14-.03.03-.05.08-.05.14-.13-.13-.22-.21-.29-.24-.06-.03-.13-.11-.19-.24-.06-.13-.08-.22-.05-.29.03-.06.05-.16.05-.29h.19l.1-.29Zm25.2-4.1c0,.13.06.32.19.57.13.32.06.51-.19.57-.38.13-.67.19-.86.19-.32-.06-.61-.13-.86-.19-.25-.06-.54-.1-.86-.1-.57,0-1.15.02-1.72.05-.57.03-1.15.05-1.72.05h-.29c.06.06.11.1.14.1.03,0,.08.03.14.1h-.1c-.32,0-.61-.01-.86-.05-.25-.03-.54-.05-.86-.05-.13,0-.32.06-.57.19-.06,0-.13.03-.19.1-.32-.13-.62-.14-.91-.05-.29.1-.59.21-.91.33-.38.13-.76.24-1.14.33-.38.1-.77.21-1.15.33.13-.13.25-.22.38-.29-.38-.13-.67-.1-.86.1-.13.13-.29.22-.48.29-.19.06-.38.16-.57.29l-2.86,1.43c-.26.13-.48.22-.67.29v-.57c-.32.19-.61.38-.86.57-.25.19-.51.38-.76.57-.19.13-.19.29,0,.48l3.44,2.29,2.86,1.72c.44.26.87.49,1.29.72.41.22.78.49,1.1.81.06.06.1.11.1.14,0,.03.03.08.1.14h-.38c.19.32.38.61.57.86.19.26.38.51.57.76.06-.06.13-.14.19-.24.06-.1.13-.14.19-.14.19.06.41.22.67.48.13.13.25.24.38.33.13.1.25.21.38.33.38.38.73.6,1.05.67.25.13.38.26.38.38v.48c-.38-.06-.57.1-.57.48,0,.51-.03.89-.1,1.15-.06.13-.14.26-.24.38-.1.13-.21.26-.33.38,0-.44.1-.87.29-1.29.19-.41.19-.87,0-1.38-.13-.06-.25,0-.38.19-.13.19-.32.1-.57-.29v.76l-.67.67.29.57c-.13.19-.25.4-.38.62-.13.22-.25.46-.38.72-.06.06-.13.11-.19.14s-.13.08-.19.14l-3.15,2.58v.1c0,.06-.02.1-.05.1-.03,0-.05.03-.05.1l.38-.19h.29c-.06.06-.1.11-.1.14,0,.03-.03.08-.1.14l-1.15.86h-.19c-.06,0-.1-.03-.1-.1-.25.26-.25.51,0,.76.13-.13.29-.21.48-.24.19-.03.35-.11.48-.24.13-.13.25-.27.38-.43.13-.16.25-.3.38-.43.06-.06.19-.1.38-.1-.26.32-.48.64-.67.95-.19.32-.51.54-.96.67-.06,0-.16.06-.29.19v.29h.95l-.19.19c-.38.13-.64.35-.76.67-.13.32-.35.57-.67.76-.38.25-.77.49-1.15.72-.38.22-.76.43-1.15.62-.45.19-.61.06-.48-.38.06-.13.13-.27.19-.43.06-.16.16-.37.29-.62-.32.19-.62.37-.91.53-.29.16-.59.3-.91.43.13-.25.22-.48.29-.67-.38.19-.75.37-1.1.53-.35.16-.68.3-1,.43l.86-.57c.06-.06.11-.13.14-.19.03-.06.08-.13.14-.19l-1.15.57-.29-.57h-.48c.13-.13.38-.32.76-.57v-.29c-.13,0-.29-.03-.48-.1.19-.06.41-.16.67-.29h-1.24l.19-.19c.25-.19.48-.4.67-.62.19-.22.32-.49.38-.81.06-.32.21-.57.43-.76.22-.19.46-.35.71-.48.51-.32,1.02-.63,1.53-.95.51-.32,1.02-.63,1.53-.95.44-.25.84-.54,1.19-.86.35-.32.71-.63,1.1-.95.76-.57,1.49-1.21,2.19-1.91.25-.25.49-.51.72-.76.22-.25.3-.6.24-1.05-.25-.13-.45-.19-.57-.19-.7-.13-1.34-.33-1.91-.62s-1.15-.59-1.72-.91c-.32-.19-.67-.37-1.05-.53-.38-.16-.73-.37-1.05-.62-.45-.32-.88-.63-1.29-.95-.41-.32-.84-.63-1.29-.95-.13-.13-.22-.27-.29-.43-.06-.16-.16-.3-.29-.43l-.57-.86c.13-.13.16-.27.1-.43-.06-.16-.16-.3-.29-.43v.57c-.19-.38-.38-.76-.57-1.15-.19-.38-.38-.79-.57-1.24h.19l-.29-.57c-.51-.51-.61-.99-.29-1.43.63-.83,1.34-1.62,2.1-2.39.51-.51.89-.86,1.14-1.05.32-.19.62-.35.91-.48.29-.13.59-.29.91-.48.19-.13.41-.24.67-.33s.51-.21.77-.33c.83-.44,1.67-.8,2.53-1.05.86-.25,1.73-.48,2.63-.67.38-.13.76-.22,1.15-.29.38-.06.79-.13,1.24-.19,1.08-.13,2.13-.21,3.15-.24,1.02-.03,2.07-.01,3.15.05.19,0,.37.05.52.14.16.1.33.18.52.24.19.06.54.16,1.05.29.13.06.24.1.33.1s.14.1.14.29c0,.06.03.1.1.1h.19c.19,0,.32.03.38.1v.38c.38.26.7.45.95.57-.25.32-.49.38-.71.19-.23-.19-.5-.22-.81-.1.19.13.37.24.52.33.16.1.37.21.62.33h-.48c.13.13.24.25.33.38.1.13.21.29.33.48-.64-.06-1.24-.11-1.81-.14-.57-.03-1.15-.08-1.72-.14v.29c.25.13.44.19.57.19.38.06.76.1,1.15.1s.76.03,1.15.1c.51,0,.73.25.67.76l-1.91-.38Zm-21.95,4.2v.95c-.38-.44-.42-.76-.1-.95h.1Zm4.01,19.37c.19-.13.38-.29.57-.48.19-.19.38-.35.57-.48-.19,0-.32.03-.38.1-.32.19-.62.38-.91.57-.29.19-.59.38-.91.57-.13.06-.24.11-.33.14-.1.03-.21.08-.33.14-.64,0-1.11.35-1.43,1.05.13-.06.22-.1.29-.1s.16-.03.29-.1c.25-.13.57-.32.96-.57.32-.13.6-.27.86-.43.25-.16.51-.33.76-.52v.1Zm-1.53-15.08l-.29.29-1.14-.86.29-.29,1.15.86Zm-.38,13.84c.51.13.89.03,1.15-.29l.86-.86-1.15.29-.86.86Zm1.81-14.89c-.51-.25-.92-.44-1.24-.57.13.38.29.6.48.67.19.06.44.06.76,0v-.1Zm.1,12.88l-1.14.57c-.13-.13-.08-.27.14-.43.22-.16.49-.21.81-.14h.19Zm4.58,1.43c0,.19-.05.27-.14.24-.1-.03-.21-.02-.33.05.19-.32.32-.51.38-.57.25-.13.51-.27.76-.43.25-.16.54-.33.86-.53l-.67.67-.29.29c-.13.26-.26.32-.38.19h-.1l-.1.1Zm0-11.64c-.13.26-.08.51.14.76.22.26.43.35.62.29l.1-.1c0-.06.03-.13.1-.19l-.86-.86-.1.1Zm1.24,2l-1.15-.57,1.15.57v.29-.29Zm1.24-13.27l3.72-.29-.57-.29h-.29c-.25.13-.41.19-.48.19l-2,.29-.38.1Zm11.16-.38h-.95c.25.13.46.22.62.29.16.06.33.16.53.29.13-.38.03-.6-.29-.67l.1.1Z"/>
    </g>
  </g>
</svg>