<?xml version="1.0" encoding="UTF-8"?>
<svg id="Layer_2" data-name="Layer 2" xmlns="http://www.w3.org/2000/svg" viewBox="0 0 67.09 33.57">
  <defs>
    <style>
      .cls-1 {
        stroke-width: 0px;
      }
    </style>
  </defs>
  <g id="Layer_1-2" data-name="Layer 1">
    <g>
      <path class="cls-1" d="m.09,29.86c.1.03.14.07.14.12v.17l-.14,1.44c-.1-.29-.11-.58-.05-.86s.08-.58.05-.86Zm.53-1.73l-.43,1.58c-.13-.16-.18-.26-.17-.29.02-.03.07-.13.17-.29.06-.13.11-.26.14-.38.03-.13.08-.27.14-.43l.14-.29v.1ZM15.11,9.41v.77c0,.13-.02.25-.05.36-.03.11-.05.23-.05.36-.03.38-.09.76-.17,1.13-.08.37-.18.73-.31,1.08-.06.19-.13.38-.19.58-.06.19-.13.38-.19.58-.06.16-.12.33-.17.5-.05.18-.1.34-.17.5-.06.13-.1.25-.12.36-.02.11-.06.23-.12.36-.16.48-.35.96-.58,1.44v-.29c-.13.35-.25.71-.36,1.08-.11.37-.25.76-.41,1.18l.19-.19c-.1.22-.19.44-.29.65-.1.21-.21.44-.34.7h.19l-.14.58v-.19c-.03.06-.06.1-.07.12-.02.02-.04.06-.07.12l-.58,1.58-.58,1.44c-.13.32-.21.56-.24.72-.03.06-.05.18-.05.34,0,.13-.02.21-.05.24-.16.1-.26.22-.29.36-.03.14-.08.3-.14.46-.06.22-.14.44-.24.65-.1.21-.19.42-.29.65-.22.48-.44.96-.65,1.44-.21.48-.44.94-.7,1.39-.06.16-.15.3-.26.41-.11.11-.22.23-.31.36,0,.03,0,.06.02.1.02.03.02.06.02.1-.1.19-.22.37-.38.53-.26.26-.53.46-.82.6s-.59.28-.91.41c-.13.06-.25.13-.36.19-.11.06-.23.13-.36.19-.22.06-.45.13-.67.19-.22.06-.46.08-.72.05-.22-.03-.43-.07-.62-.12-.19-.05-.4-.06-.62-.02-.06,0-.16-.06-.29-.19l.43.14-.14-.14c-.16-.03-.3-.08-.41-.14-.11-.06-.23-.13-.36-.19-.16-.06-.26-.16-.31-.29-.05-.13-.14-.22-.26-.29-.19-.13-.24-.29-.14-.48,0-.03,0-.06-.02-.1-.02-.03-.02-.06-.02-.1-.06-.13-.1-.22-.1-.29l.14-1.15c.03-.16.05-.34.05-.53s.03-.37.1-.53c.13-.61.32-1.23.58-1.87.06-.16.14-.31.22-.46.08-.14.15-.3.22-.46-.06.13-.1.25-.12.36-.02.11-.06.23-.12.36-.19.35-.33.73-.41,1.13-.08.4-.17.79-.26,1.18l-.14.72c-.06.22-.07.44-.02.65.05.21.1.42.17.65v.14c.06.19.11.35.14.48-.1.03-.14-.06-.14-.29-.03.16-.03.26,0,.29.03.03.18.11.43.24-.03-.19-.05-.38-.05-.58s-.02-.38-.05-.58c-.06-.29-.09-.58-.07-.89.02-.3.09-.58.22-.84.06-.16.12-.34.17-.53s.12-.37.22-.53c.1-.16.18-.34.24-.53.06-.19.13-.37.19-.53,0-.03.03-.08.1-.14l.29-.14c0,.06-.03.19-.1.38l1.01-1.3c.06.45,0,.85-.19,1.2-.19.35-.35.72-.48,1.1-.06.26-.14.49-.24.7-.1.21-.18.44-.24.7-.06.22-.1.45-.12.67-.02.22-.04.45-.07.67,0,.06,0,.12.02.17.02.05.02.1.02.17.13.03.23.06.31.1.08.03.1.13.07.29,0,.22.08.29.24.19.26-.13.43-.24.53-.34.32-.26.63-.52.94-.79.3-.27.58-.58.84-.94.22-.32.44-.63.65-.94.21-.3.39-.63.55-.98.51-.93.94-1.81,1.3-2.64.19-.42.38-.83.55-1.25.18-.42.34-.85.5-1.3.16-.35.3-.69.43-1.01.13-.32.26-.66.38-1.01l1.44-3.89c.03-.06.05-.16.05-.29.03-.06.06-.14.1-.22.03-.08.06-.15.1-.22.06-.13.12-.25.17-.36.05-.11.15-.2.31-.26-.06-.03-.13-.08-.19-.14l.29-.29c-.06-.03-.12-.04-.17-.02-.05.02-.2.1-.46.26l-.58.29v-.14l.58-.43c.06-.06.12-.1.17-.1s.1-.03.17-.1c.16-.06.26-.14.29-.24.22-.64.44-1.26.65-1.87.21-.61.41-1.23.6-1.87.1-.32.18-.64.24-.96.06-.32.13-.66.19-1.01.03-.06.06-.13.07-.19.02-.06.07-.08.17-.05.16.06.22.16.19.29-.03.06-.05.16-.05.29h.14v-.14c.19-.06.35-.11.48-.14l-.14,1.01s0,.06.02.07c.02.02.02.04.02.07h.14v-.43c0,.06.02.13.05.19.06-.1.08-.21.05-.34-.03-.13.02-.22.14-.29l.14.29c.19-.13.22-.29.1-.48-.03-.06-.05-.19-.05-.38l.43.86.14-.14-.14-.05ZM.9,26.93c.03.16.02.28-.05.36-.06.08-.13.17-.19.26-.1-.19,0-.38.29-.58l-.05-.05Zm1.78,5.95c.22.06.46.06.7-.02.24-.08.38-.18.41-.31l-1.15.29.05.05Zm.86-7.49l-.43.58h-.14l.43-.58h.14Zm.72.24h-.14l1.15-2.74c.06,0,.11-.02.14-.05-.06.26-.13.43-.19.53-.1.13-.06.19.1.19-.06.42-.22.77-.46,1.06-.24.29-.44.61-.6.96v.05Zm2.4-5.14c.06,0,.13-.02.19-.05-.64.77-1.17,1.58-1.58,2.45,0-.03,0-.06-.02-.07-.02-.02-.02-.04-.02-.07.06-.13.11-.24.14-.34h-.19v-.1l.86-1.15c.26-.35.5-.69.74-1.01.24-.32.49-.64.74-.96.19-.26.39-.49.6-.7.21-.21.42-.44.65-.7.06-.06.13-.16.19-.29.06.06.08.11.05.14-.03.03-.06.06-.1.1-.22.22-.35.46-.38.72.13-.1.29-.21.48-.34.06-.06.13-.14.19-.24.06-.1.13-.18.19-.24.13-.16.25-.31.36-.46.11-.14.25-.3.41-.46.06-.06.15-.11.26-.14.11-.03.22-.08.31-.14v.14c-.1.13-.2.24-.31.34-.11.1-.22.21-.31.34-.06.06-.1.14-.12.22-.02.08-.06.15-.12.22-.03.06-.06.1-.1.12-.03.02-.06.06-.1.12l-.14.29c-.13.19-.28.34-.46.46-.18.11-.34.23-.5.36v-.29c-.13.06-.22.13-.29.19-.06.06-.1.14-.1.24,0,.03.03.08.1.14-.16.38-.4.64-.72.77.06-.16.14-.31.22-.46s.17-.3.26-.46l-.29.1-1.01,1.15v.05h-.1Zm.1,1.3h.14l-.43.43.29-.43Zm.48-.96l.29-.43.14.14-.29.43-.14-.14Zm2.26-3.89c0,.22-.1.38-.29.48-.06.03-.16.11-.29.24v-.1c.06-.1.14-.19.24-.29.1-.1.19-.21.29-.34h.05Zm.62.62c.1-.1.19-.19.29-.29.1-.1.22-.18.38-.24l-.58.58v-.14l-.1.1Zm6.62-12.86c-.06,0-.1.03-.1.1v.19c0,.06-.02.11-.07.14-.05.03-.14.02-.26-.05l-.14.29h-.14v-.29s0-.06-.02-.07c-.02-.02-.02-.04-.02-.07l-.14.14v.82c-.1.06-.27.22-.53.48h-.14c-.03-.06-.05-.14-.05-.22s-.02-.15-.05-.22c-.03-.06-.11-.16-.24-.29h-.14l.14.29-.38.38h.19l-.43.43h-.14l.29-.43c-.16.06-.31.11-.46.14-.14.03-.3.08-.46.14.03-.13.02-.24-.02-.34-.05-.1-.02-.19.07-.29,0-.03-.02-.06-.05-.1-.06-.06-.1-.11-.1-.14-.13.06-.24.11-.34.14.03-.1.05-.18.05-.24-.06-.03-.13-.08-.19-.14l.14-.14c.03-.06.06-.11.1-.14.03-.03.06-.08.1-.14,0-.03,0-.06-.02-.1-.02-.03-.02-.06-.02-.1l-.14.14c-.06.06-.1.14-.12.22-.02.08-.06.15-.12.22-.03.03-.06.06-.1.07-.03.02-.06.04-.1.07l-.14-.14c-.06-.06-.11-.13-.14-.19l.14-.14c-.06-.06-.12-.14-.17-.22-.05-.08-.07-.15-.07-.22-.06-.54.18-.9.72-1.06.06,0,.1-.05.1-.14.03-.35.22-.67.58-.96.06-.06.14-.09.24-.07.1.02.19,0,.29-.02.06.13.11.24.14.34.06-.06.11-.12.14-.17.03-.05.06-.1.1-.17h.43l-.19.29c.22-.1.42-.16.58-.19l.14.72.1-.1c0,.26.11.38.34.38-.06.22-.02.37.14.43v.34c.06.06.13.11.19.14l.53.24Zm-4.27,10.85l.29-.58c-.19.06-.27.15-.24.26.03.11.03.22,0,.31h-.05Zm1.15-.67l-.29.72h.14l.14-.72Zm-.1,0l.29-.43c-.06-.03-.1-.05-.12-.05-.02,0-.06-.02-.12-.05v.48l-.05.05Zm.58-2.3l.29-1.87-.29.72v-.43h-.14l-.29,2.3h.14l.14-.43c.06-.19.11-.35.14-.48v.19h.14-.14Z"/>
      <path class="cls-1" d="m33.01,15.7c-.1.22-.21.45-.34.67l-.1-.38c-.03-.06-.14-.13-.34-.19-.1.06-.27.16-.53.29-.06,0-.16.03-.29.1-.13.06-.22.13-.29.19s-.11.1-.14.1c-.1.03-.19.06-.29.07-.1.02-.18.09-.24.22l-.24.1v-.48c0-.1-.06-.18-.19-.24-.16-.06-.32-.14-.48-.22-.16-.08-.32-.17-.48-.26-.03,0-.11-.11-.24-.34-.03.06-.06.11-.07.14-.02.03-.06.08-.12.14l-.14-.14c-.19.16-.37.02-.53-.43h-.14c-.06-.19-.1-.37-.1-.53,0-.06,0-.14.02-.22.02-.08.02-.15.02-.22,0-.16-.08-.21-.24-.14l-.72.43c-.26.16-.5.31-.72.46-.22.14-.46.3-.72.46-.19.13-.38.24-.58.34l-.58.29c-.22.13-.44.25-.65.36-.21.11-.44.22-.7.31-.35.16-.71.3-1.08.41-.37.11-.73.23-1.08.36-.13.06-.25.12-.36.17-.11.05-.23.09-.36.12-.22.03-.44.05-.65.05s-.42.02-.65.05c-.16,0-.22-.06-.19-.19,0-.06-.03-.1-.1-.1-.06-.03-.12-.06-.17-.1-.05-.03-.1-.05-.17-.05-.22-.03-.39-.12-.5-.26s-.25-.28-.41-.41c-.1-.06-.18-.14-.24-.22-.06-.08-.18-.09-.34-.02-.06.03-.14.02-.24-.05-.1-.06-.19-.13-.29-.19.03-.06.06-.13.07-.19.02-.06.04-.13.07-.19.06.06.12.13.17.19.05.06.1.13.17.19l.05-.05s.05-.06.05-.07c0-.02.02-.04.05-.07h-.29v-.19c.06-.16.08-.26.05-.31s-.13-.1-.29-.17c-.13-.06-.16-.18-.1-.34.06-.26.14-.5.24-.72.1-.22.19-.46.29-.72.16-.35.38-.66.65-.94.27-.27.54-.55.79-.84.42-.48.87-.91,1.37-1.3.5-.38,1.02-.74,1.56-1.06.51-.29,1.01-.53,1.49-.72.26-.1.52-.18.79-.24.27-.06.55-.06.84,0,.1.03.2.03.31,0,.11-.03.23-.05.36-.05-.06.06-.13.11-.19.14.13.03.24.06.34.1.1.03.19.05.29.05.16.03.3.05.43.05h.43c.13,0,.2.04.22.12.02.08.04.15.07.22,0,.03-.03.08-.1.14l-.1-.05c-.13-.06-.22-.1-.29-.1l.43.29c-.22.03-.44.06-.65.07-.21.02-.44.04-.7.07.26.06.5.12.72.17.22.05.45.1.67.17v.14h-.34c0,.13.07.18.22.14.14-.03.18.05.12.24.06-.03.13-.05.19-.05-.03.16-.08.25-.14.26-.06.02-.24,0-.53-.07l.29-.14v-.14l-.14.14c-.16.06-.3.13-.43.19-.13.06-.27.06-.43,0h-.14c-.29.16-.58.3-.86.43-.29.13-.56.27-.82.43l-.58.29-1.01.58c-.06,0-.1.03-.1.1-.03.16-.1.26-.22.29-.11.03-.23.08-.36.14-.06.06-.14.12-.22.17-.08.05-.15.1-.22.17-.06.06-.12.1-.17.12-.05.02-.1.06-.17.12-.1.1-.18.2-.26.31-.08.11-.15.23-.22.36l-.14.14c-.06.06-.11.13-.14.19-.03.06-.08.13-.14.19-.06.06-.1.13-.12.19-.02.06-.06.13-.12.19l.86-.29c.06-.03.14-.07.24-.12.1-.05.18-.07.24-.07.19.03.36,0,.5-.1.14-.1.3-.18.46-.24.35-.19.69-.39,1.01-.6.32-.21.66-.41,1.01-.6.16-.06.3-.13.43-.19.13-.06.27-.13.43-.19l.58-.29c.13-.06.25-.14.36-.24.11-.1.23-.18.36-.24.16-.1.3-.19.43-.29.13-.1.27-.18.43-.24.1-.06.27-.1.53-.1l.19.19c.1.03.18,0,.26-.07.08-.08.17-.15.26-.22v-.19c.19-.06.37-.1.53-.1.29,0,.43.18.43.53,0,.13.02.22.05.29v-.29h.29v.43-.14c0,.06.02.13.05.19.06-.06.1-.12.1-.17s-.03-.17-.1-.36c0-.16.08-.26.24-.29.06,0,.1-.02.12-.07.02-.05.04-.09.07-.12l.67.67c.13.06.19.14.19.24.03.13.05.26.05.38s-.08.24-.24.34c-.1.1-.1.18,0,.24.1.16.13.33.1.5-.03.18-.08.34-.14.5-.03.1-.11.21-.24.34-.06.13-.11.25-.14.36-.03.11-.08.25-.14.41h.58v.19c.16-.06.33-.11.5-.14.18-.03.36-.08.55-.14-.03.06-.06.11-.07.14-.02.03-.04.08-.07.14.29.03.43.21.43.53-.16.06-.3.13-.43.19-.13.06-.26.08-.38.05-.16-.03-.33-.05-.5-.05s-.34-.03-.5-.1c-.32-.1-.58-.29-.77-.58,0,.13.02.21.05.24.13.22.27.42.43.58.16.16.38.24.67.24.19,0,.38.02.58.05.19.03.38.03.58,0,.16-.03.3-.07.43-.12.13-.05.27-.1.43-.17.1,0,.16-.02.19-.05l.29-.14c.13-.06.22-.1.29-.1.1,0,.14.06.14.19Zm-16.22-.29c-.06.16.02.26.24.29-.03-.1-.08-.21-.14-.34-.1,0-.14.02-.14.05h.05Zm5.09-3.94c-.29.19-.57.38-.84.58s-.5.43-.7.72l1.58-1.3h-.05Zm-.14,3.46c.26-.16.52-.31.79-.46.27-.14.55-.3.84-.46-.35.06-.64.18-.86.34-.22.16-.46.32-.72.48l-.05.1Zm1.54-1.2l1.01-.58v-.14c-.16.13-.33.23-.5.31-.18.08-.33.2-.46.36v.14l-.05-.1Zm2.21-.48c.22.19.43.16.62-.1-.26.06-.46.11-.62.14v-.05Zm.82-3.74l-.43-.14c.06,0,.14,0,.22.02.08.02.15.02.22.02v.14-.05Zm2.74,6.43h.14l.14.29-.14.14c-.13-.06-.21-.13-.24-.19,0-.03,0-.06.02-.1.02-.03.02-.06.02-.1l.05-.05Zm.86-1.01l-.43.14v.14l.86.14c-.1-.06-.21-.09-.34-.07-.13.02-.19-.09-.19-.31l.1-.05Zm.29-3.74l-.29-.58h.14l.29.43-.14.14Zm1.44,5.47c.06-.19.13-.34.19-.43.19.19.21.34.05.43h-.24Zm1.49-.29v.14l-.43.29v-.14l.43-.29Zm.1-1.15h.1v.29h-.14v-.29h.05Z"/>
      <path class="cls-1" d="m42.76.91c.19.26.14.72-.14,1.39l-.14.58-.86,2.3c-.16.38-.32.77-.48,1.15-.16.38-.32.77-.48,1.15l-.14.43c-.03.06-.06.13-.07.19-.02.06-.07.06-.17,0l-.05.05c-.06.16-.13.3-.19.41-.06.11-.13.25-.19.41-.06.16-.1.3-.12.43-.02.13-.06.27-.12.43-.06.19-.13.34-.19.43-.13.26-.25.49-.36.7-.11.21-.23.44-.36.7-.06.16-.13.3-.19.43-.06.13-.13.27-.19.43-.06.16-.15.3-.26.43-.11.13-.15.29-.12.48,0-.06-.02-.13-.05-.19-.13.22-.25.42-.36.6-.11.18-.22.36-.31.55-.16.29-.3.58-.41.86s-.23.58-.36.86l-.86,2.16-.86,2.45c-.06.16-.13.3-.19.41-.06.11-.13.23-.19.36-.03.03-.1.05-.19.05,0-.03,0-.06-.02-.07-.02-.02-.02-.04-.02-.07.06-.13.06-.21,0-.24-.06-.03-.14-.06-.24-.1,0-.19.04-.38.12-.55.08-.18.06-.38-.07-.6l-.29,1.15v.14c-.16.22-.16.42,0,.58-.32.1-.37.18-.14.24h.29c-.06.06-.11.13-.14.19h.38v-.1l.58-.43c.16.06.23.15.22.26-.02.11,0,.22.02.31.03.19.13.27.29.24.19-.06.34-.1.43-.1-.16.06-.31.11-.46.14-.14.03-.3,0-.46-.1-.1-.06-.2-.09-.31-.07-.11.02-.22,0-.31-.02-.16-.06-.3-.12-.43-.17-.13-.05-.26-.1-.38-.17-.06-.03-.1-.08-.12-.14-.02-.06-.02-.13-.02-.19.03-.16.06-.33.1-.5.03-.18.08-.34.14-.5.06-.19.1-.35.1-.48-.06.19-.11.35-.14.48v-.53l-.14.29-.14-.14c-.06.29-.11.58-.14.86-.03.29-.08.56-.14.82-.1-.06-.14-.11-.14-.14s.02-.13.05-.29.04-.31.02-.46c-.02-.14-.09-.3-.22-.46-.03.13-.08.29-.14.48l-.14.43c-.06.29-.02.54.12.77.14.22.31.42.5.58.16.16.33.29.5.38.18.1.36.19.55.29.1.06.2.1.31.1s.23.03.36.1h-.14c.06.03.13.08.19.14l-.29.14v.1c-.16,0-.3,0-.43-.02-.13-.02-.24-.1-.34-.26,0,.03-.05,0-.14-.1-.06-.03-.13-.08-.19-.14-.06-.06-.11-.12-.14-.17-.03-.05-.08-.1-.14-.17h-.14c-.1-.1-.18-.19-.26-.29s-.17-.19-.26-.29c-.06.13-.13.24-.19.34-.06-.13-.16-.29-.29-.48-.19-.42-.25-.83-.19-1.25.06-.42.14-.83.24-1.25.1-.45.21-.88.34-1.3.13-.42.27-.83.43-1.25.26-.7.54-1.39.84-2.06.3-.67.6-1.36.89-2.06l.86-1.87,1.15-2.3c.26-.54.5-1.07.74-1.58.24-.51.49-1.04.74-1.58.26-.54.49-1.09.7-1.63.21-.54.44-1.09.7-1.63.13-.26.25-.52.36-.79.11-.27.23-.55.36-.84.03.1.08.21.14.34l.58-1.3c0,.06,0,.11-.02.14-.02.03-.02.08-.02.14s.03.16.1.29c.03-.03.06-.06.1-.07.03-.02.06-.04.1-.07.06-.06.11-.14.14-.24.03-.1.08-.18.14-.24.06.06.13.18.19.36.06.18.08.33.05.46l-.43,1.58c-.03.13-.06.24-.1.34-.03.1-.08.21-.14.34l-.14.58c-.16,0-.27.08-.34.24l-.43,1.44-.14.43c.1-.16.19-.3.29-.43.1-.13.18-.27.24-.43.06-.03.12-.05.17-.05s.09-.02.12-.05c.1-.19.19-.38.29-.58s.18-.38.24-.58c.06-.1.1-.2.12-.31.02-.11.04-.22.07-.31-.06-.03-.13-.05-.19-.05-.06.06-.1.14-.12.24-.02.1-.06.18-.12.24-.03.03-.06.06-.1.07-.03.02-.06.04-.1.07l.29-.86v.14c.16-.38.31-.78.46-1.18.14-.4.18-.82.12-1.27.06.1.14.19.22.29.08.1.17.21.26.34.03-.22.06-.43.07-.62.02-.19.04-.38.07-.58.16.06.22.16.19.29-.03.13-.03.24,0,.34.03.13.05.25.05.36s.02.25.05.41c.06-.13.13-.29.19-.48h.34Zm-9.17,21.79c-.16,0-.32-.11-.48-.34.26.1.51.18.77.26.26.08.51.17.77.26-.06.03-.11.06-.14.1-.03.03-.06.05-.1.05-.1-.06-.2-.09-.31-.07-.11.02-.2-.06-.26-.22,0-.06-.05-.1-.14-.1l-.1.05Zm.48-4.61c.1-.26.2-.52.31-.79.11-.27.22-.54.31-.79h-.14c-.06.13-.12.25-.17.36-.05.11-.1.23-.17.36-.06.13-.11.24-.14.34-.03.1-.06.2-.07.31-.02.11-.04.22-.07.31h.14v-.1Zm1.92,5.23c.1-.16.18-.16.24,0,.06.16.09.26.07.29-.02.03-.12.08-.31.14-.19.06-.3.1-.34.1-.1-.1-.16-.14-.19-.14-.06-.03-.14-.06-.24-.07-.1-.02-.18-.04-.24-.07-.03,0-.08-.03-.14-.1.13,0,.26,0,.38-.02.13-.02.26,0,.38.02.16,0,.27-.05.34-.14h.05Zm-.96-.48l1.58-.58c-.06.06-.14.14-.22.22-.08.08-.14.17-.17.26-.1.22-.22.34-.38.34s-.32.03-.48.1l-.1-.1c.03-.06.06-.1.07-.12.02-.02.04-.06.07-.12h-.38Zm2.74-13.15c.06-.03.15-.14.26-.34.11-.19.22-.41.34-.65.11-.24.21-.47.29-.7.08-.22.1-.38.07-.48-.1.16-.19.32-.29.48-.1.16-.21.32-.34.48-.13.16-.22.34-.29.53-.06.19-.06.42,0,.67h-.05Zm.48-2.69c-.13.26-.08.42.14.48v-.72l-.14.29v-.05Zm.34-.05l.29-1.01h-.14v.29c-.13.03-.24.21-.34.53.06.06.11.13.14.19h.05Zm2.21-2.02c.32-.54.56-1.1.72-1.68.16-.58.37-1.14.62-1.68h-.14l-1.3,3.46.1-.1Zm1.63-2.54l.29-.43h-.24c-.03.06-.05.14-.05.22s-.02.15-.05.22h.05Z"/>
      <path class="cls-1" d="m52.69,9.36l-.48.48c.06.03.13.05.19.05l-.14.14c-.1.19-.18.38-.26.58-.08.19-.18.37-.31.53-.06.1-.13.2-.19.31-.06.11-.1.25-.1.41.03-.13.08-.26.14-.38h.14c-.1.48-.18.97-.26,1.46-.08.5-.23.97-.46,1.42l-.14-.29v.43c-.03.19-.06.38-.1.58-.03.19-.06.38-.1.58,0,.13,0,.25.02.36.02.11.02.25.02.41-.06-.06-.14-.11-.24-.14-.1-.03-.18-.08-.24-.14-.07-.06-.1-.15-.1-.26s-.02-.22-.05-.31v-.14c-.03.06-.04.14-.02.22.02.08-.04.15-.17.22-.03,0-.05.03-.05.1s.02.13.05.19c.06.13.13.25.19.36.06.11.13.23.19.36-.06.03-.12.07-.17.12-.05.05,0,.14.17.26-.32,0-.53-.06-.62-.19-.03-.06-.08-.1-.14-.12s-.13-.06-.19-.12c-.19-.32-.3-.66-.31-1.03-.02-.37-.02-.74-.02-1.13v-1.06l-.62.62c-.26.26-.49.5-.7.72-.21.22-.44.45-.7.67-.26.19-.5.38-.72.58-.22.19-.5.34-.82.43-.16.06-.29.16-.38.29-.16.16-.33.26-.5.31-.18.05-.34.1-.5.17l-.43.14c-.1.03-.27.05-.53.05-.1.03-.19.06-.29.1-.1.03-.21.02-.34-.05l-1.15-.43v-.1s0-.06.02-.07c.02-.02.02-.04.02-.07-.06-.06-.14-.13-.24-.19-.1-.06-.21-.13-.34-.19.19-.06.3-.1.34-.1.16,0,.19-.08.1-.24-.03-.06-.06-.1-.1-.12-.03-.02-.06-.06-.1-.12-.06-.13-.14-.25-.22-.36-.08-.11-.12-.25-.12-.41,0-.35-.13-.7-.38-1.06v.48c-.19-.13-.35-.22-.48-.29.22.38.27.7.14.96v-.19c-.06.35.08.56.43.62.22.03.42.16.58.38v.14c-.06-.03-.12-.05-.17-.05s-.09-.02-.12-.05c-.1-.19-.18-.21-.24-.05-.1-.06-.18-.13-.26-.19-.08-.06-.17-.13-.26-.19-.16-.06-.26-.16-.29-.29-.03-.13-.08-.27-.14-.43-.13-.38-.15-.77-.07-1.15.08-.38.18-.75.31-1.1.1-.29.2-.57.31-.84.11-.27.23-.54.36-.79.03-.06.07-.11.12-.14.05-.03.1-.08.17-.14.06-.06.1-.14.12-.22.02-.08.06-.15.12-.22.13-.22.25-.43.36-.62.11-.19.23-.4.36-.62.06-.06.1-.14.12-.24.02-.1.06-.19.12-.29l.14-.29-.29.86.43-.86h.14c-.03.13-.06.25-.07.36-.02.11-.04.25-.07.41.06-.06.14-.11.24-.14-.16.29-.3.57-.41.84-.11.27-.23.54-.36.79.26-.29.49-.58.7-.86.21-.29.49-.54.84-.77-.03.1-.08.21-.14.34.16-.16.33-.31.5-.46.18-.14.36-.3.55-.46-.22.35-.43.7-.62,1.03s-.38.68-.58,1.03l1.01-1.58v.24c.1-.13.19-.24.29-.34.1-.1.19-.19.29-.29l.14.14c-.03.06-.05.11-.05.14s-.02.08-.05.14c-.19.26-.29.46-.29.62,0,.03-.03.08-.1.14l-1.01,1.73c-.22.35-.46.7-.7,1.06-.24.35-.5.7-.79,1.06-.1.13-.17.26-.22.41s-.1.3-.17.46c0,.13.06.19.19.19.26-.06.5-.12.72-.17.22-.05.45-.1.67-.17.19-.06.38-.15.55-.26.18-.11.34-.22.5-.31l.72-.43h.24v.14l.86-.86-.14.29c.13-.06.25-.16.36-.29.11-.13.17-.27.17-.43.06.06.11.13.14.19.06-.06.13-.16.19-.29.13-.06.24-.11.34-.14-.1.1-.16.18-.19.24-.03.03-.05.1-.05.19.03-.03.06-.06.1-.07.03-.02.06-.04.1-.07l1.01-1.01h-.14v-.14l-.72.58c-.06.03-.13.11-.19.24h-.19c.03-.06.08-.13.14-.19.06-.06.1-.14.12-.22.02-.08.06-.15.12-.22.03-.03.06-.06.07-.1.02-.03.04-.06.07-.1.19-.22.38-.45.58-.67.19-.22.4-.45.62-.67.16-.16.34-.33.53-.5.19-.18.38-.34.58-.5.19-.19.34-.32.43-.38h.24c0,.13-.02.21-.05.24-.06.19-.11.35-.14.48.03-.03.06-.06.1-.07.03-.02.06-.04.1-.07.06-.1.1-.19.12-.29.02-.1.05-.19.12-.29l.14-.29c.13.06.24.13.34.19l.1-.05v.38c.16-.1.21-.19.14-.29l.1-.24.14.14v.72c.1-.03.27-.08.53-.14v.24l.43-.43c.03.1.08.21.14.34.13,0,.24-.02.34-.05l.1.58Zm-9.5-.77c-.1.16-.19.3-.29.41-.1.11-.19.23-.29.36h-.14l.43-1.01h.14c-.06.13-.11.24-.14.34.06-.03.1-.06.12-.07.02-.02.06-.04.12-.07l.05.05Zm2.35,6.43c.29-.13.51-.32.67-.58-.38.06-.7.22-.96.48-.26.26-.56.45-.91.58l.72-.43c-.1.06-.19.12-.29.17-.1.05-.19.1-.29.17-.16.06-.31.14-.46.22-.14.08-.3.17-.46.26-.1.06-.27.16-.53.29v.14c.26,0,.43-.02.53-.05.16-.06.29-.12.41-.17.11-.05.25-.1.41-.17.06-.06.11-.1.14-.1.22.03.42-.06.58-.29.19-.19.35-.32.48-.38l-.05-.14Zm-1.44-.1c-.13.1-.24.18-.34.26-.1.08-.19.15-.29.22l.86-.43-.29.14v-.19h.05Zm2.5-2.11v-.1c-.13.06-.22.13-.29.19-.13.1-.24.19-.34.29s-.19.19-.29.29l-.58.72h.1l1.44-1.3-.05-.1Zm1.68.38c.16-.19.33-.37.5-.53.17-.16.33-.37.46-.62-.16.06-.36.24-.6.53s-.36.51-.36.67v-.05Zm1.87,2.02h-.14l.14-1.3-.14,1.44.14-.14Zm.29-3.22h-.14c-.06.16-.1.33-.12.5-.02.18-.06.34-.12.5-.06.26-.03.45.1.58l.29-1.58Zm.14,2.06v-.43h-.14v.58h.14v-.14Z"/>
      <path class="cls-1" d="m53.37,9.7l.05.1c.06.19.1.34.1.43,0,.03,0,.06-.02.07-.02.02-.02.04-.02.07-.06-.06-.11-.1-.14-.12-.03-.02-.06-.06-.1-.12-.03-.06-.04-.11-.02-.14.02-.03.02-.08.02-.14h.1l.05-.14Zm12.67-2.06c0,.06.03.16.1.29.06.16.03.26-.1.29-.19.06-.34.1-.43.1-.16-.03-.3-.06-.43-.1-.13-.03-.27-.05-.43-.05-.29,0-.58,0-.86.02-.29.02-.58.02-.86.02h-.14s.06.05.07.05c.02,0,.04.02.07.05h-.05c-.16,0-.3,0-.43-.02-.13-.02-.27-.02-.43-.02-.06,0-.16.03-.29.1-.03,0-.06.02-.1.05-.16-.06-.31-.07-.46-.02-.14.05-.3.1-.46.17-.19.06-.38.12-.58.17-.19.05-.38.1-.58.17.06-.06.13-.11.19-.14-.19-.06-.34-.05-.43.05-.06.06-.14.11-.24.14-.1.03-.19.08-.29.14l-1.44.72c-.13.06-.24.11-.34.14v-.29c-.16.1-.3.19-.43.29-.13.1-.26.19-.38.29-.1.06-.1.14,0,.24l1.73,1.15,1.44.86c.22.13.44.25.65.36.21.11.39.25.55.41.03.03.05.06.05.07,0,.02.02.04.05.07h-.19c.1.16.19.3.29.43.1.13.19.26.29.38.03-.03.06-.07.1-.12.03-.05.06-.07.1-.07.1.03.21.11.34.24.06.06.13.12.19.17.06.05.13.1.19.17.19.19.37.3.53.34.13.06.19.13.19.19v.24c-.19-.03-.29.05-.29.24,0,.26-.02.45-.05.58-.03.06-.07.13-.12.19-.05.06-.1.13-.17.19,0-.22.05-.44.14-.65.1-.21.1-.44,0-.7-.06-.03-.13,0-.19.1-.06.1-.16.05-.29-.14v.38l-.34.34.14.29c-.06.1-.13.2-.19.31-.06.11-.13.23-.19.36-.03.03-.06.06-.1.07s-.06.04-.1.07l-1.58,1.3v.05s0,.05-.02.05c-.02,0-.02.02-.02.05l.19-.1h.14s-.05.06-.05.07c0,.02-.02.04-.05.07l-.58.43h-.1s-.05-.02-.05-.05c-.13.13-.13.26,0,.38.06-.06.14-.1.24-.12.1-.02.18-.06.24-.12.06-.06.13-.14.19-.22.06-.08.13-.15.19-.22.03-.03.1-.05.19-.05-.13.16-.24.32-.34.48-.1.16-.26.27-.48.34-.03,0-.08.03-.14.1v.14h.48l-.1.1c-.19.06-.32.18-.38.34-.06.16-.18.29-.34.38-.19.13-.38.25-.58.36-.19.11-.38.22-.58.31-.22.1-.3.03-.24-.19.03-.06.06-.14.1-.22.03-.08.08-.18.14-.31-.16.1-.31.18-.46.26-.14.08-.3.15-.46.22.06-.13.11-.24.14-.34-.19.1-.38.18-.55.26-.18.08-.34.15-.5.22l.43-.29s.05-.06.07-.1c.02-.03.04-.06.07-.1l-.58.29-.14-.29h-.24c.06-.06.19-.16.38-.29v-.14c-.06,0-.14-.02-.24-.05.1-.03.21-.08.34-.14h-.62l.1-.1c.13-.1.24-.2.34-.31.1-.11.16-.25.19-.41.03-.16.1-.29.22-.38.11-.1.23-.18.36-.24.26-.16.51-.32.77-.48.26-.16.51-.32.77-.48.22-.13.42-.27.6-.43.17-.16.36-.32.55-.48.38-.29.75-.61,1.1-.96.13-.13.25-.26.36-.38.11-.13.15-.3.12-.53-.13-.06-.22-.1-.29-.1-.35-.06-.67-.17-.96-.31s-.58-.3-.86-.46c-.16-.1-.34-.18-.53-.26-.19-.08-.37-.18-.53-.31-.22-.16-.44-.32-.65-.48-.21-.16-.42-.32-.65-.48-.06-.06-.11-.14-.14-.22-.03-.08-.08-.15-.14-.22l-.29-.43c.06-.06.08-.14.05-.22-.03-.08-.08-.15-.14-.22v.29c-.1-.19-.19-.38-.29-.58-.1-.19-.19-.4-.29-.62h.1l-.14-.29c-.26-.26-.3-.5-.14-.72.32-.42.67-.82,1.06-1.2.25-.26.45-.43.58-.53.16-.1.31-.18.46-.24.14-.06.3-.14.46-.24.1-.06.21-.12.34-.17s.26-.1.38-.17c.42-.22.84-.4,1.27-.53.43-.13.87-.24,1.32-.34.19-.06.38-.11.58-.14.19-.03.4-.06.62-.1.54-.06,1.07-.1,1.58-.12.51-.02,1.04,0,1.58.02.1,0,.18.02.26.07.08.05.17.09.26.12.1.03.27.08.53.14.06.03.12.05.17.05s.07.05.07.14c0,.03.02.05.05.05h.1c.1,0,.16.02.19.05v.19c.19.13.35.22.48.29-.13.16-.25.19-.36.1-.11-.1-.25-.11-.41-.05.1.06.18.12.26.17.08.05.18.1.31.17h-.24c.06.06.12.13.17.19.05.06.1.14.17.24-.32-.03-.62-.06-.91-.07-.29-.02-.58-.04-.86-.07v.14c.13.06.22.1.29.1.19.03.38.05.58.05s.38.02.58.05c.26,0,.37.13.34.38l-.96-.19Zm-11.04,2.11v.48c-.19-.22-.21-.38-.05-.48h.05Zm2.02,9.74c.1-.06.19-.14.29-.24.1-.1.19-.18.29-.24-.1,0-.16.02-.19.05-.16.1-.31.19-.46.29-.14.1-.3.19-.46.29-.06.03-.12.06-.17.07-.05.02-.1.04-.17.07-.32,0-.56.18-.72.53.06-.03.11-.05.14-.05s.08-.02.14-.05c.13-.06.29-.16.48-.29.16-.06.3-.14.43-.22.13-.08.26-.17.38-.26v.05Zm-.77-7.58l-.14.14-.58-.43.14-.14.58.43Zm-.19,6.96c.26.06.45.02.58-.14l.43-.43-.58.14-.43.43Zm.91-7.49c-.26-.13-.46-.22-.62-.29.06.19.14.3.24.34.1.03.22.03.38,0v-.05Zm.05,6.48l-.58.29c-.07-.06-.04-.14.07-.22.11-.08.25-.1.41-.07h.1Zm2.3.72c0,.1-.02.14-.07.12-.05-.02-.1,0-.17.02.1-.16.16-.26.19-.29.13-.06.25-.14.38-.22.13-.08.27-.17.43-.26l-.34.34-.14.14c-.06.13-.13.16-.19.1h-.05l-.05.05Zm0-5.86c-.06.13-.04.26.07.38.11.13.22.18.31.14l.05-.05s.02-.06.05-.1l-.43-.43-.05.05Zm.62,1.01l-.58-.29.58.29v.14-.14Zm.62-6.67l1.87-.14-.29-.14h-.14c-.13.06-.21.1-.24.1l-1.01.14-.19.05Zm5.62-.19h-.48c.13.06.23.11.31.14.08.03.17.08.26.14.06-.19.02-.3-.14-.34l.05.05Z"/>
    </g>
  </g>
</svg>