<?xml version="1.0" encoding="UTF-8"?>
<svg id="Layer_2" data-name="Layer 2" xmlns="http://www.w3.org/2000/svg" viewBox="0 0 159.99 32.77">
  <defs>
    <style>
      .cls-1 {
        fill: #42484c;
        stroke-width: 0px;
      }
    </style>
  </defs>
  <g id="Layer_1-2" data-name="Layer 1">
    <g>
      <path class="cls-1" d="m0,30.46c.81-.4,1.38-.87,1.71-1.42s.49-1.3.49-2.26V8.35h3.27v18.16c0,1.71-.27,3.04-.81,4s-1.43,1.71-2.67,2.26l-1.99-2.3ZM1.99,3.57c0-.52.18-.95.54-1.3s.8-.53,1.32-.53.95.18,1.31.53.54.79.54,1.3-.18.95-.54,1.3-.79.53-1.31.53-.96-.18-1.32-.53-.54-.79-.54-1.3Z"/>
      <path class="cls-1" d="m17.79,23.26c-.82.57-1.6.99-2.33,1.24s-1.52.38-2.36.38c-1.45,0-2.59-.35-3.41-1.05s-1.23-1.66-1.23-2.87c0-1.15.45-2.16,1.34-3.02s2.23-1.6,4.03-2.2l3.85-1.28c.01-.09.02-.19.03-.28s0-.23,0-.4c0-.97-.24-1.67-.71-2.1s-1.26-.64-2.35-.64c-.9,0-1.83.19-2.79.57s-1.92.95-2.88,1.7v-3.2c.83-.68,1.76-1.19,2.79-1.54s2.13-.52,3.29-.52c2.09,0,3.6.46,4.55,1.38s1.42,2.41,1.42,4.46v6.87c0,.57.05.98.15,1.22s.27.36.5.36c.2,0,.41-.05.62-.16s.57-.35,1.06-.74v1.97c-.59.5-1.18.88-1.78,1.12s-1.22.36-1.86.36-1.09-.13-1.4-.39-.49-.67-.54-1.23Zm-.12-1.97v-4.76c-2.18.68-3.68,1.31-4.51,1.88s-1.24,1.24-1.24,2c0,.67.21,1.18.64,1.55s1.03.54,1.8.54c.57,0,1.14-.1,1.69-.31s1.09-.51,1.62-.91Z"/>
      <path class="cls-1" d="m25.38,24.59V0h3.23v24.59h-3.23Z"/>
      <path class="cls-1" d="m43.49,22.61c-.81.77-1.61,1.34-2.42,1.7s-1.67.54-2.59.54c-1.77,0-3.16-.51-4.18-1.53s-1.53-2.41-1.53-4.18v-10.78h3.27v9.95c0,1.31.28,2.28.83,2.91s1.42.94,2.59.94c.83,0,1.56-.16,2.19-.48s1.24-.86,1.84-1.61v-11.71h3.23v16.24h-3.23v-1.99Z"/>
      <path class="cls-1" d="m49.78,23.48v-3.46c.97.64,1.91,1.14,2.81,1.48s1.73.51,2.48.51c.83,0,1.49-.16,1.96-.47s.71-.74.71-1.27c0-.68-.88-1.46-2.65-2.34-.52-.26-.91-.46-1.2-.62-1.51-.77-2.55-1.52-3.11-2.24s-.84-1.6-.84-2.65c0-1.36.49-2.44,1.46-3.23s2.31-1.2,4.01-1.2c.91,0,1.79.11,2.64.33s1.67.55,2.48,1.01v3.16c-1-.55-1.91-.96-2.73-1.22s-1.61-.4-2.35-.4c-.68,0-1.2.12-1.57.35s-.55.57-.55,1.02c0,.82,1.13,1.79,3.39,2.9l.3.14c1.77.89,2.92,1.67,3.46,2.35s.81,1.53.81,2.56c0,1.43-.54,2.57-1.61,3.43s-2.49,1.28-4.26,1.28c-1.02,0-1.99-.12-2.91-.35s-1.83-.59-2.72-1.07Z"/>
      <path class="cls-1" d="m63,24.59v-9.07c0-1.83.27-3.36.81-4.61.54-1.24,1.28-2.24,2.21-2.99.89-.7,1.93-1.22,3.13-1.55,1.2-.33,2.43-.49,3.69-.49h.7v4.99h-1.62c-1.36,0-2.37.33-3.02.98-.66.66-.98,1.69-.98,3.09v9.63h-4.92Z"/>
      <path class="cls-1" d="m87.73,18.83h3.52c-.52,1.97-1.5,3.47-2.95,4.5-1.45,1.08-3.28,1.62-5.48,1.62-2.67,0-4.76-.87-6.26-2.6-1.5-1.69-2.25-4.1-2.25-7.24s.73-5.34,2.18-7.03c1.5-1.73,3.59-2.6,6.26-2.6,2.81,0,4.99.84,6.54,2.53,1.5,1.73,2.25,4.15,2.25,7.24v.77c0,.24-.02.4-.07.49h-12.16c.05,1.45.4,2.53,1.05,3.23.61.75,1.52,1.12,2.74,1.12.8,0,1.48-.16,2.04-.49.14-.05.27-.13.39-.25l.39-.39c.05-.14.22-.33.53-.56.3-.23.74-.35,1.3-.35Zm-8.44-5.48h7.17c-.09-1.27-.42-2.2-.98-2.81-.61-.66-1.48-.98-2.6-.98-1.03,0-1.88.33-2.53.98-.66.66-1.01,1.59-1.05,2.81Z"/>
      <path class="cls-1" d="m97.76,2.72v5.62c.52-.89,1.27-1.62,2.25-2.18.84-.47,1.87-.7,3.09-.7,2.2,0,4.01.91,5.41,2.74s2.11,4.2,2.11,7.1-.7,5.27-2.11,7.1c-.7.89-1.65,1.54-2.85,1.93s-2.38.6-3.55.6c-2.25,0-4.34-.59-6.26-1.76-1.92-1.17-2.88-3.42-2.88-6.75V.33h2.39c.66,0,1.22.24,1.69.7.47.47.7,1.03.7,1.69Zm8.02,12.38c0-1.69-.35-3-1.05-3.94-.7-.98-1.66-1.48-2.88-1.48-1.31,0-2.32.47-3.02,1.41-.7.98-1.05,2.32-1.05,4.01,0,1.97.33,3.4.98,4.29.7.98,1.69,1.48,2.95,1.48s2.32-.49,3.02-1.48,1.05-2.41,1.05-4.29Z"/>
      <path class="cls-1" d="m128.47,5.89v10.97c0,3.33-.87,5.51-2.6,6.54-1.73,1.03-3.63,1.55-5.7,1.55-2.02-.09-3.86-.66-5.52-1.69-1.66-1.03-2.5-3.16-2.5-6.4V5.89h4.92v11.95c0,1.12.33,1.95.98,2.46.66.52,1.41.77,2.25.77s1.61-.26,2.29-.77c.68-.52,1.02-1.34,1.02-2.46v-9.56c0-.66.22-1.22.67-1.69.45-.47,1.02-.7,1.72-.7h2.46Z"/>
      <path class="cls-1" d="m130.35.4h2.53c.66,0,1.22.24,1.69.7.47.47.7,1.03.7,1.69v1.48h-4.92V.4Zm0,5.48h2.53c.66,0,1.22.24,1.69.7.47.47.7,1.03.7,1.69v16.31h-4.92V5.89Z"/>
      <path class="cls-1" d="m136.38.4h2.53c.66,0,1.22.22,1.69.67.47.45.7,1,.7,1.65v21.87h-4.92V.4Z"/>
      <path class="cls-1" d="m155.2.33h2.39c.66,0,1.22.25,1.69.74.47.49.7,1.04.7,1.65v13.71c0,3.33-.96,5.58-2.88,6.75-1.92,1.17-4.01,1.76-6.26,1.76-1.22,0-2.42-.2-3.59-.6-1.17-.4-2.11-1.04-2.81-1.93-1.36-1.73-2.04-4.1-2.04-7.1s.68-5.32,2.04-7.1c1.41-1.83,3.21-2.74,5.41-2.74,1.17,0,2.2.24,3.09.7.94.56,1.69,1.29,2.25,2.18V.33Zm-8.02,14.77c0,1.88.35,3.3,1.05,4.29s1.71,1.48,3.02,1.48,2.25-.49,2.95-1.48c.66-.98.98-2.41.98-4.29,0-1.69-.35-3.02-1.05-4.01-.75-.94-1.76-1.41-3.02-1.41s-2.18.49-2.88,1.48c-.7.94-1.05,2.25-1.05,3.94Z"/>
    </g>
  </g>
</svg>