<?xml version="1.0" encoding="UTF-8"?>
<svg id="Layer_2" data-name="Layer 2" xmlns="http://www.w3.org/2000/svg" viewBox="0 0 67.62 47.15">
  <defs>
    <style>
      .cls-1 {
        stroke-width: 0px;
      }
    </style>
  </defs>
  <g id="Layer_1-2" data-name="Layer 1">
    <g>
      <path class="cls-1" d="m15.11,13.34c0,.77-.1,1.51-.29,2.23-.19.72-.37,1.42-.53,2.09-.45,2.56-.98,5.06-1.58,7.49-.61,2.43-1.22,4.88-1.82,7.34-.61,2.43-1.24,4.82-1.9,7.15-.66,2.34-1.61,4.43-2.86,6.29-.32.35-.7.67-1.15.96s-1.01.34-1.68.14c-.83-.42-1.5-1.12-2.02-2.11-.51-.99-.87-2.1-1.08-3.31-.21-1.22-.26-2.46-.14-3.74.11-1.28.39-2.43.84-3.46.16.06.29.14.38.24.1.1.18.21.24.34.19-.26.33-.58.41-.98.08-.4.3-.65.65-.74.13.64.15,1.28.07,1.92-.08.64-.1,1.26-.07,1.87.03.38.12.73.26,1.03.14.3.3.6.46.89-.1.19-.16.46-.19.82-.03.35-.02.7.02,1.03.05.34.14.64.26.91.13.27.3.41.53.41.19,0,.36-.1.5-.29.14-.19.27-.42.38-.67s.22-.53.31-.82c.1-.29.18-.53.24-.72.16-.54.31-1.08.46-1.61.14-.53.3-1,.46-1.42.1-.93.27-1.76.53-2.5.26-.74.5-1.49.72-2.26.42-2.08.86-4.03,1.34-5.86.48-1.82.94-3.76,1.39-5.81.03-.16.04-.28.02-.36-.02-.08-.06-.18-.12-.31.13-.35.19-.7.19-1.03s.03-.68.1-1.03c.26-.45.46-.94.6-1.49.14-.54.28-1.12.41-1.73v-.58c0-.19.05-.34.14-.43.32-.06.72-.1,1.2-.1s.93-.02,1.34-.05h.58c.16,0,.29.08.38.24Zm-.82-10.18c-.06.22-.08.42-.05.6.03.18.07.34.12.5.05.16.08.31.1.46.02.14,0,.31-.07.5.06.06.14.06.24,0,.1-.06.18-.06.24,0,.1.22.13.49.1.79-.03.3,0,.57.1.79.19-.22.34-.48.43-.77.1-.29.27-.51.53-.67.16.06.25.19.26.38.02.19.02.37.02.53-.03.74-.17,1.5-.41,2.28-.24.79-.38,1.54-.41,2.28-.19.16-.42.26-.7.29-.27.03-.56.04-.86.02-.3-.02-.61-.04-.91-.07-.3-.03-.58-.03-.84,0-.16-.16-.22-.33-.19-.5.03-.18.08-.39.14-.65.06-.19.09-.4.07-.62-.02-.22,0-.42.07-.58.03-.1.07-.18.12-.26.05-.08.1-.17.17-.26.06-.16.11-.34.14-.55s.08-.42.14-.65c.16-.54.33-1.15.5-1.82.18-.67.34-1.31.5-1.92.06-.03.14-.07.22-.12s.15-.04.22.02Z"/>
      <path class="cls-1" d="m27.25,13.44c.06.26.08.45.05.58-.03.13,0,.34.1.62.16-.03.26-.13.29-.29.03-.16.16-.26.38-.29.1.16.11.3.05.41-.06.11-.03.2.1.26-.06,0-.1.04-.1.12s-.05.09-.14.02c.1.16.1.28,0,.36-.1.08-.06.15.1.22-.19,1.5-.49,3.01-.89,4.51-.4,1.5-.82,2.96-1.27,4.37-.03.64-.09,1.24-.17,1.8-.08.56-.15,1.21-.22,1.94.67-.26,1.29-.61,1.85-1.06.56-.45,1.11-.9,1.66-1.34.06.03.06.06,0,.1-.06.03-.06.08,0,.14,0,.03.06.03.17,0,.11-.03.18-.02.22.05-.22.58-.5,1.07-.84,1.49s-.58.9-.74,1.44c-.06.03-.11.07-.14.12-.03.05-.08.09-.14.12,0,.45-.16.8-.48,1.06-.32.26-.58.56-.77.91-.13.22-.2.44-.22.65-.02.21-.12.39-.31.55-.1.06-.24.13-.43.19-.06.06-.13.15-.19.26-.06.11-.13.2-.19.26-.29.13-.57.24-.84.34-.27.1-.55.13-.84.1-.7-.06-1.15-.41-1.34-1.03-.19-.62-.22-1.4-.1-2.33-.54.45-1.14.98-1.8,1.61-.66.62-1.4,1.03-2.23,1.22-.83.19-1.57.13-2.21-.19-.64-.32-.96-.99-.96-2.02-.19-.26-.34-.55-.46-.89s-.2-.68-.26-1.03c.03-.26.06-.5.07-.74.02-.24,0-.47-.07-.7.06-.8.2-1.61.41-2.42.21-.82.33-1.61.36-2.38.1,0,.15-.04.17-.12.02-.08.06-.14.12-.17.03-.38.12-.73.26-1.03.14-.3.26-.65.36-1.03.25-.22.42-.54.5-.94.08-.4.25-.68.5-.84-.06-.13-.06-.22,0-.29.42-.7.86-1.37,1.34-1.99.48-.62.94-1.25,1.39-1.9.48-.22,1.04-.46,1.68-.72.64-.26,1.33-.34,2.06-.24.45.06.79.24,1.03.53s.44.61.6.96c.16-.16.3-.33.43-.5.13-.18.19-.42.19-.74.32-.26.63-.33.94-.22.3.11.63.15.98.12Zm-8.64,8.45c-.06.35-.16.72-.29,1.1-.13.38-.26.81-.38,1.27-.13.46-.22.96-.29,1.49-.06.53-.06,1.1,0,1.7.22.74.75,1.04,1.58.91.51-.48,1.02-1.02,1.51-1.63.5-.61.94-1.28,1.32-2.02.38-.74.69-1.54.91-2.4.22-.86.34-1.78.34-2.74-.16-.35-.31-.69-.46-1.01-.14-.32-.39-.53-.74-.62-.06.03-.15.03-.26,0-.11-.03-.18-.02-.22.05-.83.32-1.44.86-1.82,1.61-.38.75-.78,1.51-1.2,2.28Z"/>
      <path class="cls-1" d="m35.89,1.97c.26.06.49.07.7.02.21-.05.42-.12.65-.22.16.64.14,1.28-.05,1.92-.19.64-.35,1.28-.48,1.92-.03.13-.04.26-.02.38.02.13,0,.27-.02.43-.06.35-.15.73-.26,1.13-.11.4-.23.79-.36,1.18-.1.35-.22.71-.36,1.08-.14.37-.26.73-.36,1.08-.45,1.54-.87,3.05-1.27,4.54s-.81,3-1.22,4.54c-.22.77-.43,1.55-.62,2.35s-.35,1.57-.48,2.3c-.07.29-.12.61-.17.96-.05.35-.08.7-.1,1.06-.02.35,0,.69.05,1.01.05.32.15.59.31.82.32,0,.59-.09.82-.26s.43-.34.62-.5c.38-.35.78-.69,1.18-1.01.4-.32.81-.66,1.22-1.01.35-.38.72-.75,1.1-1.1.16-.16.33-.35.5-.58.17-.22.42-.35.74-.38,0,.16-.02.29-.07.38s-.07.22-.07.38c.26-.16.48-.36.67-.6.19-.24.42-.44.67-.6-.45,1.76-1.14,3.25-2.09,4.46-.94,1.22-1.93,2.38-2.95,3.5-.54.22-1.02.5-1.44.82-.42.32-.94.54-1.58.67-.1.03-.18.03-.26,0-.08-.03-.18-.05-.31-.05-.16,0-.32.03-.48.1-.16.06-.32.06-.48,0-.19-.06-.34-.15-.43-.26-.1-.11-.22-.23-.38-.36-.1-.06-.19-.04-.29.07-.1.11-.18.14-.24.07-.35-.61-.56-1.29-.62-2.04-.06-.75-.06-1.53.02-2.33s.21-1.59.38-2.38.34-1.53.5-2.23c.67-2.72,1.42-5.44,2.23-8.16s1.58-5.42,2.28-8.11c.42-1.18.78-2.4,1.08-3.65.3-1.25.78-2.35,1.42-3.31.16.06.25.18.26.34.02.16.02.34,0,.53-.02.19-.03.38-.05.58-.02.19.02.37.12.53Z"/>
      <path class="cls-1" d="m48.13,28.7c.29.06.55,0,.79-.17.24-.18.58-.23,1.03-.17.06.06.07.15.02.26-.05.11-.09.2-.12.26.26-.16.5-.3.74-.43s.49-.26.74-.38c-.22,1.02-.65,1.82-1.27,2.4-.62.58-1.29,1.14-1.99,1.68-.26.35-.55.64-.89.86-.34.22-.76.29-1.27.19-.77-.54-1.33-1.38-1.68-2.5-.29.19-.6.41-.94.65-.34.24-.7.47-1.08.7-.35.19-.74.39-1.15.6s-.83.31-1.25.31c-.22,0-.43-.05-.62-.14-.19-.1-.42-.11-.67-.05-.45-.26-.77-.66-.96-1.22-.19-.56-.26-1.11-.19-1.66.06-.8.25-1.62.55-2.47.3-.85.58-1.7.84-2.57.13-.38.26-.78.38-1.18.13-.4.26-.82.38-1.27.06-.26.14-.55.24-.89.1-.34.16-.66.19-.96.03-.3.02-.58-.05-.84-.07-.26-.21-.43-.43-.53-.32.16-.58.35-.79.58-.21.22-.44.45-.7.67-.06-.1-.16-.17-.29-.22-.13-.05-.18-.15-.14-.31-.26.06-.48.18-.67.36s-.42.26-.67.26c.06-.29.21-.54.43-.74.22-.21.42-.44.58-.7.19-.26.38-.5.55-.72.18-.22.36-.45.55-.67l.43-.29c.26-.26.53-.55.82-.89.29-.34.59-.67.91-1.01.32-.34.66-.65,1.03-.94.37-.29.74-.51,1.13-.67.74-.29,1.26-.08,1.58.62.1.99.06,1.94-.12,2.83-.18.9-.4,1.76-.67,2.59-.27.83-.57,1.64-.89,2.42-.32.79-.58,1.58-.77,2.38-.16.54-.31,1.08-.46,1.61-.14.53-.25,1.08-.31,1.66.13.1.27.11.43.05s.29-.06.38,0c.13-.06.23-.13.31-.19.08-.06.2-.13.36-.19,1.18-1.12,2.14-2.46,2.86-4.01.72-1.55,1.4-3.16,2.04-4.82.38-.7.7-1.48.94-2.33.24-.85.5-1.67.79-2.47.35-.35.82-.58,1.42-.67.59-.1,1.25-.11,1.99-.05.06.06.13.11.19.14.06.03.13.08.19.14.13.74.02,1.38-.31,1.92-.34.54-.65,1.06-.94,1.54-.42,1.38-.89,2.68-1.42,3.91-.53,1.23-.92,2.58-1.18,4.06-.58,1.02-.9,2.24-.96,3.65Z"/>
      <path class="cls-1" d="m64.26,13.3c.54-.03,1.1-.06,1.68-.07.58-.02,1.14-.09,1.68-.22-.16.16-.34.28-.55.36-.21.08-.42.16-.62.24-.21.08-.41.18-.6.29-.19.11-.34.26-.43.46.16.06.29.06.38-.02.1-.08.22-.1.38-.07-.26.29-.55.54-.89.74s-.68.41-1.03.6c-.99.61-2.04,1.17-3.14,1.68-1.1.51-2.09,1.15-2.95,1.92-.06.13-.14.24-.22.34-.08.1-.15.21-.22.34-.06.83.11,1.45.53,1.85.42.4.9.74,1.46,1.03.56.29,1.09.6,1.58.94.5.34.79.89.89,1.66-.03.86-.22,1.59-.55,2.18-.34.59-.74,1.09-1.22,1.49-.48.4-1.02.76-1.61,1.08-.59.32-1.18.64-1.75.96-.16.16-.37.34-.62.53-.22-.03-.38,0-.46.07-.08.08-.2.14-.36.17-.29.35-.63.59-1.03.72s-.87.24-1.42.34c-.7.35-1.39.76-2.06,1.22s-1.46.74-2.35.84c-.1-.13-.07-.22.07-.26.14-.05.22-.15.22-.31-.42.16-.85.31-1.3.46-.45.14-.88.33-1.3.55.13-.16.26-.3.38-.43.13-.13.27-.26.43-.38-.03-.1-.07-.11-.12-.05-.05.06-.1.08-.17.05.48-.38.98-.75,1.49-1.1.51-.35.99-.75,1.44-1.2,0-.1-.06-.13-.19-.1s-.19,0-.19-.1c.03-.22.12-.38.26-.48.14-.1.25-.22.31-.38.7-.29,1.31-.64,1.82-1.06.51-.42,1.09-.78,1.73-1.1.06-.03.1-.08.12-.14.02-.06.06-.13.12-.19.64-.26,1.18-.58,1.63-.96.45-.38.8-.9,1.06-1.54.06-.42.02-.74-.12-.96-.14-.22-.3-.45-.46-.67-.1-.06-.19-.14-.29-.24-.1-.1-.21-.18-.34-.24-1.47-.48-2.4-1.47-2.78-2.98v-.96c0-.32.05-.61.14-.86.42-1.02,1.02-1.88,1.82-2.57.8-.69,1.7-1.27,2.69-1.75.99-.48,2.05-.89,3.17-1.22s2.21-.68,3.26-1.03h.1c.1.03.17.08.22.14s.15.11.31.14c0,.06-.02.11-.05.14s-.03.08,0,.14Z"/>
    </g>
  </g>
</svg>