<?xml version="1.0" encoding="UTF-8"?>
<svg id="Layer_2" data-name="Layer 2" xmlns="http://www.w3.org/2000/svg" viewBox="0 0 137.36 54.25">
  <defs>
    <style>
      .cls-1 {
        fill: #fff;
        stroke-width: 0px;
      }
    </style>
  </defs>
  <g id="Layer_1-2" data-name="Layer 1">
    <g>
      <path class="cls-1" d="m20.28,48.22c-.29.58-.57,1.01-1.08,1.36-.07.07-.14.22-.21.29-.07.22-.22.29-.43.36-.14.07-.36.22-.5.29-.36.14-.65.36-.65.79,0,.14-.14.29-.22.36-.57.29-1.08.58-1.58.86-.29.14-.65.14-1.08.29l-.07.07c-.14.43-.57.57-1.01.65-.22,0-.36,0-.57.07-.36.14-.72.14-1.15,0-.07,0-.14-.07-.21,0-.5.07-1.01.07-1.58-.14-.14,0-.43.07-.57.22-.14.07-.14.22-.21.36-.29,0-.58-.07-.86-.07-.22,0-.5.14-.79.29-.07-.07-.21-.14-.36-.14s-.29-.07-.43,0c-.43.29-.86.07-1.22-.14-.22-.14-.43-.22-.65-.22-.93-.07-1.8-.43-2.51-1.15h.14c.5.14.93.29,1.36.43.43.14.93.14,1.36.14.21,0,.43,0,.72.14.36.14.72.07,1.08-.07.07-.14,0-.22-.14-.22-.07,0-.22-.07-.29-.07.07-.07.07-.14.14-.22.14-.07.29-.14.43-.22l-.07-.07c-.29.14-.57.07-.86-.07-.36-.22-.79-.43-1.29-.5-.5-.07-.93-.29-1.36-.5-.65-.29-1.08-.79-1.65-1.08-.22-.14-.29-.29-.5-.43-.29-.36-.65-.72-1.01-1.01-.21-.22-.29-.43-.36-.65-.07-.43,0-.72.14-1.15.21-.43.21-1.01.36-1.51.14-.07.29-.22.5-.36.14.29.36.58.57.93.22.07.5.22.86.43.14-.07.29-.14.5-.22.22.07.5.22.65.43.21.29.5.36.79.43.79.22,1.65.29,2.44.36.5,0,.93-.14,1.36-.29.5-.14.93-.36,1.36-.5.79-.29,1.36-.79,1.87-1.36.14-.14.29-.22.43-.36.07-.07.14-.07.21-.14.5-.65,1.15-1.22,1.36-2.08.07-.29.14-.58.29-.79.21-.36.43-.65.29-1.08,0-.07.14-.22.14-.29.65-1.08,1.08-2.16,1.36-3.3.07-.22.14-.36.22-.57.29-.86.57-1.65.86-2.51-.07-.5.21-.86.36-1.29.07-.43.29-.93.36-1.36.07-.14.14-.29.14-.5.21-.93.43-1.8.79-2.73.14-.36.22-.72.22-1.15s.14-.93.29-1.44c.14-.65.29-1.36.5-2.08,0-.14.07-.29.14-.43.07-.07.14-.22.14-.29-.07-.5.14-.93.22-1.44,0-.43.21-.86.36-1.36.07-.43.22-.93.36-1.36.07-.5.22-.93.36-1.36.14-.58.29-1.08.43-1.65.14-.72-.21-1.22-.93-1.36-.36,0-.72-.07-1.08-.21-.29-.14-.58-.14-.93-.07h-1.72c.36-.29.72-.07.93-.22.29-.07.57,0,.79-.22-.14-.29-.43-.5-.72-.57-.65-.07-1.29-.43-1.94-.72-.07-.14-.14-.29-.14-.5-.07-.14-.07-.36-.14-.58q-.14-.43.22-.72c.29-.14.5-.22.86-.14.43.14.93,0,1.36-.07.65-.07,1.29-.22,1.87-.43,1.51-.36,2.94-.93,4.38-1.44.22-.07.29-.14.36-.36.36.07.72-.07,1.15-.14,1.22-.36,2.51-.72,3.81-1.08.79-.22,1.58-.36,2.37-.43h.79c.65.07,1.01.36,1.15.93.07.14.14.29.21.43.5.29.94.58,1.36.93,0,.43-.43.65-.79.79-.36.21-.72.29-1.08.5-.14.07-.29.14-.36.29-.22.29-.43.43-.72.5-.07,0-.07.07-.14.14,0,.07,0,.22.07.43-.43.07-.72.29-1.01.57,0,.07-.14.14-.22.14-.57.07-1.01.5-1.51.65,0,.43-.07.79.07,1.08.14.5.14.93.07,1.36-.07.65-.14,1.36-.36,2.08-.21.72-.29,1.44-.43,2.16-.07.29-.07.5.07.79.07.07.07.14.07.22-.22.72-.29,1.51-.57,2.15-.07.14-.07.36.07.5.14.14.14.36.07.5-.14.43-.36.86-.36,1.29,0,.07-.07.14-.14.22-.29.22-.29.58-.29.93,0,.14,0,.29-.14.43-.07.22,0,.43-.07.79-.14.14-.22.43-.22.79s-.07.72-.43.93c-.36.29-.36.43-.14.79,0,.07.07.14.07.22.14.29.14.65-.14.86-.22.14-.36.36-.43.65v.07c-.14.29-.36.57-.36.86-.07.29.07.58.07.79-.21.36-.36.72-.57,1.08.14,0,.29.07.43.07,0,.29-.14.5-.36.57-.21.14-.36.36-.43.65-.14.36-.29.72-.65.93-.14.14-.22.36-.29.58.14.07.29.14.43.07.14,0,.36-.14.57-.22-.07.14-.07.36-.07.5-.07,0-.14,0-.21.07-.36,0-.5.22-.29.43.22.29.14.65,0,.93-.21.36-.43.79-.65,1.22,0,0,.07.14.14.29,0,.14-.43.22-.29.57,0,0-.07.07-.14.14q-.21.22,0,.58c-.36.43-.72.93-1.15,1.36-.22.29-.43.5-.5.86-.07.5-.36.93-.65,1.36-.07-.07-.21-.07-.29-.14-.29.07-.22.36-.36.57-.07.14-.22.29-.36.5.43.36.79-.14,1.22.07-.14.29-.36.5-.58.72-.29.29-.5.65-.57,1.01-.07,0-.07.07-.14.07Zm3.45-12.79c0-.07,0-.14-.07-.22l-.07.07v.14h.14Z"/>
      <path class="cls-1" d="m60.79,25.66c-.14.14-.29.29-.43.36-.14.07-.29.22-.43.29-.07.07-.22.07-.29.14-.07,0-.14.07-.21.14-.07.07-.07.29-.29.14h-.07c-.14.14-.36.22-.57.29-.29,0-.5.14-.72.22-.14.07-.29.14-.43.14-.14.07-.21.07-.36.14-.21.07-.43.14-.65.22-.07,0-.14.07-.22.07-.14.07-.29.14-.36.22h-.14c-.21,0-.43.07-.65.21-.14,0-.29.07-.43.14-.07.07-.21.07-.36.14s-.29.14-.5.22c-.21.14-.5.22-.79.29-.07,0-.14.07-.21.14-.29.07-.5.07-.72.14-.14.07-.29.07-.43.14h-.29c-.14,0-.22.14-.22.29v.36c-.07.22-.07.5-.14.79,0,.14-.07.29-.07.43-.07.14-.14.36-.14.5-.07.29-.14.5-.22.79,0,.07-.07.07-.07.14-.07.43-.22.93-.36,1.36l-.21.65c-.07.14-.07.36-.07.57v.07c-.14.14-.22.29-.22.5l-.07.07c-.07.22-.14.43-.22.65,0,.07-.07.22-.14.22-.07.14-.07.36-.14.5-.07.22-.14.43-.14.65-.07.22-.07.43-.14.65,0,.14.07.36-.07.57-.07.07,0,.14,0,.29v.14c-.07.22-.14.22-.36.22.07-.07.07-.14.07-.22.07-.07,0-.14,0-.22s0-.14.07-.14c0-.07,0-.14-.07-.22h-.07c-.07,0-.07.07-.14.14,0,.14,0,.29-.07.43,0,.07.07.07,0,.14v.22c-.07.07-.07.14-.14.22v.07h-.07v-.07c.07-.36.14-.79.22-1.15v-.29c0-.29.07-.65.07-.93,0-.14.07-.36.14-.57,0-.07-.07-.22-.14-.36q-.07.07-.07.14c-.07.14,0,.29-.07.43,0,.07-.14.14-.22.22q-.07.07-.07.14c-.07.07-.07.22-.07.36-.07.07-.07.14-.07.22,0,.14,0,.29-.07.43,0,.07,0,.14-.14.14h-.07c-.07.07-.14.14-.21.22l-.07.07c-.14,0-.29.29-.21.43,0,.07.07.07.14.07h.14c-.07.07-.14.22-.22.07,0,0-.14,0-.14.07-.07.07-.07.22,0,.29v.14c0,.07,0,.22.14.14,0,.07.07.14,0,.14,0,.07-.07.07-.07.07-.07,0-.14-.14-.21,0v.07c0,.07.07.14.07.14.14,0,.21.07.14.22-.14-.07-.14,0-.21.07,0,.14,0,.22-.07.36,0,.14.07.22.29.29-.07,0-.14,0-.21.07v.14q0,.07-.07.07c-.07.07-.07.14-.07.29v.5c.14.14,0,.29-.07.5v.57c0,.29-.07.5-.07.72,0,.07-.07.22-.07.22-.07.14-.07.29-.07.43v.79c0,.43,0,.93-.14,1.36-.07.43-.07.79-.14,1.15-.07.14-.07.21-.07.36,0,.22,0,.43-.07.58-.07.14-.07.36-.14.5,0,.07-.07.14-.07.14-.21-.07-.21-.21-.21-.43v-.5l-.07-.07c-.14,0-.14-.14-.14-.22.07-.36.07-.65.07-1.01,0-.07-.07-.14-.07-.22l-.07-.07v-1.58c-.07,0-.07.07-.07.07v.36c-.07,0,0,0-.07.07-.07.07-.07.29-.14.43,0,.14.07.22.07.36v.14c0,.07,0,.22-.07.29v.22c0,.07-.07.22,0,.36,0,.14-.07.22-.07.36v.07c.07.22,0,.36,0,.5,0,.07-.07.07-.07.14-.07,0-.07-.07-.07-.07,0-.29-.07-.5.07-.79,0-.14-.07-.29-.07-.5.07-.22,0-.36.07-.57,0-.22-.07-.36-.07-.5v-.29c-.07,0-.07.07-.07.07-.07.14-.07.22-.07.29v.14c-.07-.14-.14-.29-.07-.43.07-.07,0-.14,0-.22v-.36l-.07-.07q0,.07-.07.07c-.07.07-.14.22-.14.29.07.07,0,.07,0,.07-.14.07,0,.22,0,.36,0,.07.07.14.07.29,0,.07,0,.22-.07.29-.07.22-.07.43,0,.65l-.07.07c0-.14-.07-.36-.07-.57v-1.58c-.14-.14-.07-.29,0-.43v-.65c0-.07-.07-.14-.07-.22s0-.14.07-.22c.07-.07,0-.22,0-.29-.07-.07-.07-.22-.22-.14-.07.07-.14-.07-.07-.07,0-.14,0-.22-.07-.29v-.22c-.07-.07-.14,0-.14.29-.07-.07-.14-.07-.14-.07,0-.22-.07-.36-.07-.58.07-.22,0-.43.07-.57,0-.14,0-.22.07-.36v-.14c-.07-.07-.07-.22-.07-.36v-.58c0-.07.07-.07.07-.14.14,0,.14-.07.14-.14s-.07-.07-.14-.07-.14,0-.14-.07c-.07-.22-.07-.36-.14-.58v-.86c0-.14.07-.29.07-.43v-2.01c.07-.22.07-.43.14-.58v-.14c0-.22-.07-.43,0-.65v-.72c0-.22-.07-.36-.07-.58s.07-.43.07-.65v-.57s-.07,0,0-.07c0-.07-.07-.14-.14-.14-.22.07-.36.07-.5.07-.14.07-.29.07-.43.07-.22,0-.43.07-.57.14-.22.07-.43.07-.58.07h-.07c-.21.22-.43.14-.57.22-.14.07-.36.07-.5.14-.14,0-.29.07-.5.14h-.22c-.14.07-.36.14-.57.22-.29.07-.43.36-.57.57-.22.29-.36.57-.5.86-.22.22-.36.57-.5.86-.07.14-.07.29-.22.43,0,.07-.07.14-.14.22-.14.14-.29.36-.43.5-.07.14-.22.22-.29.29-.07.14-.21.22-.21.36-.07.14-.22.29-.29.36-.14.22-.29.36-.43.5-.14.22-.36.5-.5.72-.07,0-.14.07-.21.14-.14.14-.29.29-.43.36-.29.22-.5.36-.72.58-.07.07-.14.14-.29.22-.07.14-.22.29-.36.43-.14.07-.29.22-.36.29-.29.29-.57.57-.86.79-.14.14-.29.36-.43.5-.07,0-.07.07-.07.07-.36.07-.5.43-.72.65-.21.22-.43.43-.65.57-.21.29-.5.43-.79.65-.07.07-.14.14-.21.22-.22.14-.36.22-.57.29-.14.07-.36.22-.5.29-.21.07-.43.07-.57.14-.21.14-.43.07-.72.14-.07,0-.14,0-.22-.07-.21,0-.43-.07-.72-.07-.22,0-.36-.07-.58-.22h-.21c-.14-.14-.29-.29-.43-.43-.36-.36-.36-.72-.5-1.08,0-.22-.07-.36-.14-.5,0-.14-.07-.22-.14-.36v-.36c-.07-.43,0-.93.07-1.36.07-.36.22-.65.29-1.01.07-.22.14-.5.22-.72.07-.22.21-.36.29-.5,0-.07.07-.22.14-.29,0-.07.14-.07.14-.22.07-.07.14-.21.14-.29.07-.22.22-.36.36-.5s.29-.36.43-.58c0-.07.07-.07.07-.07.07-.07.07-.22-.07-.22,0-.07-.07-.07-.14-.07-.21,0-.43-.07-.65-.07-.21-.07-.43-.07-.57-.14-.07,0-.14-.07-.22-.07-.29-.14-.57-.22-.79-.43,0-.07-.07-.14-.14-.22-.07,0-.07-.07-.07-.07-.07-.07-.07-.14-.07-.22s-.07-.22-.07-.29v-.14c.07-.29-.07-.5-.07-.72-.07-.14,0-.36,0-.5.07-.36.29-.57.5-.79.07-.07.14-.14.21-.22,0-.07.07-.14.14-.14.07-.07.14-.14.14-.22.14-.14.29-.29.43-.43.07-.07.21-.14.36-.22.21-.07.36-.22.5-.29.21-.14.43-.29.65-.36.22-.14.43-.22.65-.36.14-.07.29-.14.43-.22.07-.07.22-.07.36-.14.22,0,.36-.07.5-.14.22-.07.36-.07.58-.14.07,0,.21-.07.29-.07s.22-.07.29-.07c.21-.07.43-.22.65-.22s.36-.07.57-.14l.07-.07c.21.07.29-.07.5-.14h.14c.21,0,.29-.14.36-.29.07-.07.14-.14.21-.29.14-.14.22-.36.36-.58.14-.14.29-.36.43-.5.14-.22.29-.43.43-.65s.29-.36.43-.57c.14-.29.36-.58.57-.93.22-.29.36-.58.57-.93.29-.5.5-1.01.79-1.51.14-.14.22-.36.36-.5.21-.29.36-.57.5-.86.14-.29.36-.57.5-.86.22-.43.5-.79.72-1.15.07-.14.14-.29.29-.43.22-.43.5-.86.79-1.22.07-.22.21-.36.29-.5.36-.43.65-.93,1.01-1.44.07-.22.29-.36.43-.58v-.07c.21-.29.36-.57.57-.86.14-.22.29-.43.5-.65.07-.14.22-.36.29-.5.21-.29.36-.57.57-.86.07-.07.14-.14.21-.29.07-.14.22-.29.29-.43.14-.22.29-.43.43-.65.07-.14.21-.36.36-.58.07-.14.21-.29.36-.43.14-.22.14-.43.14-.72-.07-.22,0-.43,0-.65s.07-.43.07-.72l.21-.65c.07-.07.07-.22.07-.29.07-.22.14-.36.29-.57.07-.07.22-.22.29-.29q.07,0,.07-.07c.07-.29.21-.43.43-.57.14-.14.36-.29.57-.29.14,0,.36-.14.5-.14.29-.07.58-.29.93-.29h1.01c.14,0,.36,0,.5.14.14.14.36.22.5.36.07.07.14.07.29.14h.14c0,.22.21.29.29.36.22.22.36.36.5.57,0,.07.07.14.14.22.07.14.07.36.21.5.14.22.22.5.36.79.07.07.07.22.14.36,0,.07.07.22.07.29.07.36.14.72.22,1.01.07.14.14.29.14.43.07.07.07.14.07.29s.07.22.14.36c0,.14.07.29.07.43s.07.22.14.36c.07.14.14.29.14.43-.07.14.07.29.07.43.07.22.14.36.14.57.07.36.14.72.21,1.01v.5c0,.29-.07.5-.07.79v.65c.07.36.22.65.22,1.01v1.29c0,.29-.07.58-.07.93v.22c0,.14-.07.36,0,.58,0,.43-.07.86-.07,1.22,0,.29-.07.58-.07.86,0,.14-.07.36-.07.57-.07.07-.07.22-.07.29-.07.29-.07.57-.07.79-.07.14-.07.29-.07.43s-.07.36-.07.5v.29c0,.22,0,.36-.07.58v.14c.07.22.14.22.29.14s.29-.07.43-.14c.29-.07.5-.22.79-.29.14-.07.36-.07.5-.14.21-.07.36-.14.5-.14.36-.14.65-.22.93-.29.14-.07.29-.07.43-.14,0,0,.07-.07.14-.07.22,0,.43-.07.72-.07.07,0,.21-.07.29-.07h.57q.07,0,.07.07c.07,0,0,0,0,.07,0,.22.07.22.29.22.07.07.14.07.22.07s.14.07.21.07h.86q.07.07.14.07c.29-.07.5.07.79.07q.07.07.14.07h1.01Zm-17.6,2.08v-.57c-.07-.36-.07-.65-.07-1.01-.07-.14-.07-.29-.07-.43,0-.36-.07-.72-.14-1.15v-1.22c0-.14-.07-.22-.07-.36v-.14h-.07c0,.07-.07.14-.14.22-.07.36-.21.65-.36,1.01-.07.14-.14.29-.14.43-.07.07,0,.14-.07.22,0,.14-.07.22-.14.36,0,.07,0,.14-.07.22-.07.14-.14.36-.21.5-.07.22-.14.43-.22.65-.07.14-.07.29-.14.43v.22c-.07.29-.21.5-.29.79,0,0-.07.07-.07.14-.07.07-.07.14-.07.21.07,0,.14.07.22,0h.36c.07-.07.22-.07.36-.07.22-.07.43-.14.65-.14.21-.07.36-.07.57-.07.14,0,.21-.07.21-.22Zm.36,14.58c-.14.14-.29.22-.21.43,0,.14,0,.29-.07.36,0,.14,0,.29.07.43.14-.14,0-.29.07-.43.14,0,.14-.07.14-.22s-.07-.29,0-.5v-.07Zm0,2.87c0,.07-.14,0-.21,0v-.57c0,.22.07.29.21.43,0,.07.07.14,0,.14Zm0-.65c0,.07.07.07.07.14h-.21v-.07c.07,0,.14,0,.14-.07Zm.29-.5c-.07-.07-.14-.07-.14-.07,0-.14.07-.22.07-.36,0-.07,0-.22-.07-.29v.22c-.07.14-.07.36-.14.5,0,.07.07.07.07.14.07-.07.14-.14.22-.14Zm0-1.65h-.14c0,.07.07.07.07.14h.07v-.14Zm.21,3.38s-.07,0-.07.07c-.07.07-.14.22-.07.36h.07c0-.14.07-.29.07-.43Zm-.07-.43v.22c0-.07.07-.07.07-.07v-.29c-.07,0-.14.07-.07.14Zm.07-.72c0,.07.07.07.07.07.07-.07.07-.14.07-.22v-.29c-.21,0-.14.14-.21.22,0,.07.07.14.07.22Zm.22,1.08c0-.07-.14-.07-.22-.14,0,.14.07.29.07.43h.07c0-.14.07-.22.07-.29Zm-.07,2.23c0,.07.07.14.07.22h-.14v-.22h.07Zm.29-6.11c0-.07,0-.14-.14-.14-.07,0-.07.07-.14.22.07,0,.07.07.14.07s.14-.07.14-.14Zm1.15.14c-.07-.07-.07-.14-.22-.14q-.07.21.14.36c0-.07.07-.14.07-.22Zm1.29-3.3h-.14c.07.07.07.22.07.29h.07v-.29Zm.29-.86v.14c0,.07-.07.07-.07.07l-.07-.07v-.07c-.07,0-.07.07-.14.07q0,.07-.07.14v.29c-.07.07.07.22.14.22.07-.07.07-.14.14-.14,0-.07.07-.14.07-.14.22.07.14-.14.22-.22,0-.14-.07-.29-.22-.29Zm-.07,2.87c.07.14,0,.22-.07.29-.07-.14-.07-.22.07-.29Zm.29-3.16l-.07-.07q-.07,0-.14.07l.14.14c0-.07.07-.07.07-.14Zm-.07,1.8c0,.07,0,.14-.07.14s-.07-.07-.07-.22c.07.07.14.07.14.07Zm.58-1.08c-.07.14-.07.29-.14.43,0,.07,0,.14-.07.14-.07-.29-.07-.57.14-.79.14.07.07.14.07.22Z"/>
      <path class="cls-1" d="m80.98,24.94c0,.36-.07.65-.36.93-.29.29-.72.58-1.08.79-.29.07-.36.14-.5.29-.07.14-.29.43-.5.5-.36.22-.72.5-.86.79-.29.07-.57.14-.65.14-.29.43-.58.65-.79,1.01-.22.29-.5.72-.65,1.01,0,.36.07.57.14.86h.43c.14.29.14.43,0,.5-.43.22-.65.72-1.01.86-.22.07-.29.14-.36.36-.14.65-.86.86-1.01,1.58,0,0,0,.07-.14.07-.29.22-.36.58-.5.86-.21.36-.5.65-1.01.5,0,0-.07,0-.14.07-.07.14-.22.5-.36.72-.22.29-.43.5-.79.36-.79.79-1.51,1.51-2.23,2.23-.43.36-.93.79-1.44,1.22-.14.14-.29.22-.36.29-.21.14-.36.29-.57.29-.07.14-.14.14-.21.22-.72.5-2.01,1.29-2.95,1.51-.07.07-.21.07-.29.14-.22.14-.58.14-.79.14-.29,0-.5,0-.57-.29-.29.07-.65.07-.93.14-.29.07-.58.07-.79.36-.21.22-.5.29-.79.29h-1.44c-.36-.22-.72-.29-1.01-.58-.43-.22-.5-.57-.22-.93.07-.07.14-.14.22-.29q.07.14.14.22c.14-.07.14-.29.07-.36-.21-.29-.36-.65-.72-.86-.57-.29-.79-.86-.79-1.44-.07-.65.07-1.29.43-1.94.07-.07.14-.14.36-.29-.07.43-.14.79-.22,1.15.14-.07.14-.14.22-.29.07-.07.14-.22.14-.29.5-1.51,1.08-2.95,1.51-4.38.29-.93.5-1.8.93-2.8.14-1.01.58-1.87.79-2.87.07-.14.07-.22.14-.36.07-.36.21-.65.36-1.01.07-.29.14-.5.22-.86,0,0,.07-.07.07-.14-.07,0-.07.07-.14.07l-.07-.07c0-.07.07-.14.07-.22q.07.07.14.14c0-.07.07-.14.07-.14,0-.22,0-.29.07-.36.36-.72.43-1.51.57-2.3.14-.58.43-1.22.5-1.8.14-.58.21-1.01.29-1.51,0-.14-.07-.22-.07-.43-.14.14-.29.22-.36.22.22-2.01,1.8-8.33,2.23-10.34.22-1.22.36-2.37.65-3.59.14-.79.29-1.72.43-2.51.14-.29.29-.36.43-.65.43,0,.72-.07,1.15-.07.14.21.43.36.79.36.14,0,.29,0,.36.07.29.22.58.29.93.29.43.07.72.43,1.01.65.21.36.5.58.65.86.14.14.21.29.43.43.21.22.36.5.43.79.29.07.14-.14.29-.14h.14c.14.14.21.29.29.57,0,.29,0,.65.29.79-.21.36.29.65.22,1.01-.07.07,0,.22,0,.22.29.36.21.79.14,1.22,0,.43.07.86.07,1.22-.07.65-.07,1.36-.21,2.01-.07.5-1.29,5.39-1.36,5.89,0,.22,0,.36-.07.43-.21.5-.21,1.08-.36,1.51-.07.43-.14.86-.29,1.29-.07.07-.07.22,0,.43,0,.14,0,.29-.21.36-.07.07-.22.29-.36.36-.07.14-.14,0-.22-.07-.14.29-.07.5,0,.79.36,0,.29-.5.58-.65.07.21.07.36.14.65,0,0,0,.07.07.07-.14.14-.29.29-.57.36-.22.29-.43.43-.43.79,0,.22-.14.36-.22.5,0,0,.07,0,.07.07.29-.22.36-.65.57-.79.14.07.07.14.07.22-.14.43-.29.86-.29,1.22s-.14.57-.5.65c-.21.07-.36.22-.36.5,0,.43-.36.79-.57,1.22.36-.22.72-.36,1.01-.5-.07.14-.21.36-.29.58-.29,0-.5,0-.72-.07l-.07.07v.5c.14.14.29.22.36.29,0,.22.07.58,0,.72-.07.29-.07.72-.57.79,0-.07-.07-.22-.14-.43.14,0,.29-.07.43-.14-.07-.14-.14-.36-.29-.57-.22,0-.07.22-.14.29-.14.29-.29.65-.43.86-.29.5-.43.93-.14,1.51-.43.36-.72.72-.86,1.15-.07.07-.07.14-.14.14-.5.22-.57.57-.29,1.01.07,0,.14-.07.22-.07.14-.07.21-.22.29-.29.36-.29.79-.29,1.15-.65.21-.22.65-.43,1.01-.5.07,0,.21-.07.29-.14.57-.43,1.08-.79,1.65-1.29.14,0,.22-.14.36-.14.36-.14.72-.5,1.01-.72.14-.22.43-.36.65-.58.21-.22.57-.5.86-.72.14-.14.36-.29.58-.36.29-.14.57-.36.79-.57.86-.72,1.94-1.22,2.87-1.72,1.22-.5,2.51-.93,3.73-1.44.07-.07.14,0,.21,0Zm-23.85,17.1v.07-.07Zm2.66.36c-.21-.22-.43-.22-.65-.22-.43.07-.93.07-1.36.14-.14.22-.29.5-.29.79.36.14.57.07.93,0,.43-.14.93-.29,1.36-.72Zm-1.01-14.29c-.07-.14-.22-.36-.29-.43v-.14c0-.65.29-1.22.43-1.8,0-.07.14-.07.14-.14.21.14.07.43.07.57,0,.07.14.14.21.22,0,.58-.14,1.15-.57,1.72Zm.29-5.96v-.14s0,.07.07.07q-.07,0-.07.07Zm.29,3.3c-.07-.07-.07-.14-.07-.14.07-.29.14-.43.22-.65,0-.07.07-.14.07-.29-.07-.5.21-1.08.43-1.65.07-.14.07-.21.07-.36s-.07-.22,0-.29c0-.14.07-.22.21-.22.22,0,.29.14.29.22-.07.29-.07.5-.14.65,0,.14-.14.22-.14.43.43.43.43.5.14.86-.14-.07-.14-.22-.22-.36,0,0-.07,0-.07.14-.14.29-.29.58-.43.93,0,.07,0,.22-.14.43,0,.14-.07.22-.22.29Zm.86-1.15l.07.07v.29c0,.07-.07.07-.07.07-.07,0-.07-.07-.07-.07,0-.07.07-.14.07-.36Zm.65-3.23s-.07.07-.14.22c.07-.86.43-1.51.5-2.23,0,.14.07.36,0,.58-.07.43-.21.93-.36,1.44Zm6.39,9.91c0-.07.07,0,.07,0,0,.07-.07.07-.07.07h-.07q0-.07.07-.07Zm1.36-3.52c0-.07-.07-.14-.07-.14.07,0,.07.07.07.14Z"/>
      <path class="cls-1" d="m111.93,9.86c.14.43.21.58,0,.79-.43.5-.57,1.22-1.01,1.87.14.65.43,1.29-.14,1.8-.14,0-.29,0-.43-.07-.07.21-.22.36-.22.57s-.07.43-.14.72c0,.14,0,.43.07.5.43.43.29.86.07,1.29-.07.14-.14.36-.14.5.07.58-.22,1.08-.36,1.51-.29.72-.57,1.44-.65,2.23,0,.22-.07.36-.22.58-.21.29-.29.57-.21.86.14.43,0,.79-.22,1.08-.14.22-.21.43-.29.72-.07.43-.22.79-.29,1.22-.07.14-.14.36.07.5.07,0,.07.14.07.29-.07.72-.14,1.36-.21,2.08-.07.43-.07.93.07,1.36.07.14,0,.36,0,.5-.07.07-.22.22-.29.36.36.58.14,1.15-.07,1.72,0,.07-.14.22-.21.29-.29.07-.43.36-.58.65-.14.36-.36.65-.57,1.01,0,.14-.07.29-.07.36s0,.07.07.07c0,0,.07.07.14,0,.07-.14.22-.29.29-.5l.14.14c-.36.79-.43,1.72-1.15,2.3-.29-.14-.36-.22-.22-.36.07-.14.14-.22.22-.36v-.22c-.86.5-1.08,1.08-.93,1.87.07.29.07.58.14.86-.14.22-.36.43-.5.65-.14.36-.43.29-.65.5-.29.14-.29.5-.58.65-.21.07-.36-.07-.36-.36v-.14c-.14.36-.36.65-.36.93-.07.36-.29.57-.57.65-.22.07-.36.21-.5.36-.43.43-.93.79-1.51,1.01-.36.07-.79.21-1.08.5-.14.14-.5.22-.79.29-.57.22-1.08.43-1.72.43-.36,0-.79.14-1.15.29-.29.07-.57.07-.86,0-.36-.07-.72.29-1.08.36-.07,0-.22-.07-.29-.14-.14-.07-.29-.14-.43,0-.36.14-.72.22-1.08.22-.22.07-.36.07-.5.14-.79.43-1.65.5-2.44.79-.14.07-.36.07-.57.07,0,0-.07-.14-.21-.22.36-.14.65-.07.93-.22.29-.07.57-.07.86-.14.29-.07.57-.22.79-.36,0-.29-.14-.29-.21-.29-1.01-.22-1.94-.65-2.8-1.15-.22-.14-.43-.22-.65-.29-.5-.14-1.01-.22-1.51-.36-.21,0-.36-.07-.5-.22-.57-.36-1.15-.72-1.65-1.15s-1.01-.86-1.29-1.44c-.29-.43-.5-.86-.79-1.29-.07-.07-.14-.22-.22-.29-.21,0-.21.22-.14.29.07.43.22.86.29,1.29.21.79.57,1.44.93,2.08.07.14.07.29.14.36-.21,0-.29-.22-.43-.29-.65-1.08-1.15-2.23-1.29-3.45-.07-.79-.07-1.58-.29-2.3-.07-.29,0-.57,0-.86-.07-.79-.22-1.65-.29-2.44-.07-.36-.14-.65-.07-1.01,0-.43.07-.79-.14-1.15.14-.5,0-.93.07-1.44.07-.57.07-1.15.07-1.72,0-.79.29-1.44.57-2.16.14-.36.36-.72.5-1.08.07-.14.14-.29.22-.5.36-1.51,1.15-2.95,1.8-4.38.14-.36.36-.72.43-1.15.21-.79.72-1.51,1.01-2.23.21-.36.5-.72.72-1.08.22-.43.43-.79.65-1.22.21-.36.36-.72.65-1.01.29-.43.43-.93.72-1.44.14-.22.29-.43.43-.65.29-.36.5-.79.65-1.22.29-.79.5-1.51,1.15-2.08,0-.07.07-.14.07-.22.21-.79.86-1.29,1.29-1.94.07-.14.14-.22.22-.36.5-.14,1.01-.07,1.44.22.22.14.43.29.65.43.58.36,1.08.72,1.65,1.08.36.22.65.43.79.86,0,.36.36.58.72.79.14.14.36.22.5.36.58.43.65.86.36,1.51-.07.14-.14.29-.21.36,0,.07-.07.07-.07.14-.36.72-.65,1.51-1.01,2.23v.22c0,.65-.36,1.22-.57,1.8v.07c-.5.29-.5.86-.72,1.29,0,.14-.07.22-.14.36-.29.5-.57,1.08-.93,1.58-.07.14-.14.36-.21.57-.07.14-.14.29-.22.43-.36.36-.43.79-.57,1.22-.07.22-.14.43-.21.65-.14.58-.58,1.01-.79,1.58-.07.14-.14.22-.14.36-.14.57-.43,1.15-.65,1.65l-.07.07c-.43.86-.79,1.72-1.01,2.59,0,.14-.07.29-.14.36-.5.58-.72,1.36-1.08,2.01-.07.14,0,.36,0,.5,0,.22-.07.43-.21.58-.29.14-.29.43-.22.65.07.29.22.58-.07.86v.14c.14.5,0,.93,0,1.44-.07.58,0,1.22.07,1.8,0,.36.07.65.07,1.01,0,.29.07.5.14.79q.21.57-.22,1.15c.22.65.79,1.08,1.08,1.58.43.14.79,0,1.15-.14.65-.22,1.29-.5,1.94-.86,1.22-.5,2.23-1.36,3.02-2.44.5-.58.93-1.15,1.36-1.72.36-.57.65-1.08.93-1.65.36-.72.65-1.44.93-2.23.21-.36.29-.72.43-1.08v-.14c.43-1.15.86-2.23,1.29-3.38,0-.07.07-.14.07-.14.72-.79.86-1.8,1.15-2.66.07-.29,0-.65.07-.86.07-.29.29-.5.43-.72.14-.29.36-.5.43-.79.14-.43.29-.93.36-1.44.07-.14,0-.36.14-.5.22-.43.29-.86.43-1.36.07-.5.29-.93.43-1.44.14-.36.07-.72.43-1.01,0,0,0-.14.07-.22,0-.65.29-1.22.5-1.87.14-.58.5-1.08.5-1.72,0-.29.21-.65.36-.93.43-.86.79-1.65,1.01-2.59.07-.36.29-.65.43-.93.07-.07.14-.22.22-.36.21-.65.57-1.22.86-1.8.07-.14.14-.29.21-.43q.36-.5.36-1.08c0-.07.07-.14.07-.14.57-.29.86-.86,1.22-1.29.29-.36.57-.72.93-1.08.21-.29.5-.5.79-.72.21-.14.43-.29.57-.58s.43-.43.79-.36v.36c0,.29,0,.58-.07,1.01-.36.43-.43,1.08-.72,1.65,0,.14.07.29.07.36.29.14.43.07.57-.07.22-.14.29-.29.5-.43,0-.07.07-.07.14-.07.29.5-.22.93-.14,1.36.14.14.36.29.58.43-.14.72-.22,1.36-.36,2.01.14.07.21.14.36.22-.22.72-.22,1.51-.79,2.01-.43-.22-.07-.72-.43-1.01-.22.43-.22.79-.22,1.22-.21.14-.36.36-.5.5-.14.14-.21.36-.36.5-.22.29-.29.58-.22.93.07.07.22.21.36.29.07.07.21-.07.29-.14.21-.07.29-.29.36-.5s.14-.5.29-.79Zm-23.78,30.1q.07,0,.07-.07l-.07.07Zm18.1-6.39c0-.07,0-.14-.07-.22-.07.07-.21.14-.21.22s0,.14.07.14c.07.07.22,0,.22-.14Zm.5-4.45c-.29.07-.29.29-.36.5,0,0,.07.14.14.14,0,0,.14,0,.14-.07.14-.14.21-.36.07-.58Zm.5,2.37c0-.07-.07-.14-.14-.14-.14-.07-.14.07-.14.14s.07.14.14.14.07-.07.14-.14Zm1.51-3.23c.14-.29.29-.5.29-.65-.07-.43.21-.79-.07-1.22-.14.14-.36.29-.43.36l.21,1.51Zm.57-2.23q.07-.07.14-.14h-.22c0,.07.07.07.07.14Zm1.22-17.24c.21-.29.21-.5,0-.79-.72.22-.65.72-.57,1.44.21-.29.43-.5.57-.65Zm.29,7.9c-.07.07-.14.22-.22.36h.07c.07-.14.07-.29.14-.36Zm.21-.57c-.21.07-.21.22-.21.43.07-.14.14-.29.21-.43Zm-.21.57v-.14.14Zm1.36-7.11c.07,0,.07-.07.21-.14-.14,0-.21-.07-.21-.07-.07,0-.07.07-.14.14.07.07.14.14.14.07Z"/>
      <path class="cls-1" d="m137.36,14.03c-.07.43-.58.43-.72.79,0,0-.07.07-.14,0-.36-.07-.72,0-.86.36-.22-.07-.22-.22-.22-.29-.07-.22-.07-.43-.29-.57-.14,0-.22,0-.43.07-.07-.29-.14-.5-.22-.72-.07-.36-.29-.57-.65-.72-1.01-.36-2.08-.58-3.16-.36s-2.16.07-3.3.07h-.29c-.07,0-.14.07-.29.22.29.07.5.14.79.22.43.07.86.14,1.29.22.29,0,.5.07.72.14.07,0,.14.07.21.22-.43.14-.79.07-1.15,0-.43-.14-.79-.14-1.15.07-.29.14-.5.14-.72.07-.65,0-1.22-.22-1.87-.14-.36,0-.65.14-.94.36-.21.14-.43.22-.65.36-.21.07-.36.22-.5.5-.07.29-.36.5-.65.58-.07.07-.14.07-.22.14-.14.21-.14.43.22.57,0,.07,0,.14-.07.22,0,.07-.07.07-.14.07s-.07-.07-.14-.07c-.14-.14-.22-.14-.36,0s-.29.36-.36.5c.07.29.29.14.43.22v.14c-.36.5-.43,1.08-.65,1.65-.07.36.07.57.36.65,1.01.43,2.01,1.01,3.09,1.36.79.22,1.65.5,2.37.86.22.14.43.22.5.43-.43-.07-.86-.22-1.29-.29-.36-.14-.72-.36-1.15-.5-.14-.07-.29-.14-.5-.07-.21.07-.43,0-.57-.14q-.29-.22-.65-.22c.14.29.5.29.58.72-.43-.22-.72-.43-1.01-.72-.14-.22-.29-.43-.65-.36-.07,0-.21-.14-.36-.22-.21-.14-.36-.29-.72-.36v.36c0,.14.07.29.14.43,0,.65.43,1.01.93,1.29.86.36,1.72.79,2.59,1.22.72.29,1.44.65,2.15,1.01.5.22,1.01.43,1.51.65.07,0,.14,0,.29.07,0-.22-.07-.29-.07-.43.22.07.5.22.72.29.21.58.5,1.01,1.08,1.22.22.43.57.65.93.86.14.07.14.29.14.43v.43c.22-.14.36-.22.5-.29q.36.36.43.93c.43.29.79.5,1.22.79,0-.14.07-.29.14-.43.14-.07.29-.07.43-.14-.07-.07-.07-.14-.07-.22v-.07h.22c.07.14.14.36.21.58-.21.07-.36.14-.57.29.14.22.29.43.43.65h-.14c0,.14-.07.29-.07.36q.07.5.65.36c0,.14,0,.29.07.43.07.29.21.58.36.86.29.29.36.65.07,1.01.14.07.21.14.29.22-.07.5-.14,1.01-.21,1.58.14.07.29.22.43.36.07-.21.07-.29.07-.36-.07-.14-.21-.29-.29-.43.14-.22.29-.43.43-.65.36.36.36.5.36.79v1.08c0,.29,0,.5-.21.65-.14.07-.22.22-.29.36-.07.07-.21.14-.36.22-.07.22-.07.43-.07.65-.21.07-.36.14-.5.22,0,.07-.07.14-.07.14.21.43-.07.72-.14,1.01,0,.07-.14.14-.22.14-.29.14-.43.29-.43.58,0,.43-.29.65-.57.86-.43.36-.93.65-1.44.93-.07.07-.14.14-.29.22-.21.07-.29.22-.43.36-.21.22-.43.43-.65.57-.57.29-1.08.5-1.51.93-.22-.21.07-.36.07-.57-.07-.07-.22-.29-.29-.43h-.21c-.29.07-.58.14-.79.29-.07.14-.29.14-.36.14-.07.07-.14,0-.14.07-.57.07-1.15.07-1.51.58-.22,0-.36-.22-.58-.07-.21.14-.21.29-.29.5,0,.14-.14.29-.29.36s-.29.07-.43-.07h-.07q-.43-.43-.93-.07c-.22.21-.5.36-.86.43-.07-.14-.07-.29-.14-.36-.22-.07-.36,0-.5.14-.14.14-.22.22-.43.43-.07-.07-.14-.14-.22-.22-.07,0-.14.07-.21.07-.07-.14-.14-.29-.22-.43-.21-.07-.43.07-.5.29-.14.14-.14.29-.21.58-.22,0-.5.07-.79.22,0-.22,0-.43-.07-.58,0-.14-.14-.22-.29-.22-.07,0-.21.07-.21.07-.07.14-.07.29.07.43,0,0,0,.07.07.14-.07,0-.21.14-.29.14-.57-.07-1.08-.14-1.65-.22-.14-.07-.36-.14-.5-.22-.93-.36-1.87-.79-2.73-1.29-.72-.43-1.36-.86-2.01-1.36-.65-.5-1.15-1.08-1.58-1.72-.14-.14-.14-.36-.29-.43-.65-.58-.93-1.29-1.22-2.01,0-.07-.07-.14-.07-.14-.07-.5-.22-1.01.21-1.36.14-.14.14-.36.21-.43.07-.14.22-.22.29-.29.36.14.72.29,1.08.43,0-.43-.14-.72-.29-1.01-.65-.93-1.01-2.08-1.15-3.09,0-.22-.07-.43.07-.65.07,0,.07-.07.07-.14-.36-.22-.14-.58-.22-.86s.07-.5.14-.79c.07-.14.07-.36,0-.58-.07-.22,0-.5,0-.72.14-.5.29-1.01.43-1.51.07-.22.07-.5.36-.58h.07c.29-.5.72-.5,1.15-.36.36.14.72.14,1.01.58.14-.14.29-.22.5-.36.07.07.14.14.22.22.21-.07.07-.36.29-.43-.07.58-.14,1.15-.14,1.65,0,.43,0,.79-.07,1.22,0,.29-.14.58,0,.86.07.07,0,.22,0,.29-.07.5-.07.93.14,1.44.07.22.07.43.14.65,0,.29-.07.5.22.72.07,0,.07.14.07.22.14.29.29.58.5.79.14.14.22.36.36.57-.14.14-.22,0-.29-.07-.21-.22-.36-.36-.5-.5-.07-.07-.14-.14-.29-.22.07.65.29,1.22.57,1.65.5.79.93,1.58,1.58,2.23.14.14.29.29.43.43.22.07.36.22.43.43.07.14.14.22.22.36.21.36.57.57,1.01.57.72.07,1.36.14,2.01.29.14,0,.36,0,.5.21-.36.14-.72-.14-1.08,0-.29.14-.65-.21-1.01,0,.14.29.36.36.57.43.29.07.5.14.79.14h2.44c.29,0,.65-.07.93-.14.93-.43,1.8-.86,2.66-1.44.36-.22.65-.43,1.01-.65,0-.22-.14-.29-.29-.22-.07,0-.21.07-.29.14-.43.36-.93.43-1.44.5-.86.14-1.72.22-2.59.36-.07,0-.14.07-.21,0-.65-.14-1.22,0-1.87-.07h-.36c.07-.29.21-.43.43-.36h.36c1.58.07,3.16-.14,4.67-.65.65-.22,1.29-.43,1.87-.86.07-.07.21-.07.29-.14.5-.5.72-.5.5-1.44-.14-.57-.29-1.08-.36-1.65,0-.36-.14-.72-.43-1.01-.29-.36-.65-.72-.72-1.22,0-.14-.21-.22-.36-.36-.21-.14-.43-.29-.57-.58-.07-.14-.21-.21-.36-.36-.43-.22-.86-.5-1.29-.86-.21-.22-.5-.29-.79-.43-.58-.36-1.15-.65-1.65-1.01-.65-.43-1.22-.86-1.8-1.22-.29-.22-.57-.43-.93-.58-.5-.29-.93-.57-1.29-1.01-.14-.14-.21-.29-.43-.36-.29-.14-.43-.43-.65-.65-.21-.29-.36-.65-.57-.93-.22-.22-.22-.5-.36-.72-.5-.86-.65-1.8-.65-2.8-.07-.72.14-1.44.14-2.15,0-.07.07-.22.07-.36.43-.65.72-1.29,1.29-1.8.07-.07.14-.07.21-.14.29-.58.79-.93,1.22-1.36.36-.43.65-.86.93-1.29.36-.57.57-1.15,1.15-1.51.14-.43.57-.65.86-.93.07-.07.14-.14.29-.22.5,0,.79-.36,1.15-.57.65-.36,1.22-.86,1.79-1.22.22-.22.58-.36.86-.43.65-.07,1.15-.5,1.72-.79.07-.07.07-.29.22-.5.5-.29,1.15-.36,1.79-.5.65-.22,1.36-.07,2.01.14.57.14,1.08.29,1.65.5.22.14.5.14.65.07.21-.14.43,0,.57,0s.29.22.29.36c.07.07,0,.14,0,.22.65.43,1.51.65,1.94,1.36-.22.14-.36.22-.5.29.07.43.14.79.21,1.15.14.07.29.14.43.22.36.29.65.57.72,1.01,0,.14.07.29.14.43s.14.29.43.29c.21,0,.14.07.14.29-.07.43-.29.79-.43,1.22.14.07.29.07.36.14.14,0,.36.07.43.14.14.29.43.29.65.36Zm-21.12,29.31c0-.07-.14-.14-.22-.14-.29-.14-.57-.22-.86-.29-.21-.07-.5-.07-.57-.07-.14,0-.21-.07-.29,0-.07,0-.14.07-.21.14,0,0,.07.14.14.22.07,0,.14.07.22.07.5.14,1.01.22,1.51.36.07,0,.14,0,.21-.07.07,0,.14-.14.07-.22Zm-1.72-8.33h-.14s0-.07-.07-.14h.14s.07.07.07.14Zm1.15,1.29c.22,0,.29.07.29.29-.21,0-.29-.14-.29-.29Zm.79,1.94c0,.07-.07.07-.07.14q-.07-.07-.14-.14s.07-.07.14-.07l.07.07Zm.65.22h.07-.07Zm.43-.58c0,.07-.07.07-.07.07-.07,0-.07-.07-.07-.14h.07c.07,0,.07.07.07.07Zm.79.58h-.07.07Zm.36.29v-.14l.07.07q0,.07-.07.07Zm1.15,4.74h-.07v.07h.07v-.07Zm1.01-3.95c-.29.21-.43.21-.65.07.22-.07.36-.07.65-.07Zm.07-30.24l-.07-.07h.07v.07Zm.79,30.31c-.21,0-.29.07-.43.14-.07,0-.14-.07-.22-.07.07-.07.14-.14.14-.22.14,0,.36-.14.5.14Zm0-31.17v-.07c0-.07.07-.14.14-.22h.07s0,.07.07.07c-.07.07-.07.14-.14.22h-.14Zm.79,31.03c-.07,0-.14-.07-.29-.07v-.07c.07-.07.14-.14.21-.14s.21.07.43.07c-.22.14-.29.14-.36.22Zm.57-31.75c-.07-.07-.07-.14-.07-.22.07-.14.22-.22.43-.14-.07.14-.07.21-.14.29-.07.07-.14.07-.22.07Zm1.22-.65c-.14-.14-.14-.22,0-.29.29-.07.57-.22.86-.29-.29.14-.57.36-.86.57Zm.86,15.44c-.36-.07-.5-.14-.57-.36q.21,0,.57.36Zm-.29-8.48h-.14.14Zm0,0c0-.14.07-.22.07-.36.07.14.07.29-.14.36h.07Zm.36-7.61l-.07.07.07-.07h.14-.14Zm0,6.39v.07-.07Zm.36,9.48h.07-.07Zm2.8,2.37c-.36-.07-.57-.5-.93-.72-.14-.14-.29-.22-.5-.36-.43-.22-.79-.5-1.22-.72.14-.07.29-.14.43-.22.14.14.22.29.36.36.14.14.29.14.5.22,0-.07.07-.14.21-.22.29.14.58.29.86.43-.07.21-.07.36-.07.5.14.22.5.29.36.72Zm-1.44,19.04c.07.07.14.14.21.29-.14.07-.36.14-.57.22q.22-.65.5-.86,0,.14-.14.36Zm.36-21.41s-.07-.07-.07,0v-.07q.07,0,.07.07Zm-.07,0v-.07.07Zm.07,0c.43-.07.79.14,1.08.5q-.36,0-1.08-.5Zm.57,21.41c.07,0,.07.07.14.07-.07,0-.14.07-.14.07-.07.07-.07,0-.14,0,.07-.07.07-.14.14-.14Zm.57-19.04h-.07.07Zm1.87-.36c-.21-.07-.79-.43-1.58-1.22.14,0,.21-.07.21-.07.65.22,1.08.72,1.36,1.29Zm-.79,18.39h.14c.29-.22.65-.43.86-.65.07,0,.14-.14.14-.14v-.14c-.07-.07-.14-.07-.14-.07-.29.14-.65.36-.93.5-.07.07-.07.14-.14.22-.07.14-.07.22.07.29Zm1.29-31.32c-.21-.07-.43-.14-.72-.22.07.22.14.29.14.43-.07.07-.21.14-.36.22.22.07.29.14.5.22,0-.36.5-.22.43-.65Zm1.8,14.87c-.21.43-.07.93,0,1.44-.07-.07-.14-.14-.21-.22-.22-.65-.58-1.15-1.08-1.65-.29-.29-.5-.65-.79-1.01.14-.07.21-.14.36-.22.22-.07.36,0,.36.14-.07.36.22.58.29.86s.29.43.57.43c.14,0,.29,0,.5.22Zm-.5-14.65c-.14-.14-.29-.14-.5-.07l-.07.14c0,.07.07.14.14.14.22.07.36,0,.43-.22Zm.72.29c-.07,0-.07-.07-.07-.07l-.07.07q.07.07.14.07v-.07Zm.07,15.87c.14-.22.36-.14.57-.22-.21.36-.43.65-.65.93-.14-.29-.14-.5.07-.72Zm1.22-18.32h-.14q.07.07.14.07v-.07Zm.29-1.72c-.07-.07-.07-.14-.14-.22h.21c.07,0,.07.07.14.22h-.22Zm-.14,22.27h.14-.14Zm.36,3.16c.29-.5.36-.5.29-.65-.14-.29,0-.58-.36-.72-.21.14-.14.29-.21.5-.14.36-.07.57.29.86Zm1.15,4.38c-.21-.07-.21-.14-.14-.22.21-.14.36-.36.72-.36-.07.43-.43.43-.57.58Zm.5,0s.07.07.07.14c-.07,0-.14.07-.14.07-.07,0-.07-.07-.07-.07.07-.07.07-.14.14-.14Z"/>
    </g>
  </g>
</svg>