<?xml version="1.0" encoding="UTF-8"?>
<svg id="Layer_2" data-name="Layer 2" xmlns="http://www.w3.org/2000/svg" viewBox="0 0 780.65 244.02">
  <defs>
    <style>
      .cls-1 {
        fill: #c41a2f;
        stroke-width: 0px;
      }
    </style>
  </defs>
  <g id="Layer_1-2" data-name="Layer 1">
    <g>
      <path class="cls-1" d="m26.88,189.09c1.54,3.88,5.23,5.75,10.15,8.08,11.76,5.55,13.96,6.23,13.96,6.23,27.05,8.42,38.31,11.08,38.31,11.08,9.62,2.27,19.15,4.51,33.23,7.38,11.49,2.35,24.45,4.99,40.15,7.38,8.53,1.3,17.52,2.47,45.23,5.08,23.29,2.19,38.63,3.64,59.08,5.08,38.82,2.74,74.22,5.23,119.69,4.48,25.86-.43,47.19-1.97,89.85-5.08,34.51-2.52,53.43-3.93,79.38-7.38,7.65-1.02,38.04-5.16,78.46-13.85,0,0,48.59-9.77,122.31-33.69,1.8-.58,5.66-2.37,13.38-5.94.68-.32,2.07-.97,3.58-2.25,1.05-.89,2.26-2.14,3.46-4.27,1.71-3.03,2.76-6.46,3.12-8.65,2.66-16.68-8.08-51.58-8.08-51.58-5.79-18.83-8.69-28.24-11.54-35.54-4.87-12.48-8.79-22.68-15.69-34.15C735.64,26.09,719.43-.84,699.11.02c-8.87.38-15.89,5.93-22.42,11.1-3.3,2.61-9.07,7.72-19.34,24.31-9.09,14.69-14.5,26.73-15.58,29.15-13.14,29.52-21.26,55.25-24.77,66.85-1.84,6.07-3.82,12.92-5.87,20.5-1.07,3.98,4.59,6.02,6.3,2.28,3.92-8.58,7.46-16.01,10.49-22.24,2.12-4.35,6.73-13.72,13.15-25.62,6.64-12.29,12.43-21.8,17.54-29.77,7.19-11.23,10.97-16.04,13-18.54,10.96-13.5,17.15-16.61,22.54-17.69,1.39-.28,4.55-.88,8.47-.21,8.97,1.53,14.83,8.52,20.53,16.5,9.37,13.12,15.27,24.7,18.92,32.15,0,0,15.43,31.44,20.62,56.1.2.95.44,2.71.92,6.23.16,1.15.39,2.92.16,5.22,0,0-.05.53-.12,1.01-1.43,9.48-65.35,20.77-65.35,20.77-20.79,3.67-20.34,3.91-21.61,4.26-6.33,1.75-10.87,1.92-12.08,1.97-7.7.31-37.85,6.83-89.54,13.98-16.12,2.23-24.97,3.45-38.08,4.85-19.76,2.1-31.69,2.72-77.89,5.8-32.91,2.2-27.96,1.96-35.2,2.38-19.9,1.17-59.06,3.09-108.6,2.67-35.99-.31-62.95-1.74-82-2.77-43.74-2.37-65.61-3.55-91.82-7.59-33.46-5.16-50.19-7.74-65.72-11.64-19.93-5-46.72-13.14-49.46-7.54-.69,1.42.19,3.64.58,4.62Z"/>
      <path class="cls-1" d="m43.94,165.58c-5.85-.63-17.27-.21-17.27-.21-2.53.09-5.1.06-7.87.08-3.5.03-5.81.03-8.99.43-3.58.46-4.81.99-5.79,1.59-.53.33-2.65,1.65-3.58,3.95-1.21,3.01.25,6.19,1.17,8.19,2.32,5.07,3.48,7.6,17.35,31.26.1.16.43.72,1.08,1.1,1.11.64,2.51.41,3.37-.19,1.31-.9,1.8-2.92.96-4.76-5.36-10.12-10.73-20.25-16.09-30.37-.08-.14-.2-.36-.3-.64-.21-.54-.39-1.03-.22-1.56.15-.49.52-.75.59-.8.34-.24.69-.27.84-.27,16.28-1,28.42-1.88,32.92-2.26,1.44-.12,4.57-.42,5.27-2.16.34-.86-.04-1.72-.08-1.8-.59-1.29-2.51-1.51-3.37-1.6Z"/>
    </g>
  </g>
</svg>