<?xml version="1.0" encoding="UTF-8"?>
<svg id="Layer_2" xmlns="http://www.w3.org/2000/svg" viewBox="0 0 243.29 47.8">
  <defs>
    <style>
      .cls-1 {
        fill: #fff;
      }
    </style>
  </defs>
  <g id="Layer_1-2" data-name="Layer_1">
    <g>
      <path class="cls-1" d="M45.1,12.72v23.14h-27.75C5.4,35.86-2.71,31.49.84,13.87l11.9,2.3-3.12,8.11h23.95l-2.35-12.72,13.87,1.15ZM17.98,13.25l-4.32-4.42,4.32-4.37,3.6,3.7,4.51-4.61,4.8,4.8-4.8,4.75-3.98-4.03-4.13,4.18Z"/>
      <path class="cls-1" d="M41.02,24.29h7.82v-6.96l11.95-4.75-1.97,11.71h3.07v-5.76l10.42-3.5-1.15,9.27h4.61l-2.3-12.72,12.72,1.15v23.14h-45.17v-11.57Z"/>
      <path class="cls-1" d="M91.37,11.47l13.87,1.1v23.28h-23.14v-11.57h11.57l-2.3-12.82ZM90.39,47.8l-4.32-4.42,4.32-4.37,3.6,3.7,4.51-4.61,4.8,4.8-4.8,4.75-3.98-4.03-4.13,4.18ZM111.39,18.8l-4.32-4.42,4.32-4.37,3.6,3.7,4.51-4.61,4.8,4.8-4.8,4.75-3.98-4.03-4.13,4.18Z"/>
      <path class="cls-1" d="M102.22,40.47l9.27-4.61-4.61-12.72,15.02-3.46v16.18l-2.3,11.57-17.38-6.96ZM109.89,5.72l4.75-4.75,4.75,4.8-4.75,4.8-4.75-4.85Z"/>
      <path class="cls-1" d="M127.08,11.47l13.87,1.1v23.28h-23.14v-11.57h11.57l-2.3-12.82ZM129.1,10.8l-4.32-4.42,4.32-4.37,3.6,3.7,4.51-4.61,4.8,4.8-4.8,4.75-3.98-4.03-4.13,4.18Z"/>
      <path class="cls-1" d="M141,2.3l12.72-2.3v35.86h-9.22l-3.5-33.55Z"/>
      <path class="cls-1" d="M150.7,40.47l9.27-4.61-4.61-12.72,15.02-3.46v16.18l-2.3,11.57-17.38-6.96Z"/>
      <path class="cls-1" d="M175.56,12.53l13.87,1.15v22.18h-23.14v-11.57h11.57l-2.3-11.76ZM177.58,10.8l-4.32-4.42,4.32-4.37,3.6,3.7,4.51-4.61,4.8,4.8-4.8,4.75-3.98-4.03-4.13,4.18Z"/>
      <path class="cls-1" d="M209.79,35.86h-24.43v-11.57h7.82v-6.96l11.95-4.75-1.97,11.71h3.07v-5.76l10.61-3.5-1.34,12.53h4.61l-2.3-15.99,12.72,1.15v26.02h-21.31l.58-2.88Z"/>
      <path class="cls-1" d="M230.57,2.3l12.72-2.3v35.86h-9.22l-3.5-33.55Z"/>
    </g>
  </g>
</svg>