<?xml version="1.0" encoding="UTF-8"?>
<svg id="Layer_2" xmlns="http://www.w3.org/2000/svg" viewBox="0 0 204.43 46.56">
  <defs>
    <style>
      .cls-1 {
        fill: #fff;
      }
    </style>
  </defs>
  <g id="Layer_1-2" data-name="Layer_1">
    <g>
      <path class="cls-1" d="M0,20.21c0-4.1,2.16-7.84,6.48-11.23l7.87,5.28c-3.55,2.27-5.33,4.66-5.33,7.15,0,1.31.73,3.02,2.18,5.14,1.46,2.11,2.18,3.76,2.18,4.94,0,4.19-2.88,7.42-8.64,9.7l-2.11-2.83c2.53-1.38,3.79-2.9,3.79-4.56,0-1.57-1.07-3.55-3.22-5.95-.8-.9-1.54-2.03-2.21-3.41-.67-1.38-1.01-2.78-1.01-4.22Z"/>
      <path class="cls-1" d="M22.08,36.72l-2.06-19.39-4.42.62-.29-4.94,4.22-.19-.72-6.72,11.95-1.58-.96,7.78,4.75-.24-.14,3.22-5.09.72-2.5,20.3-4.75.43Z"/>
      <path class="cls-1" d="M51.5,20.21c-2.18,0-3.82.76-4.94,2.28-1.12,1.52-1.94,4.31-2.45,8.38l-.67,5.42-4.75.43-2.45-23.81,10.27-1.58-.96,7.68h.34c2.56-5.5,5.82-8.43,9.79-8.78l-1.34,10.22c-1.18-.16-2.13-.24-2.83-.24Z"/>
      <path class="cls-1" d="M59.76,37.1c-.54,0-.94-.02-1.2-.05-1.09-.74-1.96-1.83-2.62-3.29-.66-1.46-.98-2.97-.98-4.54,0-2.05.78-3.54,2.33-4.46,1.55-.93,4.41-1.39,8.57-1.39,1.54,0,3.14.11,4.8.34l-.1-1.06c-.13-1.28-.74-2.3-1.82-3.05-1.09-.75-2.48-1.13-4.18-1.13s-3.39.53-5.09,1.58l-2.11-6.96c2.75-1.12,5.89-1.68,9.41-1.68s6.3.79,8.35,2.38,3.07,4.06,3.07,7.42c0,.77-.03,1.38-.1,1.82l-1.34,13.25-4.75.43-.72-6.96h-.38c-1.09,2.3-2.59,4.1-4.51,5.4-1.92,1.3-4.13,1.94-6.62,1.94ZM70.85,25.73l-2.54-.05c-2.11,0-3.84.11-5.18.34-.45.9-.67,1.7-.67,2.4s.1,1.38.29,2.02c.19.64.4,1.07.62,1.3,3.84-.61,6.34-2.61,7.49-6Z"/>
      <path class="cls-1" d="M85.97,36.72l-2.06-19.39-4.42.62-.29-4.94,4.22-.19-.72-6.72,11.95-1.58-.96,7.78,4.75-.24-.14,3.22-5.09.72-2.5,20.3-4.75.43Z"/>
      <path class="cls-1" d="M108.38,10.13c7.74,3.1,11.62,6.96,11.62,11.57,0,2.4-.68,4.14-2.04,5.21-1.36,1.07-3.88,1.61-7.56,1.61-2.34,0-4.26-.18-5.76-.53-.61,1.5-.91,3.07-.91,4.7,1.44.19,3.07.29,4.9.29,3.33,0,6.46-.53,9.41-1.58l1.44,4.66c-2.34.74-4.96,1.1-7.87,1.1-5.18,0-8.99-.94-11.42-2.83-.51-2.27-.77-4.42-.77-6.43,0-4.03.89-7.66,2.66-10.9,1.78-3.23,3.88-5.52,6.31-6.86ZM105.6,25.73c.42.03,1.46.05,3.14.05s3.61-.22,5.78-.67c.1-.61.14-1.22.14-1.82,0-1.92-.53-3.76-1.58-5.52-3.17,2.11-5.66,4.77-7.49,7.97Z"/>
      <path class="cls-1" d="M139.58,46.56c-3.2,0-6.5-1.12-9.89-3.36l1.34-2.4c2.85,1.25,5.21,1.87,7.08,1.87s3.25-.5,4.13-1.49c.88-.99,1.32-2.32,1.32-3.98,0-.51-.34-4.05-1.01-10.61h-.38c-2.37,6.37-6.4,9.55-12.1,9.55-.77,0-1.41-.13-1.92-.38-1.18-1.18-2.14-2.92-2.86-5.21-.72-2.29-1.08-4.86-1.08-7.7,0-3.68.74-6.38,2.23-8.09,1.49-1.71,4.07-2.57,7.75-2.57,2.69,0,5.01.64,6.96,1.92l1.06-1.39,9.22-1.39-3.31,26.83c-.32,2.59-1.22,4.64-2.69,6.14-1.47,1.5-3.42,2.26-5.86,2.26ZM136.08,15.02c-1.18,0-2.19.22-3.02.67-.45,2.18-.67,4.43-.67,6.77s.1,4.39.29,6.17c.19,1.78.42,2.98.67,3.62,1.54-.29,3.17-1.33,4.9-3.12.93-.96,1.69-2.34,2.28-4.15.59-1.81.89-3.86.89-6.17,0-.38-.03-1.09-.1-2.11-1.47-1.12-3.22-1.68-5.23-1.68Z"/>
      <path class="cls-1" d="M158.21,36.72l-2.45-23.76,10.27-1.58-3.07,24.91-4.75.43ZM157.27,7.61c-.88-.88-1.32-1.93-1.32-3.14s.44-2.26,1.32-3.14c.88-.88,1.93-1.32,3.14-1.32s2.26.44,3.14,1.32c.88.88,1.32,1.93,1.32,3.14s-.44,2.26-1.32,3.14c-.88.88-1.93,1.32-3.14,1.32s-2.26-.44-3.14-1.32Z"/>
      <path class="cls-1" d="M169.87,20.21c0-4.1,2.16-7.84,6.48-11.23l7.87,5.28c-3.55,2.27-5.33,4.66-5.33,7.15,0,1.31.73,3.02,2.18,5.14,1.46,2.11,2.18,3.76,2.18,4.94,0,4.19-2.88,7.42-8.64,9.7l-2.11-2.83c2.53-1.38,3.79-2.9,3.79-4.56,0-1.57-1.07-3.55-3.22-5.95-.8-.9-1.54-2.03-2.21-3.41-.67-1.38-1.01-2.78-1.01-4.22Z"/>
      <path class="cls-1" d="M191.95,36.72l-2.06-19.39-4.42.62-.29-4.94,4.22-.19-.72-6.72,11.95-1.58-.96,7.78,4.75-.24-.14,3.22-5.09.72-2.5,20.3-4.75.43Z"/>
    </g>
  </g>
</svg>