<?xml version="1.0" encoding="UTF-8"?>
<svg id="Layer_2" xmlns="http://www.w3.org/2000/svg" viewBox="0 0 234.2 31.84">
  <defs>
    <style>
      .cls-1 {
        fill: #029a49;
      }
    </style>
  </defs>
  <g id="Layer_1-2" data-name="Layer_1">
    <g>
      <path class="cls-1" d="M6.42,28.4h-.12c-2.25,0-3.9-.63-4.96-1.88C.5,25.51.05,24.12,0,22.35c-.05-2,.32-4.01,1.11-6.03h1.71c-.46,2.11-.49,3.54-.09,4.31.48.95,1.71,1.46,3.69,1.53v6.24ZM7.16,22.16c2.3-.04,3.8-.49,4.52-1.37.82-1,.74-3.15-.23-6.45-.82-2.8-1.69-4.86-2.6-6.17l4.75-4.43c.22-.2.35-.3.37-.3s.11.14.25.42c.21.43.54,1.12.98,2.07.45.94.78,1.63,1,2.07.32.64.24,1.24-.23,1.78-.46.54-1.03.7-1.71.49v5.13c0,.34.09.71.26,1.12s.6.68,1.27.81h.7v6.03h-.18c-1,0-1.71-.32-2.14-.95-.23,1.69-.84,3.01-1.81,3.97-1.21,1.18-2.94,1.85-5.2,1.99v-6.22Z"/>
      <path class="cls-1" d="M26.3,23.37h-1.11c-1.34,0-2.48-.64-3.43-1.92-.95,1.28-2.08,1.92-3.39,1.92h-1.11v-6.03h1.95c.35,0,.67-.13.95-.39.27-.27.4-.59.4-.97v-1.9h2.43v1.9c0,.36.14.69.42.97.27.26.59.39.95.39h1.93v6.03ZM23.89,26.73c.11-.11.11-.22,0-.33l-1.95-1.93c-.11-.11-.21-.11-.32,0l-1.95,1.93c-.11.12-.11.23,0,.33l1.95,1.93c.11.12.21.12.32,0l1.95-1.93Z"/>
      <path class="cls-1" d="M33.7,10.94c-.23-.56-.63-1-1.2-1.32-.3-.16-.63-.28-.98-.35v-4.45h.14c1.8,0,3.12.6,3.96,1.79.57.81.86,1.7.86,2.67l-.02,6.03h.02v2.02c-.07.97-.32,1.95-.74,2.94-.87,1.97-2.23,3-4.08,3.09h-4.52v-6.03h5.19c.15.01.32-.02.51-.11.38-.15.66-.44.84-.86h-2.16v-5.43h2.18ZM29.06,10.08c-.12.14-.19.32-.21.53-.02.22.05.33.21.33h1.74v5.43h-1.16c-.53,0-1-.13-1.42-.4-.59-.38-.88-.93-.88-1.67v-5.03c0-.88.21-1.69.62-2.44.6-1.11,1.55-1.76,2.85-1.95v4.34c-.71.01-1.29.3-1.74.86ZM31.73,2.35c.12-.11.12-.22,0-.33l-1.93-1.93c-.11-.11-.21-.11-.32,0l-1.95,1.93c-.11.12-.11.23,0,.33l1.95,1.93c.11.12.21.12.32,0l1.93-1.93ZM36.07,2.35c.12-.11.12-.22,0-.33l-1.93-1.93c-.11-.11-.22-.11-.33,0l-1.93,1.93c-.11.12-.11.23,0,.33l1.93,1.93c.12.12.23.12.33,0l1.93-1.93Z"/>
      <path class="cls-1" d="M51.44,31.84h-.44c-2.45,0-4.28-.63-5.5-1.88-.96-1.01-1.51-2.4-1.63-4.17-.14-2,.16-4.01.9-6.03h1.86c-.49,2.11-.47,3.63.05,4.55.67,1.18,2.23,1.78,4.69,1.78h.07v5.75ZM52.18,26.08c2.54-.08,4.25-.56,5.13-1.42.38-.38.5-.67.37-.9-.11-.19-.39-.29-.86-.3-2.52-.05-4.08-.19-4.68-.42-.94-.35-1.61-1.04-2-2.07-.29-.75-.42-1.59-.37-2.51h7.91c1.25,0,2.09.49,2.51,1.46.27.61.4,1.63.4,3.06,0,2.84-.9,5.04-2.69,6.61-1.48,1.3-3.39,2.04-5.73,2.21v-5.71ZM49.84,17.71c.26-1.72.91-3.07,1.95-4.04.94-.87,2.06-1.32,3.38-1.37,1.25-.06,2.38.26,3.38.97,1.05.73,1.71,1.71,1.95,2.95h-6.93c-.38,0-.69.11-.95.33-.26.21-.39.47-.39.77,0,.14.02.27.07.39h-2.46Z"/>
      <path class="cls-1" d="M69.69,17.34v6.03h-2.67c-1.12,0-2.08-.5-2.87-1.51-.8-1-1.2-2.2-1.2-3.62v-8.96c-.39.04-.72-.06-1-.28-.26-.21-.43-.49-.53-.83-.09-.35-.09-.69.02-1.02.12-.36.33-.66.63-.88,1.8-1.2,3.1-2.07,3.88-2.64.3-.21.56-.25.77-.12.21.14.31.39.3.74v11.23c0,.63.12,1.1.35,1.39.26.32.68.47,1.27.47h1.04Z"/>
      <path class="cls-1" d="M76.79,13.61c-.28.14-.47.36-.56.65l-1.04,3.08h2.36l.79-2.36c.11-.29.09-.58-.05-.86-.07-.13-.15-.24-.25-.33l.83-2.29c.68.28,1.18.76,1.51,1.44.38.75.43,1.52.16,2.32l-1.46,4.54c-.25.81-.42,1.38-.53,1.71-.39,1.24-1.03,1.86-1.92,1.86h-6.26v-6.03h3.04l1.37-4.03c.27-.8.78-1.38,1.53-1.76.59-.28,1.19-.37,1.81-.26l-.79,2.2c-.19-.01-.37.03-.54.12ZM75.42,24.11l2.55,1.44,2-6.13c.21-.62.59-1.12,1.14-1.51.53-.38,1.11-.56,1.76-.56h1.41v6.03h-2.65c-.15-.01-.32.02-.51.11-.36.15-.63.44-.79.86-.2.53-.45,1.24-.74,2.13l1.48.83-2.5,4.5-6.15-4.87c-.26-.2-.49-.49-.69-.88-.3-.57-.42-1.22-.35-1.93h4.04Z"/>
      <path class="cls-1" d="M86,17.34c.76,0,1.24-.39,1.44-1.18.15-.67.11-1.54-.14-2.62-.38-1.57-1.16-3.36-2.36-5.38.5-.46,1.27-1.17,2.29-2.14,1.02-.96,1.78-1.67,2.29-2.13.33-.3.51-.45.54-.44.02,0,.13.2.33.6l1.9,3.97c.32.63.25,1.22-.21,1.76-.47.54-1.04.71-1.72.51v9.46c0,2.41-1.38,3.62-4.15,3.62h-1.14v-6.03h.93Z"/>
      <path class="cls-1" d="M101.47,17.34v6.03h-2.67c-1.12,0-2.08-.5-2.87-1.51-.8-1-1.2-2.2-1.2-3.62v-8.96c-.39.04-.72-.06-1-.28-.26-.21-.43-.49-.53-.83-.09-.35-.09-.69.02-1.02.12-.36.33-.66.63-.88,1.8-1.2,3.1-2.07,3.88-2.64.3-.21.56-.25.77-.12.21.14.31.39.3.74v11.23c0,.63.12,1.1.35,1.39.26.32.68.47,1.27.47h1.04Z"/>
      <path class="cls-1" d="M119.42,17.34v2.06c0,.9-.29,1.7-.86,2.39-.52.63-1.2,1.08-2.06,1.35-.84.27-1.69.3-2.53.11-.9-.21-1.66-.67-2.27-1.37-.66,1-1.54,1.49-2.64,1.49s-2.04-.52-2.67-1.56c-.91,1.04-1.86,1.56-2.83,1.56h-1.39v-6.03h1.95c.38,0,.69-.13.95-.4.27-.26.4-.58.4-.97v-1.85h2.43v1.85c0,.4.1.72.3.97.21.27.5.4.86.4s.65-.13.86-.4c.19-.25.28-.57.28-.97v-1.85h2.43v1.85c0,.46.26.81.77,1.05.41.21.86.32,1.34.32h4.68ZM117.11,16.6c-.05-.47-1.05-1.29-3.02-2.48l3.43-4.76c.88,1.1,1.46,2.2,1.74,3.3.14.54.19.97.16,1.3v2.64h-2.3Z"/>
      <path class="cls-1" d="M133.5,31.79h-.19c-2.46,0-4.26-.63-5.4-1.88-.91-1.01-1.38-2.4-1.41-4.17-.04-2,.38-4.01,1.23-6.03h1.85c-.49,2.12-.54,3.56-.14,4.31.52.96,1.87,1.47,4.06,1.53v6.24ZM135.72,20.22c.11-.11.11-.22,0-.33l-1.95-1.93c-.11-.11-.21-.11-.32,0l-1.95,1.93c-.11.12-.11.23,0,.33l1.95,1.93c.11.12.21.12.32,0l1.95-1.93ZM134.22,25.55c3.7-.05,5.55-1.02,5.55-2.92,0-.74-1.18-2.15-3.55-4.24l3.55-4.41c.89.86,1.54,2,1.93,3.45.19.71.29,1.35.32,1.9v4.45c0,1.89-.28,3.35-.84,4.38-1.18,2.24-3.5,3.45-6.96,3.62v-6.22Z"/>
      <path class="cls-1" d="M149.65,3.88c0,.07-.53,6.57-1.6,19.49h-1.85l-2.76-16.03c3.04-2.12,4.74-3.31,5.12-3.57.33-.26.59-.36.79-.3.22.07.32.21.3.4Z"/>
      <path class="cls-1" d="M156.4,23.79c-.11,2.36-.51,4.16-1.21,5.41-.95,1.71-2.51,2.57-4.69,2.57-1.24,0-2.74-.49-4.48-1.46-.87-.49-1.61-.98-2.23-1.46,6.93-2.86,10.65-5.03,11.16-6.52l1.46,1.46ZM153.61,19.92c-.68-.7-1.6-1.55-2.76-2.55l3.25-4.64c1.3,1.01,2.07,2.43,2.3,4.27.02.18.04,1.97.04,5.38v.37l-2.83-2.83Z"/>
      <path class="cls-1" d="M167.74,13.49c.83,1.85,1.35,3.38,1.55,4.57v2.14c0,2.03-.81,3.08-2.44,3.16h-1.48v-6.03h1.41c-.06-.05-.55-.57-1.48-1.56-1.04.77-1.85,1.29-2.41,1.56h1.67v6.03h-4.57c-.32-.01-.64-.12-.97-.32-.64-.42-.97-1.14-.97-2.14v-2.16c0-.55.26-.94.77-1.18.19-.09.62-.26,1.3-.51.52-.18,1.01-.4,1.48-.67.68-.39,1.47-1.03,2.37-1.93-.68-.63-1.45-1.31-2.3-2.04-.06.57-.38.91-.95,1.02-.56.11-.97-.09-1.23-.6l-1.79-3.5,2-5.96c2.72,2.3,4.89,4.73,6.52,7.31.05.08.1.18.16.28l1.35,2.51ZM166.42,9.25c.02-1.04-.17-2.13-.58-3.25l-.09-.25s.07-.06.21-.11l6.06-2.27.53,4.99c.07.67-.18,1.18-.76,1.53-.56.36-1.13.37-1.71.02-.5,1.04-1.1,2-1.79,2.88l-1.88-3.55Z"/>
      <path class="cls-1" d="M181.45,17.34v6.03h-2.67c-1.12,0-2.08-.5-2.87-1.51-.8-1-1.2-2.2-1.2-3.62v-8.96c-.39.04-.72-.06-1-.28-.26-.21-.43-.49-.53-.83-.09-.35-.09-.69.02-1.02.12-.36.33-.66.63-.88,1.8-1.2,3.1-2.07,3.88-2.64.3-.21.56-.25.77-.12.21.14.31.39.3.74v11.23c0,.63.12,1.1.35,1.39.26.32.68.47,1.27.47h1.04Z"/>
      <path class="cls-1" d="M199.4,17.34v2.06c0,.9-.29,1.7-.86,2.39-.52.63-1.2,1.08-2.06,1.35-.84.27-1.69.3-2.53.11-.9-.21-1.66-.67-2.27-1.37-.66,1-1.54,1.49-2.64,1.49s-2.04-.52-2.67-1.56c-.91,1.04-1.86,1.56-2.83,1.56h-1.39v-6.03h1.95c.38,0,.69-.13.95-.4.27-.26.4-.58.4-.97v-1.85h2.43v1.85c0,.4.1.72.3.97.21.27.5.4.86.4s.65-.13.86-.4c.19-.25.28-.57.28-.97v-1.85h2.43v1.85c0,.46.26.81.77,1.05.41.21.86.32,1.34.32h4.68ZM197.1,16.6c-.05-.47-1.05-1.29-3.02-2.48l3.43-4.76c.88,1.1,1.46,2.2,1.74,3.3.14.54.19.97.16,1.3v2.64h-2.3Z"/>
      <path class="cls-1" d="M207.87,17.36c-.23-.57-.63-1.01-1.2-1.32-.3-.16-.63-.28-.97-.35v-4.46h.14c1.9.01,3.26.71,4.1,2.09.47.79.7,1.56.7,2.32v1.71h1.2v6.03h-1.2v3.46c0,1.35-.49,2.5-1.48,3.46-1.01.98-2.25,1.48-3.73,1.48-1.24,0-2.74-.45-4.48-1.35-.87-.45-1.61-.89-2.23-1.34.36-.18,1.09-.52,2.18-1.02,1.17-.54,2.07-.96,2.69-1.27,2.26-1.08,3.74-1.91,4.45-2.5.35-.29.58-.6.69-.93h-3.02v-6.01h2.16ZM203.23,16.48c-.12.15-.19.33-.21.53-.02.23.05.35.21.35h1.76v6.01h-.46c-.36,0-.66,0-.9-.02-.52,0-.96-.13-1.34-.4-.52-.36-.77-.91-.77-1.65v-5.8c0-.82.17-1.56.51-2.21.59-1.15,1.57-1.82,2.95-2v4.34c-.71,0-1.3.29-1.76.86Z"/>
      <path class="cls-1" d="M220.51,17.34v2.13c0,1.64-.7,2.78-2.09,3.41-.71.33-1.49.49-2.34.49h-3.43v-6.03h7.86ZM217.45,26.67c.11-.11.11-.22,0-.33l-1.93-1.93c-.12-.11-.23-.11-.33,0l-1.93,1.93c-.12.12-.12.23,0,.33l1.93,1.93c.11.12.22.12.33,0l1.93-1.93ZM218.19,16.6c-.12-.46-1.1-1.24-2.95-2.34l3.39-4.94c1.25,1.52,1.88,3.09,1.88,4.71v2.57h-2.32ZM221.79,26.67c.11-.11.11-.22,0-.33l-1.93-1.93c-.12-.11-.23-.11-.33,0l-1.93,1.93c-.12.12-.12.23,0,.33l1.93,1.93c.11.12.22.12.33,0l1.93-1.93Z"/>
      <path class="cls-1" d="M227.8,23.37h-.26c-1.73,0-2.99-.39-3.78-1.16-.86-.83-1.24-2.19-1.14-4.06.05-.9.18-1.97.39-3.2h1.71c0,.59,0,.97.02,1.14.02.39.22.7.6.95.32.2.64.3.98.3h1.49v6.03ZM228.75,11.56c-.26-.12-.51-.21-.76-.26-.79-.19-1.44-.1-1.97.26-.26.19-.44.39-.54.62h-1.67c.13-1.02.41-2.04.84-3.08.87-2.04,2.07-3.06,3.6-3.06,1,0,1.88.3,2.64.9l-2.14,4.62ZM231.48,7.48c.75.82,1.37,1.98,1.85,3.48.53,1.65.82,3.3.88,4.94v3.45c0,1.54-.48,2.65-1.44,3.36-.55.4-1.17.62-1.85.67h-2.37v-6.03h2.29c1.08,0,1.62-.34,1.63-1.02,0-.43-.25-1.1-.76-1.99-.36-.67-.88-1.29-1.56-1.86-.25-.21-.49-.39-.74-.54l2.07-4.45Z"/>
    </g>
  </g>
</svg>